G04 #@! TF.FileFunction,Soldermask,Bot*
%FSLAX46Y46*%
G04 Gerber Fmt 4.6, Leading zero omitted, Abs format (unit mm)*
G04 Created by KiCad (PCBNEW 4.0.2-stable) date 22/12/2017 23:20:32*
%MOMM*%
G01*
G04 APERTURE LIST*
%ADD10C,0.100000*%
%ADD11C,1.924000*%
%ADD12C,4.210000*%
%ADD13R,1.920000X1.920000*%
%ADD14C,1.920000*%
%ADD15C,2.000000*%
%ADD16R,2.000000X2.000000*%
%ADD17O,2.000000X2.000000*%
%ADD18R,2.100000X2.100000*%
%ADD19O,2.100000X2.100000*%
%ADD20R,2.800000X2.800000*%
%ADD21O,2.800000X2.800000*%
%ADD22C,4.700000*%
G04 APERTURE END LIST*
D10*
D11*
X175132000Y-76472000D03*
X175132000Y-81552000D03*
X175132000Y-84092000D03*
X175132000Y-86632000D03*
X175132000Y-89172000D03*
X175132000Y-91712000D03*
X175132000Y-94252000D03*
X175132000Y-99332000D03*
X175132000Y-101872000D03*
X175132000Y-104412000D03*
X175132000Y-106952000D03*
X175132000Y-109492000D03*
X175132000Y-112032000D03*
X126872000Y-112032000D03*
X126872000Y-109492000D03*
X126872000Y-106952000D03*
X126872000Y-104412000D03*
X126872000Y-101872000D03*
X126872000Y-99332000D03*
X126872000Y-96792000D03*
X126872000Y-94252000D03*
X126872000Y-90188000D03*
X126872000Y-87648000D03*
X126872000Y-85108000D03*
X126872000Y-82568000D03*
X126872000Y-80028000D03*
X126872000Y-77488000D03*
X126872000Y-74948000D03*
X126872000Y-72408000D03*
X126872000Y-69868000D03*
X126872000Y-67328000D03*
X175132000Y-79012000D03*
D12*
X90421000Y-110508000D03*
X115821000Y-110508000D03*
D13*
X108711000Y-107968000D03*
D14*
X105921000Y-107968000D03*
X103251000Y-107968000D03*
X100451000Y-107968000D03*
X97661000Y-107968000D03*
X107311000Y-110508000D03*
X104521000Y-110508000D03*
X101851000Y-110508000D03*
X99061000Y-110508000D03*
D15*
X96138000Y-60216000D03*
X91138000Y-60216000D03*
X104647000Y-104539000D03*
X109647000Y-104539000D03*
X99186000Y-72408000D03*
X104186000Y-72408000D03*
X84454000Y-87394000D03*
X84454000Y-92394000D03*
D16*
X99186000Y-76218000D03*
D17*
X106806000Y-83838000D03*
X99186000Y-78758000D03*
X106806000Y-81298000D03*
X99186000Y-81298000D03*
X106806000Y-78758000D03*
X99186000Y-83838000D03*
X106806000Y-76218000D03*
D18*
X211708000Y-76916500D03*
D19*
X211708000Y-79456500D03*
X211708000Y-81996500D03*
X211708000Y-84536500D03*
X211708000Y-87076500D03*
D12*
X78486000Y-69190000D03*
X78486000Y-94590000D03*
D13*
X81026000Y-87480000D03*
D14*
X81026000Y-84690000D03*
X81026000Y-82020000D03*
X81026000Y-79220000D03*
X81026000Y-76430000D03*
X78486000Y-86080000D03*
X78486000Y-83290000D03*
X78486000Y-80620000D03*
X78486000Y-77830000D03*
D12*
X115825000Y-53231000D03*
X90425000Y-53231000D03*
D13*
X97535000Y-55771000D03*
D14*
X100325000Y-55771000D03*
X102995000Y-55771000D03*
X105795000Y-55771000D03*
X108585000Y-55771000D03*
X98935000Y-53231000D03*
X101725000Y-53231000D03*
X104395000Y-53231000D03*
X107185000Y-53231000D03*
D12*
X219717000Y-94906200D03*
X219717000Y-69506200D03*
D13*
X217177000Y-87666200D03*
D14*
X217177000Y-84876200D03*
X217177000Y-82076200D03*
X217177000Y-79416200D03*
X217177000Y-76616200D03*
X219717000Y-78016200D03*
X219717000Y-80806200D03*
X219717000Y-83476200D03*
X219717000Y-86266200D03*
D15*
X153800000Y-104900000D03*
D17*
X146180000Y-104900000D03*
D15*
X153800000Y-108900000D03*
D17*
X146180000Y-108900000D03*
D15*
X153800000Y-100900000D03*
D17*
X146180000Y-100900000D03*
D15*
X187070000Y-73170000D03*
D17*
X187070000Y-65550000D03*
D15*
X190880000Y-73170000D03*
D17*
X190880000Y-65550000D03*
D15*
X186816000Y-89934000D03*
D17*
X186816000Y-97554000D03*
D15*
X191896000Y-89934000D03*
D17*
X191896000Y-97554000D03*
D15*
X153796000Y-72408000D03*
D17*
X146176000Y-72408000D03*
D15*
X180339000Y-86632000D03*
X180339000Y-91632000D03*
D20*
X199516000Y-73170000D03*
D21*
X199516000Y-91170000D03*
D22*
X79000000Y-54000000D03*
X79000000Y-110000000D03*
X219000000Y-110000000D03*
X219000000Y-54000000D03*
M02*
