%FSLAX45Y45*%
G04 Gerber Fmt 4.5, Leading zero omitted, Abs format (unit mm)*
G04 Created by KiCad (PCBNEW 4.0.2-stable) date 22/12/2017 23:20:40*
%MOMM*%
G01*
G04 APERTURE LIST*
%ADD10C,0.127000*%
%ADD11C,0.150000*%
%ADD12C,0.200000*%
%ADD13C,0.300000*%
G04 APERTURE END LIST*
D10*
D11*
X22650000Y-4650000D02*
X22650000Y-11750000D01*
X7150000Y-4650000D02*
X22650000Y-4650000D01*
X7150000Y-4650000D02*
X7150000Y-11750000D01*
X7150000Y-11750000D02*
X22650000Y-11750000D01*
D12*
X7685000Y-5185000D02*
X8115000Y-5615000D01*
X8115000Y-5185000D02*
X7685000Y-5615000D01*
X7685000Y-10785000D02*
X8115000Y-11215000D01*
X8115000Y-10785000D02*
X7685000Y-11215000D01*
X21685000Y-5185000D02*
X22115000Y-5615000D01*
X22115000Y-5185000D02*
X21685000Y-5615000D01*
X21685000Y-10785000D02*
X22115000Y-11215000D01*
X22115000Y-10785000D02*
X21685000Y-11215000D01*
D13*
X7413928Y-12223214D02*
X7413928Y-11923214D01*
X7485357Y-11923214D01*
X7528214Y-11937500D01*
X7556786Y-11966071D01*
X7571071Y-11994643D01*
X7585357Y-12051786D01*
X7585357Y-12094643D01*
X7571071Y-12151786D01*
X7556786Y-12180357D01*
X7528214Y-12208929D01*
X7485357Y-12223214D01*
X7413928Y-12223214D01*
X7713928Y-12223214D02*
X7713928Y-12023214D01*
X7713928Y-12080357D02*
X7728214Y-12051786D01*
X7742500Y-12037500D01*
X7771071Y-12023214D01*
X7799643Y-12023214D01*
X7899643Y-12223214D02*
X7899643Y-12023214D01*
X7899643Y-11923214D02*
X7885357Y-11937500D01*
X7899643Y-11951786D01*
X7913928Y-11937500D01*
X7899643Y-11923214D01*
X7899643Y-11951786D01*
X8085357Y-12223214D02*
X8056786Y-12208929D01*
X8042500Y-12180357D01*
X8042500Y-11923214D01*
X8242500Y-12223214D02*
X8213928Y-12208929D01*
X8199643Y-12180357D01*
X8199643Y-11923214D01*
X8585357Y-12223214D02*
X8585357Y-11923214D01*
X8685357Y-12137500D01*
X8785357Y-11923214D01*
X8785357Y-12223214D01*
X9056786Y-12223214D02*
X9056786Y-12066071D01*
X9042500Y-12037500D01*
X9013929Y-12023214D01*
X8956786Y-12023214D01*
X8928214Y-12037500D01*
X9056786Y-12208929D02*
X9028214Y-12223214D01*
X8956786Y-12223214D01*
X8928214Y-12208929D01*
X8913929Y-12180357D01*
X8913929Y-12151786D01*
X8928214Y-12123214D01*
X8956786Y-12108929D01*
X9028214Y-12108929D01*
X9056786Y-12094643D01*
X9199643Y-12023214D02*
X9199643Y-12323214D01*
X9199643Y-12037500D02*
X9228214Y-12023214D01*
X9285357Y-12023214D01*
X9313929Y-12037500D01*
X9328214Y-12051786D01*
X9342500Y-12080357D01*
X9342500Y-12166071D01*
X9328214Y-12194643D01*
X9313929Y-12208929D01*
X9285357Y-12223214D01*
X9228214Y-12223214D01*
X9199643Y-12208929D01*
X9471071Y-12194643D02*
X9485357Y-12208929D01*
X9471071Y-12223214D01*
X9456786Y-12208929D01*
X9471071Y-12194643D01*
X9471071Y-12223214D01*
X9471071Y-12037500D02*
X9485357Y-12051786D01*
X9471071Y-12066071D01*
X9456786Y-12051786D01*
X9471071Y-12037500D01*
X9471071Y-12066071D01*
X6712500Y-12502500D02*
X7142500Y-12932500D01*
X7142500Y-12502500D02*
X6712500Y-12932500D01*
X7542500Y-12653214D02*
X7542500Y-12853214D01*
X7471071Y-12538929D02*
X7399643Y-12753214D01*
X7585357Y-12753214D01*
X7699643Y-12824643D02*
X7713928Y-12838929D01*
X7699643Y-12853214D01*
X7685357Y-12838929D01*
X7699643Y-12824643D01*
X7699643Y-12853214D01*
X7813928Y-12553214D02*
X7999643Y-12553214D01*
X7899643Y-12667500D01*
X7942500Y-12667500D01*
X7971071Y-12681786D01*
X7985357Y-12696071D01*
X7999643Y-12724643D01*
X7999643Y-12796071D01*
X7985357Y-12824643D01*
X7971071Y-12838929D01*
X7942500Y-12853214D01*
X7856786Y-12853214D01*
X7828214Y-12838929D01*
X7813928Y-12824643D01*
X8185357Y-12553214D02*
X8213928Y-12553214D01*
X8242500Y-12567500D01*
X8256786Y-12581786D01*
X8271071Y-12610357D01*
X8285357Y-12667500D01*
X8285357Y-12738929D01*
X8271071Y-12796071D01*
X8256786Y-12824643D01*
X8242500Y-12838929D01*
X8213928Y-12853214D01*
X8185357Y-12853214D01*
X8156786Y-12838929D01*
X8142500Y-12824643D01*
X8128214Y-12796071D01*
X8113928Y-12738929D01*
X8113928Y-12667500D01*
X8128214Y-12610357D01*
X8142500Y-12581786D01*
X8156786Y-12567500D01*
X8185357Y-12553214D01*
X8413929Y-12853214D02*
X8413929Y-12653214D01*
X8413929Y-12681786D02*
X8428214Y-12667500D01*
X8456786Y-12653214D01*
X8499643Y-12653214D01*
X8528214Y-12667500D01*
X8542500Y-12696071D01*
X8542500Y-12853214D01*
X8542500Y-12696071D02*
X8556786Y-12667500D01*
X8585357Y-12653214D01*
X8628214Y-12653214D01*
X8656786Y-12667500D01*
X8671071Y-12696071D01*
X8671071Y-12853214D01*
X8813929Y-12853214D02*
X8813929Y-12653214D01*
X8813929Y-12681786D02*
X8828214Y-12667500D01*
X8856786Y-12653214D01*
X8899643Y-12653214D01*
X8928214Y-12667500D01*
X8942500Y-12696071D01*
X8942500Y-12853214D01*
X8942500Y-12696071D02*
X8956786Y-12667500D01*
X8985357Y-12653214D01*
X9028214Y-12653214D01*
X9056786Y-12667500D01*
X9071071Y-12696071D01*
X9071071Y-12853214D01*
X9656786Y-12538929D02*
X9399643Y-12924643D01*
X10042500Y-12553214D02*
X10071071Y-12553214D01*
X10099643Y-12567500D01*
X10113928Y-12581786D01*
X10128214Y-12610357D01*
X10142500Y-12667500D01*
X10142500Y-12738929D01*
X10128214Y-12796071D01*
X10113928Y-12824643D01*
X10099643Y-12838929D01*
X10071071Y-12853214D01*
X10042500Y-12853214D01*
X10013928Y-12838929D01*
X9999643Y-12824643D01*
X9985357Y-12796071D01*
X9971071Y-12738929D01*
X9971071Y-12667500D01*
X9985357Y-12610357D01*
X9999643Y-12581786D01*
X10013928Y-12567500D01*
X10042500Y-12553214D01*
X10271071Y-12824643D02*
X10285357Y-12838929D01*
X10271071Y-12853214D01*
X10256786Y-12838929D01*
X10271071Y-12824643D01*
X10271071Y-12853214D01*
X10571071Y-12853214D02*
X10399643Y-12853214D01*
X10485357Y-12853214D02*
X10485357Y-12553214D01*
X10456786Y-12596071D01*
X10428214Y-12624643D01*
X10399643Y-12638929D01*
X10828214Y-12553214D02*
X10771071Y-12553214D01*
X10742500Y-12567500D01*
X10728214Y-12581786D01*
X10699643Y-12624643D01*
X10685357Y-12681786D01*
X10685357Y-12796071D01*
X10699643Y-12824643D01*
X10713928Y-12838929D01*
X10742500Y-12853214D01*
X10799643Y-12853214D01*
X10828214Y-12838929D01*
X10842500Y-12824643D01*
X10856786Y-12796071D01*
X10856786Y-12724643D01*
X10842500Y-12696071D01*
X10828214Y-12681786D01*
X10799643Y-12667500D01*
X10742500Y-12667500D01*
X10713928Y-12681786D01*
X10699643Y-12696071D01*
X10685357Y-12724643D01*
X10999643Y-12853214D02*
X11056786Y-12853214D01*
X11085357Y-12838929D01*
X11099643Y-12824643D01*
X11128214Y-12781786D01*
X11142500Y-12724643D01*
X11142500Y-12610357D01*
X11128214Y-12581786D01*
X11113928Y-12567500D01*
X11085357Y-12553214D01*
X11028214Y-12553214D01*
X10999643Y-12567500D01*
X10985357Y-12581786D01*
X10971071Y-12610357D01*
X10971071Y-12681786D01*
X10985357Y-12710357D01*
X10999643Y-12724643D01*
X11028214Y-12738929D01*
X11085357Y-12738929D01*
X11113928Y-12724643D01*
X11128214Y-12710357D01*
X11142500Y-12681786D01*
X11256786Y-12553214D02*
X11256786Y-12610357D01*
X11371071Y-12553214D02*
X11371071Y-12610357D01*
X11813928Y-12967500D02*
X11799643Y-12953214D01*
X11771071Y-12910357D01*
X11756785Y-12881786D01*
X11742500Y-12838929D01*
X11728214Y-12767500D01*
X11728214Y-12710357D01*
X11742500Y-12638929D01*
X11756785Y-12596071D01*
X11771071Y-12567500D01*
X11799643Y-12524643D01*
X11813928Y-12510357D01*
X12056785Y-12653214D02*
X12056785Y-12853214D01*
X11985357Y-12538929D02*
X11913928Y-12753214D01*
X12099643Y-12753214D01*
X12442500Y-12853214D02*
X12442500Y-12553214D01*
X12571071Y-12853214D02*
X12571071Y-12696071D01*
X12556785Y-12667500D01*
X12528214Y-12653214D01*
X12485357Y-12653214D01*
X12456785Y-12667500D01*
X12442500Y-12681786D01*
X12756785Y-12853214D02*
X12728214Y-12838929D01*
X12713928Y-12824643D01*
X12699643Y-12796071D01*
X12699643Y-12710357D01*
X12713928Y-12681786D01*
X12728214Y-12667500D01*
X12756785Y-12653214D01*
X12799643Y-12653214D01*
X12828214Y-12667500D01*
X12842500Y-12681786D01*
X12856785Y-12710357D01*
X12856785Y-12796071D01*
X12842500Y-12824643D01*
X12828214Y-12838929D01*
X12799643Y-12853214D01*
X12756785Y-12853214D01*
X13028214Y-12853214D02*
X12999643Y-12838929D01*
X12985357Y-12810357D01*
X12985357Y-12553214D01*
X13256786Y-12838929D02*
X13228214Y-12853214D01*
X13171071Y-12853214D01*
X13142500Y-12838929D01*
X13128214Y-12810357D01*
X13128214Y-12696071D01*
X13142500Y-12667500D01*
X13171071Y-12653214D01*
X13228214Y-12653214D01*
X13256786Y-12667500D01*
X13271071Y-12696071D01*
X13271071Y-12724643D01*
X13128214Y-12753214D01*
X13385357Y-12838929D02*
X13413928Y-12853214D01*
X13471071Y-12853214D01*
X13499643Y-12838929D01*
X13513928Y-12810357D01*
X13513928Y-12796071D01*
X13499643Y-12767500D01*
X13471071Y-12753214D01*
X13428214Y-12753214D01*
X13399643Y-12738929D01*
X13385357Y-12710357D01*
X13385357Y-12696071D01*
X13399643Y-12667500D01*
X13428214Y-12653214D01*
X13471071Y-12653214D01*
X13499643Y-12667500D01*
X13613928Y-12967500D02*
X13628214Y-12953214D01*
X13656786Y-12910357D01*
X13671071Y-12881786D01*
X13685357Y-12838929D01*
X13699643Y-12767500D01*
X13699643Y-12710357D01*
X13685357Y-12638929D01*
X13671071Y-12596071D01*
X13656786Y-12567500D01*
X13628214Y-12524643D01*
X13613928Y-12510357D01*
X14156786Y-12967500D02*
X14142500Y-12953214D01*
X14113928Y-12910357D01*
X14099643Y-12881786D01*
X14085357Y-12838929D01*
X14071071Y-12767500D01*
X14071071Y-12710357D01*
X14085357Y-12638929D01*
X14099643Y-12596071D01*
X14113928Y-12567500D01*
X14142500Y-12524643D01*
X14156786Y-12510357D01*
X14271071Y-12653214D02*
X14271071Y-12853214D01*
X14271071Y-12681786D02*
X14285357Y-12667500D01*
X14313928Y-12653214D01*
X14356786Y-12653214D01*
X14385357Y-12667500D01*
X14399643Y-12696071D01*
X14399643Y-12853214D01*
X14585357Y-12853214D02*
X14556786Y-12838929D01*
X14542500Y-12824643D01*
X14528214Y-12796071D01*
X14528214Y-12710357D01*
X14542500Y-12681786D01*
X14556786Y-12667500D01*
X14585357Y-12653214D01*
X14628214Y-12653214D01*
X14656786Y-12667500D01*
X14671071Y-12681786D01*
X14685357Y-12710357D01*
X14685357Y-12796071D01*
X14671071Y-12824643D01*
X14656786Y-12838929D01*
X14628214Y-12853214D01*
X14585357Y-12853214D01*
X14771071Y-12653214D02*
X14885357Y-12653214D01*
X14813928Y-12553214D02*
X14813928Y-12810357D01*
X14828214Y-12838929D01*
X14856786Y-12853214D01*
X14885357Y-12853214D01*
X15213928Y-12653214D02*
X15213928Y-12953214D01*
X15213928Y-12667500D02*
X15242500Y-12653214D01*
X15299643Y-12653214D01*
X15328214Y-12667500D01*
X15342500Y-12681786D01*
X15356786Y-12710357D01*
X15356786Y-12796071D01*
X15342500Y-12824643D01*
X15328214Y-12838929D01*
X15299643Y-12853214D01*
X15242500Y-12853214D01*
X15213928Y-12838929D01*
X15528214Y-12853214D02*
X15499643Y-12838929D01*
X15485357Y-12810357D01*
X15485357Y-12553214D01*
X15771071Y-12853214D02*
X15771071Y-12696071D01*
X15756786Y-12667500D01*
X15728214Y-12653214D01*
X15671071Y-12653214D01*
X15642500Y-12667500D01*
X15771071Y-12838929D02*
X15742500Y-12853214D01*
X15671071Y-12853214D01*
X15642500Y-12838929D01*
X15628214Y-12810357D01*
X15628214Y-12781786D01*
X15642500Y-12753214D01*
X15671071Y-12738929D01*
X15742500Y-12738929D01*
X15771071Y-12724643D01*
X15871071Y-12653214D02*
X15985357Y-12653214D01*
X15913929Y-12553214D02*
X15913929Y-12810357D01*
X15928214Y-12838929D01*
X15956786Y-12853214D01*
X15985357Y-12853214D01*
X16199643Y-12838929D02*
X16171071Y-12853214D01*
X16113929Y-12853214D01*
X16085357Y-12838929D01*
X16071071Y-12810357D01*
X16071071Y-12696071D01*
X16085357Y-12667500D01*
X16113929Y-12653214D01*
X16171071Y-12653214D01*
X16199643Y-12667500D01*
X16213929Y-12696071D01*
X16213929Y-12724643D01*
X16071071Y-12753214D01*
X16471071Y-12853214D02*
X16471071Y-12553214D01*
X16471071Y-12838929D02*
X16442500Y-12853214D01*
X16385357Y-12853214D01*
X16356786Y-12838929D01*
X16342500Y-12824643D01*
X16328214Y-12796071D01*
X16328214Y-12710357D01*
X16342500Y-12681786D01*
X16356786Y-12667500D01*
X16385357Y-12653214D01*
X16442500Y-12653214D01*
X16471071Y-12667500D01*
X16585357Y-12967500D02*
X16599643Y-12953214D01*
X16628214Y-12910357D01*
X16642500Y-12881786D01*
X16656786Y-12838929D01*
X16671071Y-12767500D01*
X16671071Y-12710357D01*
X16656786Y-12638929D01*
X16642500Y-12596071D01*
X16628214Y-12567500D01*
X16599643Y-12524643D01*
X16585357Y-12510357D01*
M02*
