M48
;DRILL file {KiCad 4.0.2-stable} date 22/12/2017 23:20:38
;FORMAT={-:-/ absolute / inch / decimal}
FMAT,2
INCH,TZ
T1C0.016
T2C0.030
T3C0.031
T4C0.039
T5C0.040
T6C0.047
T7C0.120
%
G90
G05
M72
T1
X3.475Y-3.9157
X3.57Y-3.1757
X3.57Y-4.0157
X3.845Y-3.8757
X3.905Y-3.7407
X4.015Y-3.9607
X4.02Y-3.1007
X4.065Y-3.8207
X4.205Y-3.7107
X4.275Y-2.3957
X4.72Y-2.3557
X4.76Y-2.3107
X6.575Y-2.3957
X6.575Y-4.1107
X8.42Y-3.7707
X8.45Y-2.6507
X8.455Y-3.9157
X8.775Y-2.5807
T2
X4.995Y-2.6507
X4.995Y-2.7507
X4.995Y-2.8507
X4.995Y-2.9507
X4.995Y-3.0507
X4.995Y-3.1507
X4.995Y-3.2507
X4.995Y-3.3507
X4.995Y-3.4507
X4.995Y-3.5507
X4.995Y-3.7107
X4.995Y-3.8107
X4.995Y-3.9107
X4.995Y-4.0107
X4.995Y-4.1107
X4.995Y-4.2107
X4.995Y-4.3107
X4.995Y-4.4107
X6.895Y-3.0107
X6.895Y-3.1107
X6.895Y-3.2107
X6.895Y-3.3107
X6.895Y-3.4107
X6.895Y-3.5107
X6.895Y-3.6107
X6.895Y-3.7107
X6.895Y-3.9107
X6.895Y-4.0107
X6.895Y-4.1107
X6.895Y-4.2107
X6.895Y-4.3107
X6.895Y-4.4107
T3
X3.325Y-3.4407
X3.325Y-3.6376
X3.5881Y-2.3707
X3.785Y-2.3707
X3.905Y-2.8507
X3.905Y-3.0007
X3.905Y-3.1007
X3.905Y-3.2007
X3.905Y-3.3007
X4.1018Y-2.8507
X4.12Y-4.1157
X4.205Y-3.0007
X4.205Y-3.1007
X4.205Y-3.2007
X4.205Y-3.3007
X4.3168Y-4.1157
X5.755Y-2.8507
X5.7551Y-3.9724
X5.7551Y-4.1299
X5.7551Y-4.2874
X6.055Y-2.8507
X6.0551Y-3.9724
X6.0551Y-4.1299
X6.0551Y-4.2874
X7.1Y-3.4107
X7.1Y-3.6076
X7.355Y-3.5407
X7.355Y-3.8407
X7.365Y-2.5807
X7.365Y-2.8807
X7.515Y-2.5807
X7.515Y-2.8807
X7.555Y-3.5407
X7.555Y-3.8407
T4
X8.335Y-3.0282
X8.335Y-3.1282
X8.335Y-3.2282
X8.335Y-3.3282
X8.335Y-3.4282
T5
X3.09Y-3.0642
X3.09Y-3.174
X3.09Y-3.2791
X3.09Y-3.389
X3.19Y-3.0091
X3.19Y-3.1189
X3.19Y-3.2291
X3.19Y-3.3343
X3.19Y-3.4441
X3.84Y-2.1957
X3.8449Y-4.2507
X3.8951Y-2.0957
X3.9Y-4.3507
X3.9498Y-2.1957
X3.9548Y-4.2507
X4.0049Y-2.0957
X4.0099Y-4.3507
X4.0549Y-2.1957
X4.065Y-4.2507
X4.11Y-2.0957
X4.115Y-4.3507
X4.1652Y-2.1957
X4.1701Y-4.2507
X4.2199Y-2.0957
X4.2248Y-4.3507
X4.275Y-2.1957
X4.28Y-4.2507
X8.5503Y-3.0164
X8.5503Y-3.1266
X8.5503Y-3.2313
X8.5503Y-3.3416
X8.5503Y-3.4514
X8.6503Y-3.0715
X8.6503Y-3.1813
X8.6503Y-3.2865
X8.6503Y-3.3963
T6
X7.855Y-2.8807
X7.855Y-3.5894
T7
X3.09Y-2.724
X3.09Y-3.724
X3.5599Y-4.3507
X3.56Y-2.0957
X4.5599Y-4.3507
X4.56Y-2.0957
X8.6503Y-2.7365
X8.6503Y-3.7365
T0
M30
