G04 #@! TF.FileFunction,Copper,L1,Top,Signal*
%FSLAX46Y46*%
G04 Gerber Fmt 4.6, Leading zero omitted, Abs format (unit mm)*
G04 Created by KiCad (PCBNEW 4.0.2-stable) date 22/12/2017 23:20:32*
%MOMM*%
G01*
G04 APERTURE LIST*
%ADD10C,0.100000*%
%ADD11C,1.524000*%
%ADD12C,3.810000*%
%ADD13R,1.520000X1.520000*%
%ADD14C,1.520000*%
%ADD15C,1.600000*%
%ADD16R,1.600000X1.600000*%
%ADD17O,1.600000X1.600000*%
%ADD18R,1.700000X1.700000*%
%ADD19O,1.700000X1.700000*%
%ADD20R,2.400000X2.400000*%
%ADD21O,2.400000X2.400000*%
%ADD22C,0.800000*%
%ADD23C,0.200000*%
%ADD24C,0.250000*%
G04 APERTURE END LIST*
D10*
D11*
X175132000Y-76472000D03*
X175132000Y-81552000D03*
X175132000Y-84092000D03*
X175132000Y-86632000D03*
X175132000Y-89172000D03*
X175132000Y-91712000D03*
X175132000Y-94252000D03*
X175132000Y-99332000D03*
X175132000Y-101872000D03*
X175132000Y-104412000D03*
X175132000Y-106952000D03*
X175132000Y-109492000D03*
X175132000Y-112032000D03*
X126872000Y-112032000D03*
X126872000Y-109492000D03*
X126872000Y-106952000D03*
X126872000Y-104412000D03*
X126872000Y-101872000D03*
X126872000Y-99332000D03*
X126872000Y-96792000D03*
X126872000Y-94252000D03*
X126872000Y-90188000D03*
X126872000Y-87648000D03*
X126872000Y-85108000D03*
X126872000Y-82568000D03*
X126872000Y-80028000D03*
X126872000Y-77488000D03*
X126872000Y-74948000D03*
X126872000Y-72408000D03*
X126872000Y-69868000D03*
X126872000Y-67328000D03*
X175132000Y-79012000D03*
D12*
X90421000Y-110508000D03*
X115821000Y-110508000D03*
D13*
X108711000Y-107968000D03*
D14*
X105921000Y-107968000D03*
X103251000Y-107968000D03*
X100451000Y-107968000D03*
X97661000Y-107968000D03*
X107311000Y-110508000D03*
X104521000Y-110508000D03*
X101851000Y-110508000D03*
X99061000Y-110508000D03*
D15*
X96138000Y-60216000D03*
X91138000Y-60216000D03*
X104647000Y-104539000D03*
X109647000Y-104539000D03*
X99186000Y-72408000D03*
X104186000Y-72408000D03*
X84454000Y-87394000D03*
X84454000Y-92394000D03*
D16*
X99186000Y-76218000D03*
D17*
X106806000Y-83838000D03*
X99186000Y-78758000D03*
X106806000Y-81298000D03*
X99186000Y-81298000D03*
X106806000Y-78758000D03*
X99186000Y-83838000D03*
X106806000Y-76218000D03*
D18*
X211708000Y-76916500D03*
D19*
X211708000Y-79456500D03*
X211708000Y-81996500D03*
X211708000Y-84536500D03*
X211708000Y-87076500D03*
D12*
X78486000Y-69190000D03*
X78486000Y-94590000D03*
D13*
X81026000Y-87480000D03*
D14*
X81026000Y-84690000D03*
X81026000Y-82020000D03*
X81026000Y-79220000D03*
X81026000Y-76430000D03*
X78486000Y-86080000D03*
X78486000Y-83290000D03*
X78486000Y-80620000D03*
X78486000Y-77830000D03*
D12*
X115825000Y-53231000D03*
X90425000Y-53231000D03*
D13*
X97535000Y-55771000D03*
D14*
X100325000Y-55771000D03*
X102995000Y-55771000D03*
X105795000Y-55771000D03*
X108585000Y-55771000D03*
X98935000Y-53231000D03*
X101725000Y-53231000D03*
X104395000Y-53231000D03*
X107185000Y-53231000D03*
D12*
X219717000Y-94906200D03*
X219717000Y-69506200D03*
D13*
X217177000Y-87666200D03*
D14*
X217177000Y-84876200D03*
X217177000Y-82076200D03*
X217177000Y-79416200D03*
X217177000Y-76616200D03*
X219717000Y-78016200D03*
X219717000Y-80806200D03*
X219717000Y-83476200D03*
X219717000Y-86266200D03*
D15*
X153800000Y-104900000D03*
D17*
X146180000Y-104900000D03*
D15*
X153800000Y-108900000D03*
D17*
X146180000Y-108900000D03*
D15*
X153800000Y-100900000D03*
D17*
X146180000Y-100900000D03*
D15*
X187070000Y-73170000D03*
D17*
X187070000Y-65550000D03*
D15*
X190880000Y-73170000D03*
D17*
X190880000Y-65550000D03*
D15*
X186816000Y-89934000D03*
D17*
X186816000Y-97554000D03*
D15*
X191896000Y-89934000D03*
D17*
X191896000Y-97554000D03*
D15*
X153796000Y-72408000D03*
D17*
X146176000Y-72408000D03*
D15*
X180339000Y-86632000D03*
X180339000Y-91632000D03*
D20*
X199516000Y-73170000D03*
D21*
X199516000Y-91170000D03*
D22*
X222884000Y-65550000D03*
X214629000Y-67328000D03*
X99186000Y-95014000D03*
X214756000Y-99459000D03*
X213867000Y-95776000D03*
X106806000Y-94252000D03*
X97662000Y-98443000D03*
X101980000Y-100602000D03*
X90677000Y-80663000D03*
X90677000Y-101999000D03*
X120903000Y-58692000D03*
X119887000Y-59835000D03*
X102107000Y-78758000D03*
X103250000Y-97046000D03*
X88264000Y-99459000D03*
X167004000Y-104412000D03*
X167004000Y-60851000D03*
X108584000Y-60851000D03*
D23*
X126872000Y-63645000D02*
X126618000Y-63645000D01*
X125221000Y-69868000D02*
X126872000Y-69868000D01*
X124967000Y-69614000D02*
X125221000Y-69868000D01*
X124967000Y-65296000D02*
X124967000Y-69614000D01*
X126618000Y-63645000D02*
X124967000Y-65296000D01*
X190880000Y-65550000D02*
X190880000Y-64407000D01*
X190118000Y-63645000D02*
X126872000Y-63645000D01*
X190880000Y-64407000D02*
X190118000Y-63645000D01*
X222884000Y-65550000D02*
X190880000Y-65550000D01*
X187070000Y-67328000D02*
X214629000Y-67328000D01*
X126872000Y-67328000D02*
X187070000Y-67328000D01*
X187070000Y-67328000D02*
X187070000Y-65550000D01*
X126872000Y-96792000D02*
X125983000Y-95903000D01*
X100075000Y-95903000D02*
X125983000Y-95903000D01*
X100075000Y-95903000D02*
X99186000Y-95014000D01*
X186816000Y-97554000D02*
X185927000Y-96792000D01*
X185927000Y-96792000D02*
X126999000Y-96792000D01*
X126999000Y-96792000D02*
X126872000Y-96792000D01*
X188721000Y-99459000D02*
X186816000Y-97554000D01*
X203961000Y-99459000D02*
X188721000Y-99459000D01*
X214756000Y-99459000D02*
X203961000Y-99459000D01*
X191896000Y-95776000D02*
X213867000Y-95776000D01*
X191896000Y-97554000D02*
X191896000Y-95776000D01*
X170052000Y-94252000D02*
X171576000Y-95776000D01*
X171576000Y-95776000D02*
X191896000Y-95776000D01*
X170052000Y-94252000D02*
X126872000Y-94252000D01*
X126872000Y-94252000D02*
X106806000Y-94252000D01*
X97662000Y-98443000D02*
X123316000Y-98443000D01*
X126872000Y-99332000D02*
X124205000Y-99332000D01*
X124205000Y-99332000D02*
X123316000Y-98443000D01*
X101980000Y-100602000D02*
X122427000Y-100602000D01*
X122427000Y-100602000D02*
X123697000Y-101872000D01*
X126872000Y-101872000D02*
X123697000Y-101872000D01*
X91947000Y-90188000D02*
X91566000Y-90188000D01*
X91566000Y-90188000D02*
X85978000Y-84600000D01*
X126872000Y-90188000D02*
X91947000Y-90188000D01*
X81751000Y-84600000D02*
X81026000Y-84690000D01*
X85978000Y-84600000D02*
X81751000Y-84600000D01*
X92836000Y-87648000D02*
X92074000Y-87648000D01*
X92074000Y-87648000D02*
X86446000Y-82020000D01*
X81026000Y-82020000D02*
X86446000Y-82020000D01*
X92836000Y-87648000D02*
X126872000Y-87648000D01*
X126872000Y-104412000D02*
X124332000Y-104412000D01*
X90634000Y-80620000D02*
X78486000Y-80620000D01*
X90677000Y-80663000D02*
X90634000Y-80620000D01*
X121919000Y-101999000D02*
X90677000Y-101999000D01*
X124332000Y-104412000D02*
X121919000Y-101999000D01*
X104393000Y-58692000D02*
X104266000Y-58692000D01*
X102995000Y-57421000D02*
X102995000Y-55771000D01*
X104266000Y-58692000D02*
X102995000Y-57421000D01*
X146180000Y-104900000D02*
X146180000Y-104916000D01*
X146180000Y-104916000D02*
X141604000Y-109492000D01*
X141604000Y-109492000D02*
X138048000Y-109492000D01*
X120903000Y-58692000D02*
X113410000Y-58692000D01*
X113410000Y-58692000D02*
X104393000Y-58692000D01*
X126872000Y-109492000D02*
X138048000Y-109492000D01*
X103377000Y-59835000D02*
X102488000Y-59835000D01*
X100325000Y-57672000D02*
X100325000Y-55771000D01*
X102488000Y-59835000D02*
X100325000Y-57672000D01*
X146180000Y-108900000D02*
X146180000Y-108980000D01*
X146180000Y-108980000D02*
X143128000Y-112032000D01*
X143128000Y-112032000D02*
X139572000Y-112032000D01*
X103377000Y-59835000D02*
X107441000Y-59835000D01*
X107441000Y-59835000D02*
X119887000Y-59835000D01*
X139572000Y-112032000D02*
X126872000Y-112032000D01*
X135508000Y-106952000D02*
X140128000Y-106952000D01*
X140128000Y-106952000D02*
X146180000Y-100900000D01*
X135508000Y-106952000D02*
X126872000Y-106952000D01*
X126872000Y-80028000D02*
X165988000Y-80028000D01*
X206691500Y-81996500D02*
X211708000Y-81996500D01*
X204977000Y-80282000D02*
X206691500Y-81996500D01*
X166242000Y-80282000D02*
X204977000Y-80282000D01*
X165988000Y-80028000D02*
X166242000Y-80282000D01*
X211708000Y-87076500D02*
X212914500Y-87076500D01*
X133095000Y-82568000D02*
X126872000Y-82568000D01*
X133349000Y-82822000D02*
X133095000Y-82568000D01*
X180466000Y-82822000D02*
X133349000Y-82822000D01*
X180974000Y-83330000D02*
X180466000Y-82822000D01*
X212851000Y-83330000D02*
X180974000Y-83330000D01*
X213232000Y-83711000D02*
X212851000Y-83330000D01*
X213232000Y-86759000D02*
X213232000Y-83711000D01*
X212914500Y-87076500D02*
X213232000Y-86759000D01*
X211708000Y-84536500D02*
X208596500Y-84536500D01*
X208660000Y-84536500D02*
X208596500Y-84536500D01*
X208596500Y-84536500D02*
X178497500Y-84536500D01*
X132079000Y-85108000D02*
X126872000Y-85108000D01*
X132206000Y-85362000D02*
X132079000Y-85108000D01*
X177672000Y-85362000D02*
X132206000Y-85362000D01*
X178497500Y-84536500D02*
X177672000Y-85362000D01*
X126872000Y-77488000D02*
X115061000Y-77488000D01*
X115061000Y-77488000D02*
X112521000Y-80028000D01*
X102488000Y-81298000D02*
X99186000Y-81298000D01*
X112521000Y-80028000D02*
X103758000Y-80028000D01*
X103758000Y-80028000D02*
X102742000Y-81044000D01*
X102742000Y-81044000D02*
X102488000Y-81298000D01*
X106806000Y-78758000D02*
X102107000Y-78758000D01*
X125602000Y-98062000D02*
X124840000Y-98062000D01*
X123824000Y-97046000D02*
X103250000Y-97046000D01*
X124840000Y-98062000D02*
X123824000Y-97046000D01*
X165734000Y-99332000D02*
X175132000Y-99332000D01*
X164464000Y-98062000D02*
X165734000Y-99332000D01*
X125602000Y-98062000D02*
X164464000Y-98062000D01*
X132079000Y-100602000D02*
X133222000Y-100602000D01*
X156082000Y-99332000D02*
X158622000Y-101872000D01*
X134492000Y-99332000D02*
X156082000Y-99332000D01*
X133222000Y-100602000D02*
X134492000Y-99332000D01*
X124459000Y-100602000D02*
X123951000Y-100602000D01*
X123951000Y-100602000D02*
X122808000Y-99459000D01*
X122808000Y-99459000D02*
X118490000Y-99459000D01*
X122808000Y-99459000D02*
X118490000Y-99459000D01*
X118490000Y-99459000D02*
X88264000Y-99459000D01*
X132079000Y-100602000D02*
X124459000Y-100602000D01*
X175132000Y-101872000D02*
X158622000Y-101872000D01*
X167004000Y-60851000D02*
X108584000Y-60851000D01*
X167004000Y-104412000D02*
X175132000Y-104412000D01*
X146176000Y-72408000D02*
X126872000Y-72408000D01*
D24*
G36*
X223775000Y-114955000D02*
X74165000Y-114955000D01*
X74165000Y-110519854D01*
X76374545Y-110519854D01*
X76773336Y-111485001D01*
X77511115Y-112224069D01*
X78475564Y-112624544D01*
X79519854Y-112625455D01*
X80485001Y-112226664D01*
X81224069Y-111488885D01*
X81435653Y-110979334D01*
X88040588Y-110979334D01*
X88402158Y-111854400D01*
X89071078Y-112524489D01*
X89945512Y-112887586D01*
X90892334Y-112888412D01*
X91767400Y-112526842D01*
X92437489Y-111857922D01*
X92800586Y-110983488D01*
X92800787Y-110752579D01*
X97825786Y-110752579D01*
X98013408Y-111206657D01*
X98360515Y-111554371D01*
X98814266Y-111742785D01*
X99305579Y-111743214D01*
X99759657Y-111555592D01*
X100107371Y-111208485D01*
X100295785Y-110754734D01*
X100295786Y-110752579D01*
X100615786Y-110752579D01*
X100803408Y-111206657D01*
X101150515Y-111554371D01*
X101604266Y-111742785D01*
X102095579Y-111743214D01*
X102549657Y-111555592D01*
X102739877Y-111365704D01*
X103769362Y-111365704D01*
X103842854Y-111568985D01*
X104300497Y-111747737D01*
X104791709Y-111737751D01*
X105199146Y-111568985D01*
X105272638Y-111365704D01*
X104521000Y-110614066D01*
X103769362Y-111365704D01*
X102739877Y-111365704D01*
X102897371Y-111208485D01*
X103085785Y-110754734D01*
X103086192Y-110287497D01*
X103281263Y-110287497D01*
X103291249Y-110778709D01*
X103460015Y-111186146D01*
X103663296Y-111259638D01*
X104414934Y-110508000D01*
X104627066Y-110508000D01*
X105378704Y-111259638D01*
X105581985Y-111186146D01*
X105751333Y-110752579D01*
X106075786Y-110752579D01*
X106263408Y-111206657D01*
X106610515Y-111554371D01*
X107064266Y-111742785D01*
X107555579Y-111743214D01*
X108009657Y-111555592D01*
X108357371Y-111208485D01*
X108452522Y-110979334D01*
X113440588Y-110979334D01*
X113802158Y-111854400D01*
X114471078Y-112524489D01*
X115345512Y-112887586D01*
X116292334Y-112888412D01*
X117167400Y-112526842D01*
X117417703Y-112276975D01*
X125634786Y-112276975D01*
X125822711Y-112731789D01*
X126170381Y-113080066D01*
X126624866Y-113268785D01*
X127116975Y-113269214D01*
X127571789Y-113081289D01*
X127920066Y-112733619D01*
X127972643Y-112607000D01*
X143128000Y-112607000D01*
X143348043Y-112563231D01*
X143534586Y-112438586D01*
X143696197Y-112276975D01*
X173894786Y-112276975D01*
X174082711Y-112731789D01*
X174430381Y-113080066D01*
X174884866Y-113268785D01*
X175376975Y-113269214D01*
X175831789Y-113081289D01*
X176180066Y-112733619D01*
X176368785Y-112279134D01*
X176369214Y-111787025D01*
X176181289Y-111332211D01*
X175833619Y-110983934D01*
X175379134Y-110795215D01*
X174887025Y-110794786D01*
X174432211Y-110982711D01*
X174083934Y-111330381D01*
X173895215Y-111784866D01*
X173894786Y-112276975D01*
X143696197Y-112276975D01*
X145857378Y-110115795D01*
X146155021Y-110175000D01*
X146204979Y-110175000D01*
X146692900Y-110077946D01*
X147106540Y-109801561D01*
X147116534Y-109786603D01*
X153019463Y-109786603D01*
X153097840Y-109994037D01*
X153569958Y-110179463D01*
X154077099Y-110170103D01*
X154502160Y-109994037D01*
X154580537Y-109786603D01*
X154530909Y-109736975D01*
X173894786Y-109736975D01*
X174082711Y-110191789D01*
X174430381Y-110540066D01*
X174884866Y-110728785D01*
X175376975Y-110729214D01*
X175831789Y-110541289D01*
X175853261Y-110519854D01*
X216374545Y-110519854D01*
X216773336Y-111485001D01*
X217511115Y-112224069D01*
X218475564Y-112624544D01*
X219519854Y-112625455D01*
X220485001Y-112226664D01*
X221224069Y-111488885D01*
X221624544Y-110524436D01*
X221625455Y-109480146D01*
X221226664Y-108514999D01*
X220488885Y-107775931D01*
X219524436Y-107375456D01*
X218480146Y-107374545D01*
X217514999Y-107773336D01*
X216775931Y-108511115D01*
X216375456Y-109475564D01*
X216374545Y-110519854D01*
X175853261Y-110519854D01*
X176180066Y-110193619D01*
X176368785Y-109739134D01*
X176369214Y-109247025D01*
X176181289Y-108792211D01*
X175833619Y-108443934D01*
X175379134Y-108255215D01*
X174887025Y-108254786D01*
X174432211Y-108442711D01*
X174083934Y-108790381D01*
X173895215Y-109244866D01*
X173894786Y-109736975D01*
X154530909Y-109736975D01*
X153800000Y-109006066D01*
X153019463Y-109786603D01*
X147116534Y-109786603D01*
X147382925Y-109387921D01*
X147479979Y-108900000D01*
X147434221Y-108669958D01*
X152520537Y-108669958D01*
X152529897Y-109177099D01*
X152705963Y-109602160D01*
X152913397Y-109680537D01*
X153693934Y-108900000D01*
X153906066Y-108900000D01*
X154686603Y-109680537D01*
X154894037Y-109602160D01*
X155079463Y-109130042D01*
X155070103Y-108622901D01*
X154894037Y-108197840D01*
X154686603Y-108119463D01*
X153906066Y-108900000D01*
X153693934Y-108900000D01*
X152913397Y-108119463D01*
X152705963Y-108197840D01*
X152520537Y-108669958D01*
X147434221Y-108669958D01*
X147382925Y-108412079D01*
X147116535Y-108013397D01*
X153019463Y-108013397D01*
X153800000Y-108793934D01*
X154580537Y-108013397D01*
X154502160Y-107805963D01*
X154030042Y-107620537D01*
X153522901Y-107629897D01*
X153097840Y-107805963D01*
X153019463Y-108013397D01*
X147116535Y-108013397D01*
X147106540Y-107998439D01*
X146692900Y-107722054D01*
X146204979Y-107625000D01*
X146155021Y-107625000D01*
X145667100Y-107722054D01*
X145253460Y-107998439D01*
X144977075Y-108412079D01*
X144880021Y-108900000D01*
X144974061Y-109372767D01*
X142889828Y-111457000D01*
X127972851Y-111457000D01*
X127921289Y-111332211D01*
X127573619Y-110983934D01*
X127119134Y-110795215D01*
X126627025Y-110794786D01*
X126172211Y-110982711D01*
X125823934Y-111330381D01*
X125635215Y-111784866D01*
X125634786Y-112276975D01*
X117417703Y-112276975D01*
X117837489Y-111857922D01*
X118200586Y-110983488D01*
X118201412Y-110036666D01*
X118077583Y-109736975D01*
X125634786Y-109736975D01*
X125822711Y-110191789D01*
X126170381Y-110540066D01*
X126624866Y-110728785D01*
X127116975Y-110729214D01*
X127571789Y-110541289D01*
X127920066Y-110193619D01*
X127972643Y-110067000D01*
X141604000Y-110067000D01*
X141824043Y-110023231D01*
X142010586Y-109898586D01*
X144712197Y-107196975D01*
X173894786Y-107196975D01*
X174082711Y-107651789D01*
X174430381Y-108000066D01*
X174884866Y-108188785D01*
X175376975Y-108189214D01*
X175831789Y-108001289D01*
X176180066Y-107653619D01*
X176368785Y-107199134D01*
X176369214Y-106707025D01*
X176181289Y-106252211D01*
X175833619Y-105903934D01*
X175379134Y-105715215D01*
X174887025Y-105714786D01*
X174432211Y-105902711D01*
X174083934Y-106250381D01*
X173895215Y-106704866D01*
X173894786Y-107196975D01*
X144712197Y-107196975D01*
X145803996Y-106105177D01*
X146155021Y-106175000D01*
X146204979Y-106175000D01*
X146692900Y-106077946D01*
X147106540Y-105801561D01*
X147116534Y-105786603D01*
X153019463Y-105786603D01*
X153097840Y-105994037D01*
X153569958Y-106179463D01*
X154077099Y-106170103D01*
X154502160Y-105994037D01*
X154580537Y-105786603D01*
X153800000Y-105006066D01*
X153019463Y-105786603D01*
X147116534Y-105786603D01*
X147382925Y-105387921D01*
X147479979Y-104900000D01*
X147434221Y-104669958D01*
X152520537Y-104669958D01*
X152529897Y-105177099D01*
X152705963Y-105602160D01*
X152913397Y-105680537D01*
X153693934Y-104900000D01*
X153906066Y-104900000D01*
X154686603Y-105680537D01*
X154894037Y-105602160D01*
X155079463Y-105130042D01*
X155070103Y-104622901D01*
X155054522Y-104585285D01*
X166128849Y-104585285D01*
X166261779Y-104907000D01*
X166507705Y-105153356D01*
X166829188Y-105286848D01*
X167177285Y-105287151D01*
X167499000Y-105154221D01*
X167666513Y-104987000D01*
X174031149Y-104987000D01*
X174082711Y-105111789D01*
X174430381Y-105460066D01*
X174884866Y-105648785D01*
X175376975Y-105649214D01*
X175831789Y-105461289D01*
X176180066Y-105113619D01*
X176368785Y-104659134D01*
X176369214Y-104167025D01*
X176181289Y-103712211D01*
X175833619Y-103363934D01*
X175379134Y-103175215D01*
X174887025Y-103174786D01*
X174432211Y-103362711D01*
X174083934Y-103710381D01*
X174031357Y-103837000D01*
X167666361Y-103837000D01*
X167500295Y-103670644D01*
X167178812Y-103537152D01*
X166830715Y-103536849D01*
X166509000Y-103669779D01*
X166262644Y-103915705D01*
X166129152Y-104237188D01*
X166128849Y-104585285D01*
X155054522Y-104585285D01*
X154894037Y-104197840D01*
X154686603Y-104119463D01*
X153906066Y-104900000D01*
X153693934Y-104900000D01*
X152913397Y-104119463D01*
X152705963Y-104197840D01*
X152520537Y-104669958D01*
X147434221Y-104669958D01*
X147382925Y-104412079D01*
X147116535Y-104013397D01*
X153019463Y-104013397D01*
X153800000Y-104793934D01*
X154580537Y-104013397D01*
X154502160Y-103805963D01*
X154030042Y-103620537D01*
X153522901Y-103629897D01*
X153097840Y-103805963D01*
X153019463Y-104013397D01*
X147116535Y-104013397D01*
X147106540Y-103998439D01*
X146692900Y-103722054D01*
X146204979Y-103625000D01*
X146155021Y-103625000D01*
X145667100Y-103722054D01*
X145253460Y-103998439D01*
X144977075Y-104412079D01*
X144880021Y-104900000D01*
X144963442Y-105319385D01*
X141365828Y-108917000D01*
X127972851Y-108917000D01*
X127921289Y-108792211D01*
X127573619Y-108443934D01*
X127119134Y-108255215D01*
X126627025Y-108254786D01*
X126172211Y-108442711D01*
X125823934Y-108790381D01*
X125635215Y-109244866D01*
X125634786Y-109736975D01*
X118077583Y-109736975D01*
X117839842Y-109161600D01*
X117170922Y-108491511D01*
X116296488Y-108128414D01*
X115349666Y-108127588D01*
X114474600Y-108489158D01*
X113804511Y-109158078D01*
X113441414Y-110032512D01*
X113440588Y-110979334D01*
X108452522Y-110979334D01*
X108545785Y-110754734D01*
X108546214Y-110263421D01*
X108358592Y-109809343D01*
X108011485Y-109461629D01*
X107557734Y-109273215D01*
X107066421Y-109272786D01*
X106612343Y-109460408D01*
X106264629Y-109807515D01*
X106076215Y-110261266D01*
X106075786Y-110752579D01*
X105751333Y-110752579D01*
X105760737Y-110728503D01*
X105750751Y-110237291D01*
X105581985Y-109829854D01*
X105378704Y-109756362D01*
X104627066Y-110508000D01*
X104414934Y-110508000D01*
X103663296Y-109756362D01*
X103460015Y-109829854D01*
X103281263Y-110287497D01*
X103086192Y-110287497D01*
X103086214Y-110263421D01*
X102898592Y-109809343D01*
X102739823Y-109650296D01*
X103769362Y-109650296D01*
X104521000Y-110401934D01*
X105272638Y-109650296D01*
X105199146Y-109447015D01*
X104741503Y-109268263D01*
X104250291Y-109278249D01*
X103842854Y-109447015D01*
X103769362Y-109650296D01*
X102739823Y-109650296D01*
X102551485Y-109461629D01*
X102097734Y-109273215D01*
X101606421Y-109272786D01*
X101152343Y-109460408D01*
X100804629Y-109807515D01*
X100616215Y-110261266D01*
X100615786Y-110752579D01*
X100295786Y-110752579D01*
X100296214Y-110263421D01*
X100108592Y-109809343D01*
X99761485Y-109461629D01*
X99307734Y-109273215D01*
X98816421Y-109272786D01*
X98362343Y-109460408D01*
X98014629Y-109807515D01*
X97826215Y-110261266D01*
X97825786Y-110752579D01*
X92800787Y-110752579D01*
X92801412Y-110036666D01*
X92439842Y-109161600D01*
X91770922Y-108491511D01*
X91099180Y-108212579D01*
X96425786Y-108212579D01*
X96613408Y-108666657D01*
X96960515Y-109014371D01*
X97414266Y-109202785D01*
X97905579Y-109203214D01*
X98359657Y-109015592D01*
X98707371Y-108668485D01*
X98895785Y-108214734D01*
X98895786Y-108212579D01*
X99215786Y-108212579D01*
X99403408Y-108666657D01*
X99750515Y-109014371D01*
X100204266Y-109202785D01*
X100695579Y-109203214D01*
X101149657Y-109015592D01*
X101497371Y-108668485D01*
X101685785Y-108214734D01*
X101685786Y-108212579D01*
X102015786Y-108212579D01*
X102203408Y-108666657D01*
X102550515Y-109014371D01*
X103004266Y-109202785D01*
X103495579Y-109203214D01*
X103949657Y-109015592D01*
X104297371Y-108668485D01*
X104485785Y-108214734D01*
X104485786Y-108212579D01*
X104685786Y-108212579D01*
X104873408Y-108666657D01*
X105220515Y-109014371D01*
X105674266Y-109202785D01*
X106165579Y-109203214D01*
X106619657Y-109015592D01*
X106967371Y-108668485D01*
X107155785Y-108214734D01*
X107155831Y-108161750D01*
X107476000Y-108161750D01*
X107476000Y-108822484D01*
X107548315Y-108997066D01*
X107681934Y-109130686D01*
X107856517Y-109203000D01*
X108517250Y-109203000D01*
X108636000Y-109084250D01*
X108636000Y-108043000D01*
X108786000Y-108043000D01*
X108786000Y-109084250D01*
X108904750Y-109203000D01*
X109565483Y-109203000D01*
X109740066Y-109130686D01*
X109873685Y-108997066D01*
X109946000Y-108822484D01*
X109946000Y-108161750D01*
X109827250Y-108043000D01*
X108786000Y-108043000D01*
X108636000Y-108043000D01*
X107594750Y-108043000D01*
X107476000Y-108161750D01*
X107155831Y-108161750D01*
X107156214Y-107723421D01*
X106968592Y-107269343D01*
X106813038Y-107113516D01*
X107476000Y-107113516D01*
X107476000Y-107774250D01*
X107594750Y-107893000D01*
X108636000Y-107893000D01*
X108636000Y-106851750D01*
X108786000Y-106851750D01*
X108786000Y-107893000D01*
X109827250Y-107893000D01*
X109946000Y-107774250D01*
X109946000Y-107113516D01*
X109873685Y-106938934D01*
X109740066Y-106805314D01*
X109565483Y-106733000D01*
X108904750Y-106733000D01*
X108786000Y-106851750D01*
X108636000Y-106851750D01*
X108517250Y-106733000D01*
X107856517Y-106733000D01*
X107681934Y-106805314D01*
X107548315Y-106938934D01*
X107476000Y-107113516D01*
X106813038Y-107113516D01*
X106621485Y-106921629D01*
X106167734Y-106733215D01*
X105676421Y-106732786D01*
X105222343Y-106920408D01*
X104874629Y-107267515D01*
X104686215Y-107721266D01*
X104685786Y-108212579D01*
X104485786Y-108212579D01*
X104486214Y-107723421D01*
X104298592Y-107269343D01*
X103951485Y-106921629D01*
X103497734Y-106733215D01*
X103006421Y-106732786D01*
X102552343Y-106920408D01*
X102204629Y-107267515D01*
X102016215Y-107721266D01*
X102015786Y-108212579D01*
X101685786Y-108212579D01*
X101686214Y-107723421D01*
X101498592Y-107269343D01*
X101151485Y-106921629D01*
X100697734Y-106733215D01*
X100206421Y-106732786D01*
X99752343Y-106920408D01*
X99404629Y-107267515D01*
X99216215Y-107721266D01*
X99215786Y-108212579D01*
X98895786Y-108212579D01*
X98896214Y-107723421D01*
X98708592Y-107269343D01*
X98361485Y-106921629D01*
X97907734Y-106733215D01*
X97416421Y-106732786D01*
X96962343Y-106920408D01*
X96614629Y-107267515D01*
X96426215Y-107721266D01*
X96425786Y-108212579D01*
X91099180Y-108212579D01*
X90896488Y-108128414D01*
X89949666Y-108127588D01*
X89074600Y-108489158D01*
X88404511Y-109158078D01*
X88041414Y-110032512D01*
X88040588Y-110979334D01*
X81435653Y-110979334D01*
X81624544Y-110524436D01*
X81625455Y-109480146D01*
X81226664Y-108514999D01*
X80488885Y-107775931D01*
X79524436Y-107375456D01*
X78480146Y-107374545D01*
X77514999Y-107773336D01*
X76775931Y-108511115D01*
X76375456Y-109475564D01*
X76374545Y-110519854D01*
X74165000Y-110519854D01*
X74165000Y-105425603D01*
X103866463Y-105425603D01*
X103944840Y-105633037D01*
X104416958Y-105818463D01*
X104924099Y-105809103D01*
X105349160Y-105633037D01*
X105427537Y-105425603D01*
X104647000Y-104645066D01*
X103866463Y-105425603D01*
X74165000Y-105425603D01*
X74165000Y-104308958D01*
X103367537Y-104308958D01*
X103376897Y-104816099D01*
X103552963Y-105241160D01*
X103760397Y-105319537D01*
X104540934Y-104539000D01*
X104753066Y-104539000D01*
X105533603Y-105319537D01*
X105741037Y-105241160D01*
X105917642Y-104791501D01*
X108371779Y-104791501D01*
X108565477Y-105260286D01*
X108923827Y-105619262D01*
X109392274Y-105813778D01*
X109899501Y-105814221D01*
X110368286Y-105620523D01*
X110727262Y-105262173D01*
X110921778Y-104793726D01*
X110922221Y-104286499D01*
X110728523Y-103817714D01*
X110370173Y-103458738D01*
X109901726Y-103264222D01*
X109394499Y-103263779D01*
X108925714Y-103457477D01*
X108566738Y-103815827D01*
X108372222Y-104284274D01*
X108371779Y-104791501D01*
X105917642Y-104791501D01*
X105926463Y-104769042D01*
X105917103Y-104261901D01*
X105741037Y-103836840D01*
X105533603Y-103758463D01*
X104753066Y-104539000D01*
X104540934Y-104539000D01*
X103760397Y-103758463D01*
X103552963Y-103836840D01*
X103367537Y-104308958D01*
X74165000Y-104308958D01*
X74165000Y-103652397D01*
X103866463Y-103652397D01*
X104647000Y-104432934D01*
X105427537Y-103652397D01*
X105349160Y-103444963D01*
X104877042Y-103259537D01*
X104369901Y-103268897D01*
X103944840Y-103444963D01*
X103866463Y-103652397D01*
X74165000Y-103652397D01*
X74165000Y-99632285D01*
X87388849Y-99632285D01*
X87521779Y-99954000D01*
X87767705Y-100200356D01*
X88089188Y-100333848D01*
X88437285Y-100334151D01*
X88759000Y-100201221D01*
X88926513Y-100034000D01*
X101310474Y-100034000D01*
X101238644Y-100105705D01*
X101105152Y-100427188D01*
X101104849Y-100775285D01*
X101237779Y-101097000D01*
X101483705Y-101343356D01*
X101677916Y-101424000D01*
X91339361Y-101424000D01*
X91173295Y-101257644D01*
X90851812Y-101124152D01*
X90503715Y-101123849D01*
X90182000Y-101256779D01*
X89935644Y-101502705D01*
X89802152Y-101824188D01*
X89801849Y-102172285D01*
X89934779Y-102494000D01*
X90180705Y-102740356D01*
X90502188Y-102873848D01*
X90850285Y-102874151D01*
X91172000Y-102741221D01*
X91339513Y-102574000D01*
X121680828Y-102574000D01*
X123925413Y-104818586D01*
X124057734Y-104907000D01*
X124111957Y-104943231D01*
X124332000Y-104987000D01*
X125771149Y-104987000D01*
X125822711Y-105111789D01*
X126170381Y-105460066D01*
X126624866Y-105648785D01*
X127116975Y-105649214D01*
X127571789Y-105461289D01*
X127920066Y-105113619D01*
X128108785Y-104659134D01*
X128109214Y-104167025D01*
X127921289Y-103712211D01*
X127573619Y-103363934D01*
X127119134Y-103175215D01*
X126627025Y-103174786D01*
X126172211Y-103362711D01*
X125823934Y-103710381D01*
X125771357Y-103837000D01*
X124570173Y-103837000D01*
X122325586Y-101592414D01*
X122139043Y-101467769D01*
X121919000Y-101424000D01*
X102281920Y-101424000D01*
X102475000Y-101344221D01*
X102642513Y-101177000D01*
X122188828Y-101177000D01*
X123290413Y-102278586D01*
X123476957Y-102403231D01*
X123697000Y-102447000D01*
X125771149Y-102447000D01*
X125822711Y-102571789D01*
X126170381Y-102920066D01*
X126624866Y-103108785D01*
X127116975Y-103109214D01*
X127571789Y-102921289D01*
X127920066Y-102573619D01*
X128108785Y-102119134D01*
X128109214Y-101627025D01*
X127923268Y-101177000D01*
X133222000Y-101177000D01*
X133442043Y-101133231D01*
X133628586Y-101008586D01*
X134730173Y-99907000D01*
X145390308Y-99907000D01*
X145253460Y-99998439D01*
X144977075Y-100412079D01*
X144880021Y-100900000D01*
X144960788Y-101306039D01*
X139889828Y-106377000D01*
X127972851Y-106377000D01*
X127921289Y-106252211D01*
X127573619Y-105903934D01*
X127119134Y-105715215D01*
X126627025Y-105714786D01*
X126172211Y-105902711D01*
X125823934Y-106250381D01*
X125635215Y-106704866D01*
X125634786Y-107196975D01*
X125822711Y-107651789D01*
X126170381Y-108000066D01*
X126624866Y-108188785D01*
X127116975Y-108189214D01*
X127571789Y-108001289D01*
X127920066Y-107653619D01*
X127972643Y-107527000D01*
X140128000Y-107527000D01*
X140348043Y-107483231D01*
X140534586Y-107358586D01*
X145790651Y-102102522D01*
X146155021Y-102175000D01*
X146204979Y-102175000D01*
X146692900Y-102077946D01*
X147106540Y-101801561D01*
X147116534Y-101786603D01*
X153019463Y-101786603D01*
X153097840Y-101994037D01*
X153569958Y-102179463D01*
X154077099Y-102170103D01*
X154502160Y-101994037D01*
X154580537Y-101786603D01*
X153800000Y-101006066D01*
X153019463Y-101786603D01*
X147116534Y-101786603D01*
X147382925Y-101387921D01*
X147479979Y-100900000D01*
X147434221Y-100669958D01*
X152520537Y-100669958D01*
X152529897Y-101177099D01*
X152705963Y-101602160D01*
X152913397Y-101680537D01*
X153693934Y-100900000D01*
X153906066Y-100900000D01*
X154686603Y-101680537D01*
X154894037Y-101602160D01*
X155079463Y-101130042D01*
X155070103Y-100622901D01*
X154894037Y-100197840D01*
X154686603Y-100119463D01*
X153906066Y-100900000D01*
X153693934Y-100900000D01*
X152913397Y-100119463D01*
X152705963Y-100197840D01*
X152520537Y-100669958D01*
X147434221Y-100669958D01*
X147382925Y-100412079D01*
X147106540Y-99998439D01*
X146969692Y-99907000D01*
X153059664Y-99907000D01*
X153019463Y-100013397D01*
X153800000Y-100793934D01*
X154580537Y-100013397D01*
X154540336Y-99907000D01*
X155843828Y-99907000D01*
X158215413Y-102278586D01*
X158401957Y-102403231D01*
X158622000Y-102447000D01*
X174031149Y-102447000D01*
X174082711Y-102571789D01*
X174430381Y-102920066D01*
X174884866Y-103108785D01*
X175376975Y-103109214D01*
X175831789Y-102921289D01*
X176180066Y-102573619D01*
X176368785Y-102119134D01*
X176369214Y-101627025D01*
X176181289Y-101172211D01*
X175833619Y-100823934D01*
X175379134Y-100635215D01*
X174887025Y-100634786D01*
X174432211Y-100822711D01*
X174083934Y-101170381D01*
X174031357Y-101297000D01*
X158860173Y-101297000D01*
X156488586Y-98925414D01*
X156302043Y-98800769D01*
X156082000Y-98757000D01*
X134492000Y-98757000D01*
X134271957Y-98800769D01*
X134085413Y-98925414D01*
X132983828Y-100027000D01*
X127922814Y-100027000D01*
X128108785Y-99579134D01*
X128109214Y-99087025D01*
X127923268Y-98637000D01*
X164225828Y-98637000D01*
X165327413Y-99738586D01*
X165428250Y-99805963D01*
X165513957Y-99863231D01*
X165734000Y-99907000D01*
X174031149Y-99907000D01*
X174082711Y-100031789D01*
X174430381Y-100380066D01*
X174884866Y-100568785D01*
X175376975Y-100569214D01*
X175831789Y-100381289D01*
X176180066Y-100033619D01*
X176368785Y-99579134D01*
X176369214Y-99087025D01*
X176181289Y-98632211D01*
X175833619Y-98283934D01*
X175379134Y-98095215D01*
X174887025Y-98094786D01*
X174432211Y-98282711D01*
X174083934Y-98630381D01*
X174031357Y-98757000D01*
X165972173Y-98757000D01*
X164870586Y-97655414D01*
X164684043Y-97530769D01*
X164675255Y-97529021D01*
X164464000Y-97487000D01*
X127922814Y-97487000D01*
X127972643Y-97367000D01*
X185573228Y-97367000D01*
X185541000Y-97529021D01*
X185541000Y-97578979D01*
X185638054Y-98066900D01*
X185914439Y-98480540D01*
X186328079Y-98756925D01*
X186816000Y-98853979D01*
X187222040Y-98773212D01*
X188314414Y-99865587D01*
X188500957Y-99990231D01*
X188721000Y-100034000D01*
X214093639Y-100034000D01*
X214259705Y-100200356D01*
X214581188Y-100333848D01*
X214929285Y-100334151D01*
X215251000Y-100201221D01*
X215497356Y-99955295D01*
X215630848Y-99633812D01*
X215631151Y-99285715D01*
X215498221Y-98964000D01*
X215252295Y-98717644D01*
X214930812Y-98584152D01*
X214582715Y-98583849D01*
X214261000Y-98716779D01*
X214093487Y-98884000D01*
X188959173Y-98884000D01*
X188018522Y-97943349D01*
X188091000Y-97578979D01*
X188091000Y-97529021D01*
X187993946Y-97041100D01*
X187717561Y-96627460D01*
X187303921Y-96351075D01*
X187303544Y-96351000D01*
X191321000Y-96351000D01*
X191321000Y-96409259D01*
X190994439Y-96627460D01*
X190718054Y-97041100D01*
X190621000Y-97529021D01*
X190621000Y-97578979D01*
X190718054Y-98066900D01*
X190994439Y-98480540D01*
X191408079Y-98756925D01*
X191896000Y-98853979D01*
X192383921Y-98756925D01*
X192797561Y-98480540D01*
X193073946Y-98066900D01*
X193171000Y-97578979D01*
X193171000Y-97529021D01*
X193073946Y-97041100D01*
X192797561Y-96627460D01*
X192471000Y-96409259D01*
X192471000Y-96351000D01*
X213204639Y-96351000D01*
X213370705Y-96517356D01*
X213692188Y-96650848D01*
X214040285Y-96651151D01*
X214362000Y-96518221D01*
X214608356Y-96272295D01*
X214741848Y-95950812D01*
X214742151Y-95602715D01*
X214649109Y-95377534D01*
X217336588Y-95377534D01*
X217698158Y-96252600D01*
X218367078Y-96922689D01*
X219241512Y-97285786D01*
X220188334Y-97286612D01*
X221063400Y-96925042D01*
X221733489Y-96256122D01*
X222096586Y-95381688D01*
X222097412Y-94434866D01*
X221735842Y-93559800D01*
X221066922Y-92889711D01*
X220192488Y-92526614D01*
X219245666Y-92525788D01*
X218370600Y-92887358D01*
X217700511Y-93556278D01*
X217337414Y-94430712D01*
X217336588Y-95377534D01*
X214649109Y-95377534D01*
X214609221Y-95281000D01*
X214363295Y-95034644D01*
X214041812Y-94901152D01*
X213693715Y-94900849D01*
X213372000Y-95033779D01*
X213204487Y-95201000D01*
X175932253Y-95201000D01*
X176180066Y-94953619D01*
X176368785Y-94499134D01*
X176369214Y-94007025D01*
X176181289Y-93552211D01*
X175833619Y-93203934D01*
X175379134Y-93015215D01*
X174887025Y-93014786D01*
X174432211Y-93202711D01*
X174083934Y-93550381D01*
X173895215Y-94004866D01*
X173894786Y-94496975D01*
X174082711Y-94951789D01*
X174331488Y-95201000D01*
X171814173Y-95201000D01*
X170458586Y-93845414D01*
X170272043Y-93720769D01*
X170052000Y-93677000D01*
X127972851Y-93677000D01*
X127921289Y-93552211D01*
X127573619Y-93203934D01*
X127119134Y-93015215D01*
X126627025Y-93014786D01*
X126172211Y-93202711D01*
X125823934Y-93550381D01*
X125771357Y-93677000D01*
X107468361Y-93677000D01*
X107302295Y-93510644D01*
X106980812Y-93377152D01*
X106632715Y-93376849D01*
X106311000Y-93509779D01*
X106064644Y-93755705D01*
X105931152Y-94077188D01*
X105930849Y-94425285D01*
X106063779Y-94747000D01*
X106309705Y-94993356D01*
X106631188Y-95126848D01*
X106979285Y-95127151D01*
X107301000Y-94994221D01*
X107468513Y-94827000D01*
X125771149Y-94827000D01*
X125822711Y-94951789D01*
X126170381Y-95300066D01*
X126624866Y-95488785D01*
X127116975Y-95489214D01*
X127571789Y-95301289D01*
X127920066Y-94953619D01*
X127972643Y-94827000D01*
X169813828Y-94827000D01*
X171169413Y-96182586D01*
X171220917Y-96217000D01*
X127972851Y-96217000D01*
X127921289Y-96092211D01*
X127573619Y-95743934D01*
X127119134Y-95555215D01*
X126627025Y-95554786D01*
X126500314Y-95607142D01*
X126389586Y-95496414D01*
X126203043Y-95371769D01*
X125983000Y-95328000D01*
X100313173Y-95328000D01*
X100060946Y-95075774D01*
X100061151Y-94840715D01*
X99928221Y-94519000D01*
X99682295Y-94272644D01*
X99360812Y-94139152D01*
X99012715Y-94138849D01*
X98691000Y-94271779D01*
X98444644Y-94517705D01*
X98311152Y-94839188D01*
X98310849Y-95187285D01*
X98443779Y-95509000D01*
X98689705Y-95755356D01*
X99011188Y-95888848D01*
X99247882Y-95889054D01*
X99668414Y-96309587D01*
X99830359Y-96417795D01*
X99854957Y-96434231D01*
X100075000Y-96478000D01*
X102580474Y-96478000D01*
X102508644Y-96549705D01*
X102375152Y-96871188D01*
X102374849Y-97219285D01*
X102507779Y-97541000D01*
X102753705Y-97787356D01*
X102947916Y-97868000D01*
X98324361Y-97868000D01*
X98158295Y-97701644D01*
X97836812Y-97568152D01*
X97488715Y-97567849D01*
X97167000Y-97700779D01*
X96920644Y-97946705D01*
X96787152Y-98268188D01*
X96786849Y-98616285D01*
X96897467Y-98884000D01*
X88926361Y-98884000D01*
X88760295Y-98717644D01*
X88438812Y-98584152D01*
X88090715Y-98583849D01*
X87769000Y-98716779D01*
X87522644Y-98962705D01*
X87389152Y-99284188D01*
X87388849Y-99632285D01*
X74165000Y-99632285D01*
X74165000Y-95061334D01*
X76105588Y-95061334D01*
X76467158Y-95936400D01*
X77136078Y-96606489D01*
X78010512Y-96969586D01*
X78957334Y-96970412D01*
X79832400Y-96608842D01*
X80502489Y-95939922D01*
X80865586Y-95065488D01*
X80866412Y-94118666D01*
X80504842Y-93243600D01*
X79908785Y-92646501D01*
X83178779Y-92646501D01*
X83372477Y-93115286D01*
X83730827Y-93474262D01*
X84199274Y-93668778D01*
X84706501Y-93669221D01*
X85175286Y-93475523D01*
X85534262Y-93117173D01*
X85728778Y-92648726D01*
X85729221Y-92141499D01*
X85652978Y-91956975D01*
X173894786Y-91956975D01*
X174082711Y-92411789D01*
X174430381Y-92760066D01*
X174884866Y-92948785D01*
X175376975Y-92949214D01*
X175831789Y-92761289D01*
X176180066Y-92413619D01*
X176368785Y-91959134D01*
X176368850Y-91884501D01*
X179063779Y-91884501D01*
X179257477Y-92353286D01*
X179615827Y-92712262D01*
X180084274Y-92906778D01*
X180591501Y-92907221D01*
X181060286Y-92713523D01*
X181419262Y-92355173D01*
X181613778Y-91886726D01*
X181614221Y-91379499D01*
X181420523Y-90910714D01*
X181330570Y-90820603D01*
X186035463Y-90820603D01*
X186113840Y-91028037D01*
X186585958Y-91213463D01*
X187093099Y-91204103D01*
X187518160Y-91028037D01*
X187596537Y-90820603D01*
X191115463Y-90820603D01*
X191193840Y-91028037D01*
X191665958Y-91213463D01*
X192173099Y-91204103D01*
X192334653Y-91137185D01*
X197841000Y-91137185D01*
X197841000Y-91202815D01*
X197968502Y-91843810D01*
X198331596Y-92387219D01*
X198875005Y-92750313D01*
X199516000Y-92877815D01*
X200156995Y-92750313D01*
X200700404Y-92387219D01*
X201063498Y-91843810D01*
X201191000Y-91202815D01*
X201191000Y-91137185D01*
X201063498Y-90496190D01*
X200700404Y-89952781D01*
X200156995Y-89589687D01*
X199516000Y-89462185D01*
X198875005Y-89589687D01*
X198331596Y-89952781D01*
X197968502Y-90496190D01*
X197841000Y-91137185D01*
X192334653Y-91137185D01*
X192598160Y-91028037D01*
X192676537Y-90820603D01*
X191896000Y-90040066D01*
X191115463Y-90820603D01*
X187596537Y-90820603D01*
X186816000Y-90040066D01*
X186035463Y-90820603D01*
X181330570Y-90820603D01*
X181062173Y-90551738D01*
X180593726Y-90357222D01*
X180086499Y-90356779D01*
X179617714Y-90550477D01*
X179258738Y-90908827D01*
X179064222Y-91377274D01*
X179063779Y-91884501D01*
X176368850Y-91884501D01*
X176369214Y-91467025D01*
X176181289Y-91012211D01*
X175833619Y-90663934D01*
X175379134Y-90475215D01*
X174887025Y-90474786D01*
X174432211Y-90662711D01*
X174083934Y-91010381D01*
X173895215Y-91464866D01*
X173894786Y-91956975D01*
X85652978Y-91956975D01*
X85535523Y-91672714D01*
X85177173Y-91313738D01*
X84708726Y-91119222D01*
X84201499Y-91118779D01*
X83732714Y-91312477D01*
X83373738Y-91670827D01*
X83179222Y-92139274D01*
X83178779Y-92646501D01*
X79908785Y-92646501D01*
X79835922Y-92573511D01*
X78961488Y-92210414D01*
X78014666Y-92209588D01*
X77139600Y-92571158D01*
X76469511Y-93240078D01*
X76106414Y-94114512D01*
X76105588Y-95061334D01*
X74165000Y-95061334D01*
X74165000Y-87673750D01*
X79791000Y-87673750D01*
X79791000Y-88334483D01*
X79863314Y-88509066D01*
X79996934Y-88642685D01*
X80171516Y-88715000D01*
X80832250Y-88715000D01*
X80951000Y-88596250D01*
X80951000Y-87555000D01*
X81101000Y-87555000D01*
X81101000Y-88596250D01*
X81219750Y-88715000D01*
X81880484Y-88715000D01*
X82055066Y-88642685D01*
X82188686Y-88509066D01*
X82261000Y-88334483D01*
X82261000Y-88280603D01*
X83673463Y-88280603D01*
X83751840Y-88488037D01*
X84223958Y-88673463D01*
X84731099Y-88664103D01*
X85156160Y-88488037D01*
X85234537Y-88280603D01*
X84454000Y-87500066D01*
X83673463Y-88280603D01*
X82261000Y-88280603D01*
X82261000Y-87673750D01*
X82142250Y-87555000D01*
X81101000Y-87555000D01*
X80951000Y-87555000D01*
X79909750Y-87555000D01*
X79791000Y-87673750D01*
X74165000Y-87673750D01*
X74165000Y-86324579D01*
X77250786Y-86324579D01*
X77438408Y-86778657D01*
X77785515Y-87126371D01*
X78239266Y-87314785D01*
X78730579Y-87315214D01*
X79184657Y-87127592D01*
X79532371Y-86780485D01*
X79596719Y-86625517D01*
X79791000Y-86625517D01*
X79791000Y-87286250D01*
X79909750Y-87405000D01*
X80951000Y-87405000D01*
X80951000Y-86363750D01*
X81101000Y-86363750D01*
X81101000Y-87405000D01*
X82142250Y-87405000D01*
X82261000Y-87286250D01*
X82261000Y-87163958D01*
X83174537Y-87163958D01*
X83183897Y-87671099D01*
X83359963Y-88096160D01*
X83567397Y-88174537D01*
X84347934Y-87394000D01*
X84560066Y-87394000D01*
X85340603Y-88174537D01*
X85548037Y-88096160D01*
X85733463Y-87624042D01*
X85724103Y-87116901D01*
X85548037Y-86691840D01*
X85340603Y-86613463D01*
X84560066Y-87394000D01*
X84347934Y-87394000D01*
X83567397Y-86613463D01*
X83359963Y-86691840D01*
X83174537Y-87163958D01*
X82261000Y-87163958D01*
X82261000Y-86625517D01*
X82212074Y-86507397D01*
X83673463Y-86507397D01*
X84454000Y-87287934D01*
X85234537Y-86507397D01*
X85156160Y-86299963D01*
X84684042Y-86114537D01*
X84176901Y-86123897D01*
X83751840Y-86299963D01*
X83673463Y-86507397D01*
X82212074Y-86507397D01*
X82188686Y-86450934D01*
X82055066Y-86317315D01*
X81880484Y-86245000D01*
X81219750Y-86245000D01*
X81101000Y-86363750D01*
X80951000Y-86363750D01*
X80832250Y-86245000D01*
X80171516Y-86245000D01*
X79996934Y-86317315D01*
X79863314Y-86450934D01*
X79791000Y-86625517D01*
X79596719Y-86625517D01*
X79720785Y-86326734D01*
X79721214Y-85835421D01*
X79533592Y-85381343D01*
X79186485Y-85033629D01*
X78947947Y-84934579D01*
X79790786Y-84934579D01*
X79978408Y-85388657D01*
X80325515Y-85736371D01*
X80779266Y-85924785D01*
X81270579Y-85925214D01*
X81724657Y-85737592D01*
X82072371Y-85390485D01*
X82161848Y-85175000D01*
X85739828Y-85175000D01*
X91159413Y-90594586D01*
X91338932Y-90714537D01*
X91345957Y-90719231D01*
X91566000Y-90763000D01*
X125771149Y-90763000D01*
X125822711Y-90887789D01*
X126170381Y-91236066D01*
X126624866Y-91424785D01*
X127116975Y-91425214D01*
X127571789Y-91237289D01*
X127920066Y-90889619D01*
X128108785Y-90435134D01*
X128109214Y-89943025D01*
X127921289Y-89488211D01*
X127850178Y-89416975D01*
X173894786Y-89416975D01*
X174082711Y-89871789D01*
X174430381Y-90220066D01*
X174884866Y-90408785D01*
X175376975Y-90409214D01*
X175831789Y-90221289D01*
X176180066Y-89873619D01*
X176250515Y-89703958D01*
X185536537Y-89703958D01*
X185545897Y-90211099D01*
X185721963Y-90636160D01*
X185929397Y-90714537D01*
X186709934Y-89934000D01*
X186922066Y-89934000D01*
X187702603Y-90714537D01*
X187910037Y-90636160D01*
X188095463Y-90164042D01*
X188086972Y-89703958D01*
X190616537Y-89703958D01*
X190625897Y-90211099D01*
X190801963Y-90636160D01*
X191009397Y-90714537D01*
X191789934Y-89934000D01*
X192002066Y-89934000D01*
X192782603Y-90714537D01*
X192990037Y-90636160D01*
X193175463Y-90164042D01*
X193166103Y-89656901D01*
X192990037Y-89231840D01*
X192782603Y-89153463D01*
X192002066Y-89934000D01*
X191789934Y-89934000D01*
X191009397Y-89153463D01*
X190801963Y-89231840D01*
X190616537Y-89703958D01*
X188086972Y-89703958D01*
X188086103Y-89656901D01*
X187910037Y-89231840D01*
X187702603Y-89153463D01*
X186922066Y-89934000D01*
X186709934Y-89934000D01*
X185929397Y-89153463D01*
X185721963Y-89231840D01*
X185536537Y-89703958D01*
X176250515Y-89703958D01*
X176368785Y-89419134D01*
X176369109Y-89047397D01*
X186035463Y-89047397D01*
X186816000Y-89827934D01*
X187596537Y-89047397D01*
X191115463Y-89047397D01*
X191896000Y-89827934D01*
X192676537Y-89047397D01*
X192598160Y-88839963D01*
X192126042Y-88654537D01*
X191618901Y-88663897D01*
X191193840Y-88839963D01*
X191115463Y-89047397D01*
X187596537Y-89047397D01*
X187518160Y-88839963D01*
X187046042Y-88654537D01*
X186538901Y-88663897D01*
X186113840Y-88839963D01*
X186035463Y-89047397D01*
X176369109Y-89047397D01*
X176369214Y-88927025D01*
X176181289Y-88472211D01*
X175833619Y-88123934D01*
X175379134Y-87935215D01*
X174887025Y-87934786D01*
X174432211Y-88122711D01*
X174083934Y-88470381D01*
X173895215Y-88924866D01*
X173894786Y-89416975D01*
X127850178Y-89416975D01*
X127573619Y-89139934D01*
X127119134Y-88951215D01*
X126627025Y-88950786D01*
X126172211Y-89138711D01*
X125823934Y-89486381D01*
X125771357Y-89613000D01*
X91804173Y-89613000D01*
X86384586Y-84193414D01*
X86198043Y-84068769D01*
X85978000Y-84025000D01*
X82087499Y-84025000D01*
X82073592Y-83991343D01*
X81726485Y-83643629D01*
X81272734Y-83455215D01*
X80781421Y-83454786D01*
X80327343Y-83642408D01*
X79979629Y-83989515D01*
X79791215Y-84443266D01*
X79790786Y-84934579D01*
X78947947Y-84934579D01*
X78732734Y-84845215D01*
X78241421Y-84844786D01*
X77787343Y-85032408D01*
X77439629Y-85379515D01*
X77251215Y-85833266D01*
X77250786Y-86324579D01*
X74165000Y-86324579D01*
X74165000Y-83534579D01*
X77250786Y-83534579D01*
X77438408Y-83988657D01*
X77785515Y-84336371D01*
X78239266Y-84524785D01*
X78730579Y-84525214D01*
X79184657Y-84337592D01*
X79532371Y-83990485D01*
X79720785Y-83536734D01*
X79721214Y-83045421D01*
X79533592Y-82591343D01*
X79186485Y-82243629D01*
X78732734Y-82055215D01*
X78241421Y-82054786D01*
X77787343Y-82242408D01*
X77439629Y-82589515D01*
X77251215Y-83043266D01*
X77250786Y-83534579D01*
X74165000Y-83534579D01*
X74165000Y-80864579D01*
X77250786Y-80864579D01*
X77438408Y-81318657D01*
X77785515Y-81666371D01*
X78239266Y-81854785D01*
X78730579Y-81855214D01*
X79184657Y-81667592D01*
X79532371Y-81320485D01*
X79584477Y-81195000D01*
X80104362Y-81195000D01*
X79979629Y-81319515D01*
X79791215Y-81773266D01*
X79790786Y-82264579D01*
X79978408Y-82718657D01*
X80325515Y-83066371D01*
X80779266Y-83254785D01*
X81270579Y-83255214D01*
X81724657Y-83067592D01*
X82072371Y-82720485D01*
X82124477Y-82595000D01*
X86207828Y-82595000D01*
X91667414Y-88054586D01*
X91853957Y-88179231D01*
X92074000Y-88223000D01*
X125771149Y-88223000D01*
X125822711Y-88347789D01*
X126170381Y-88696066D01*
X126624866Y-88884785D01*
X127116975Y-88885214D01*
X127571789Y-88697289D01*
X127920066Y-88349619D01*
X128108785Y-87895134D01*
X128109137Y-87491149D01*
X174378917Y-87491149D01*
X174452654Y-87694638D01*
X174911020Y-87873724D01*
X175403028Y-87863769D01*
X175811346Y-87694638D01*
X175875134Y-87518603D01*
X179558463Y-87518603D01*
X179636840Y-87726037D01*
X180108958Y-87911463D01*
X180616099Y-87902103D01*
X181041160Y-87726037D01*
X181119537Y-87518603D01*
X180339000Y-86738066D01*
X179558463Y-87518603D01*
X175875134Y-87518603D01*
X175885083Y-87491149D01*
X175132000Y-86738066D01*
X174378917Y-87491149D01*
X128109137Y-87491149D01*
X128109214Y-87403025D01*
X127921289Y-86948211D01*
X127573619Y-86599934D01*
X127119134Y-86411215D01*
X126627025Y-86410786D01*
X126172211Y-86598711D01*
X125823934Y-86946381D01*
X125771357Y-87073000D01*
X92312172Y-87073000D01*
X86852586Y-81613414D01*
X86666043Y-81488769D01*
X86446000Y-81445000D01*
X82124686Y-81445000D01*
X82073592Y-81321343D01*
X81947470Y-81195000D01*
X89971714Y-81195000D01*
X90180705Y-81404356D01*
X90502188Y-81537848D01*
X90850285Y-81538151D01*
X91172000Y-81405221D01*
X91418356Y-81159295D01*
X91551848Y-80837812D01*
X91552151Y-80489715D01*
X91419221Y-80168000D01*
X91173295Y-79921644D01*
X90851812Y-79788152D01*
X90503715Y-79787849D01*
X90182000Y-79920779D01*
X90057562Y-80045000D01*
X81947638Y-80045000D01*
X82072371Y-79920485D01*
X82260785Y-79466734D01*
X82261214Y-78975421D01*
X82171378Y-78758000D01*
X97886021Y-78758000D01*
X97983075Y-79245921D01*
X98259460Y-79659561D01*
X98673100Y-79935946D01*
X99135884Y-80028000D01*
X98673100Y-80120054D01*
X98259460Y-80396439D01*
X97983075Y-80810079D01*
X97886021Y-81298000D01*
X97983075Y-81785921D01*
X98259460Y-82199561D01*
X98673100Y-82475946D01*
X99135884Y-82568000D01*
X98673100Y-82660054D01*
X98259460Y-82936439D01*
X97983075Y-83350079D01*
X97886021Y-83838000D01*
X97983075Y-84325921D01*
X98259460Y-84739561D01*
X98673100Y-85015946D01*
X99161021Y-85113000D01*
X99210979Y-85113000D01*
X99698900Y-85015946D01*
X100112540Y-84739561D01*
X100388925Y-84325921D01*
X100485979Y-83838000D01*
X100388925Y-83350079D01*
X100112540Y-82936439D01*
X99698900Y-82660054D01*
X99236116Y-82568000D01*
X99698900Y-82475946D01*
X100112540Y-82199561D01*
X100330741Y-81873000D01*
X102488000Y-81873000D01*
X102708043Y-81829231D01*
X102894586Y-81704586D01*
X103148586Y-81450587D01*
X103148588Y-81450584D01*
X103996172Y-80603000D01*
X105741441Y-80603000D01*
X105603075Y-80810079D01*
X105506021Y-81298000D01*
X105603075Y-81785921D01*
X105879460Y-82199561D01*
X106293100Y-82475946D01*
X106755884Y-82568000D01*
X106293100Y-82660054D01*
X105879460Y-82936439D01*
X105603075Y-83350079D01*
X105506021Y-83838000D01*
X105603075Y-84325921D01*
X105879460Y-84739561D01*
X106293100Y-85015946D01*
X106781021Y-85113000D01*
X106830979Y-85113000D01*
X107318900Y-85015946D01*
X107732540Y-84739561D01*
X108008925Y-84325921D01*
X108105979Y-83838000D01*
X108008925Y-83350079D01*
X107732540Y-82936439D01*
X107318900Y-82660054D01*
X106856116Y-82568000D01*
X107318900Y-82475946D01*
X107732540Y-82199561D01*
X108008925Y-81785921D01*
X108105979Y-81298000D01*
X108008925Y-80810079D01*
X107870559Y-80603000D01*
X112521000Y-80603000D01*
X112741043Y-80559231D01*
X112927586Y-80434586D01*
X113089197Y-80272975D01*
X125634786Y-80272975D01*
X125822711Y-80727789D01*
X126170381Y-81076066D01*
X126624866Y-81264785D01*
X127116975Y-81265214D01*
X127571789Y-81077289D01*
X127920066Y-80729619D01*
X127972643Y-80603000D01*
X165749827Y-80603000D01*
X165835413Y-80688586D01*
X165979386Y-80784786D01*
X166021957Y-80813231D01*
X166242000Y-80857000D01*
X174081186Y-80857000D01*
X173895215Y-81304866D01*
X173894786Y-81796975D01*
X174080732Y-82247000D01*
X133587172Y-82247000D01*
X133501586Y-82161414D01*
X133315043Y-82036769D01*
X133095000Y-81993000D01*
X127972851Y-81993000D01*
X127921289Y-81868211D01*
X127573619Y-81519934D01*
X127119134Y-81331215D01*
X126627025Y-81330786D01*
X126172211Y-81518711D01*
X125823934Y-81866381D01*
X125635215Y-82320866D01*
X125634786Y-82812975D01*
X125822711Y-83267789D01*
X126170381Y-83616066D01*
X126624866Y-83804785D01*
X127116975Y-83805214D01*
X127571789Y-83617289D01*
X127920066Y-83269619D01*
X127972643Y-83143000D01*
X132856827Y-83143000D01*
X132942413Y-83228586D01*
X133124240Y-83350079D01*
X133128957Y-83353231D01*
X133349000Y-83397000D01*
X174081186Y-83397000D01*
X173895215Y-83844866D01*
X173894786Y-84336975D01*
X174080732Y-84787000D01*
X132543740Y-84787000D01*
X132536786Y-84778039D01*
X132485586Y-84701414D01*
X132468409Y-84689937D01*
X132455741Y-84673614D01*
X132375676Y-84627974D01*
X132299043Y-84576769D01*
X132278777Y-84572738D01*
X132260831Y-84562508D01*
X132169397Y-84550981D01*
X132079000Y-84533000D01*
X127972851Y-84533000D01*
X127921289Y-84408211D01*
X127573619Y-84059934D01*
X127119134Y-83871215D01*
X126627025Y-83870786D01*
X126172211Y-84058711D01*
X125823934Y-84406381D01*
X125635215Y-84860866D01*
X125634786Y-85352975D01*
X125822711Y-85807789D01*
X126170381Y-86156066D01*
X126624866Y-86344785D01*
X127116975Y-86345214D01*
X127571789Y-86157289D01*
X127920066Y-85809619D01*
X127972643Y-85683000D01*
X131741260Y-85683000D01*
X131748211Y-85691956D01*
X131799414Y-85768586D01*
X131816591Y-85780063D01*
X131829259Y-85796386D01*
X131909328Y-85842029D01*
X131985957Y-85893231D01*
X132006221Y-85897262D01*
X132024169Y-85907493D01*
X132115611Y-85919021D01*
X132206000Y-85937000D01*
X174112562Y-85937000D01*
X174069362Y-85952654D01*
X173890276Y-86411020D01*
X173900231Y-86903028D01*
X174069362Y-87311346D01*
X174272851Y-87385083D01*
X175025934Y-86632000D01*
X175011792Y-86617858D01*
X175117858Y-86511792D01*
X175132000Y-86525934D01*
X175146143Y-86511792D01*
X175252209Y-86617858D01*
X175238066Y-86632000D01*
X175991149Y-87385083D01*
X176194638Y-87311346D01*
X176373724Y-86852980D01*
X176364599Y-86401958D01*
X179059537Y-86401958D01*
X179068897Y-86909099D01*
X179244963Y-87334160D01*
X179452397Y-87412537D01*
X180232934Y-86632000D01*
X180445066Y-86632000D01*
X181225603Y-87412537D01*
X181433037Y-87334160D01*
X181618463Y-86862042D01*
X181609103Y-86354901D01*
X181433037Y-85929840D01*
X181225603Y-85851463D01*
X180445066Y-86632000D01*
X180232934Y-86632000D01*
X179452397Y-85851463D01*
X179244963Y-85929840D01*
X179059537Y-86401958D01*
X176364599Y-86401958D01*
X176363769Y-86360972D01*
X176194638Y-85952654D01*
X176151438Y-85937000D01*
X177672000Y-85937000D01*
X177892043Y-85893231D01*
X178078586Y-85768586D01*
X178101775Y-85745397D01*
X179558463Y-85745397D01*
X180339000Y-86525934D01*
X181119537Y-85745397D01*
X181041160Y-85537963D01*
X180569042Y-85352537D01*
X180061901Y-85361897D01*
X179636840Y-85537963D01*
X179558463Y-85745397D01*
X178101775Y-85745397D01*
X178735673Y-85111500D01*
X210503301Y-85111500D01*
X210745126Y-85473416D01*
X211174986Y-85760640D01*
X211405539Y-85806500D01*
X211174986Y-85852360D01*
X210745126Y-86139584D01*
X210457902Y-86569444D01*
X210357042Y-87076500D01*
X210457902Y-87583556D01*
X210745126Y-88013416D01*
X211174986Y-88300640D01*
X211682042Y-88401500D01*
X211733958Y-88401500D01*
X212241014Y-88300640D01*
X212670874Y-88013416D01*
X212773416Y-87859950D01*
X215942000Y-87859950D01*
X215942000Y-88520683D01*
X216014314Y-88695266D01*
X216147934Y-88828885D01*
X216322516Y-88901200D01*
X216983250Y-88901200D01*
X217102000Y-88782450D01*
X217102000Y-87741200D01*
X217252000Y-87741200D01*
X217252000Y-88782450D01*
X217370750Y-88901200D01*
X218031484Y-88901200D01*
X218206066Y-88828885D01*
X218339686Y-88695266D01*
X218412000Y-88520683D01*
X218412000Y-87859950D01*
X218293250Y-87741200D01*
X217252000Y-87741200D01*
X217102000Y-87741200D01*
X216060750Y-87741200D01*
X215942000Y-87859950D01*
X212773416Y-87859950D01*
X212912699Y-87651500D01*
X212914500Y-87651500D01*
X213134543Y-87607731D01*
X213321086Y-87483086D01*
X213638587Y-87165586D01*
X213763231Y-86979043D01*
X213796514Y-86811717D01*
X215942000Y-86811717D01*
X215942000Y-87472450D01*
X216060750Y-87591200D01*
X217102000Y-87591200D01*
X217102000Y-86549950D01*
X217252000Y-86549950D01*
X217252000Y-87591200D01*
X218293250Y-87591200D01*
X218412000Y-87472450D01*
X218412000Y-86811717D01*
X218339686Y-86637134D01*
X218213331Y-86510779D01*
X218481786Y-86510779D01*
X218669408Y-86964857D01*
X219016515Y-87312571D01*
X219470266Y-87500985D01*
X219961579Y-87501414D01*
X220415657Y-87313792D01*
X220763371Y-86966685D01*
X220951785Y-86512934D01*
X220952214Y-86021621D01*
X220764592Y-85567543D01*
X220417485Y-85219829D01*
X219963734Y-85031415D01*
X219472421Y-85030986D01*
X219018343Y-85218608D01*
X218670629Y-85565715D01*
X218482215Y-86019466D01*
X218481786Y-86510779D01*
X218213331Y-86510779D01*
X218206066Y-86503515D01*
X218031484Y-86431200D01*
X217370750Y-86431200D01*
X217252000Y-86549950D01*
X217102000Y-86549950D01*
X216983250Y-86431200D01*
X216322516Y-86431200D01*
X216147934Y-86503515D01*
X216014314Y-86637134D01*
X215942000Y-86811717D01*
X213796514Y-86811717D01*
X213807000Y-86759000D01*
X213807000Y-85120779D01*
X215941786Y-85120779D01*
X216129408Y-85574857D01*
X216476515Y-85922571D01*
X216930266Y-86110985D01*
X217421579Y-86111414D01*
X217875657Y-85923792D01*
X218223371Y-85576685D01*
X218411785Y-85122934D01*
X218412214Y-84631621D01*
X218224592Y-84177543D01*
X217877485Y-83829829D01*
X217614864Y-83720779D01*
X218481786Y-83720779D01*
X218669408Y-84174857D01*
X219016515Y-84522571D01*
X219470266Y-84710985D01*
X219961579Y-84711414D01*
X220415657Y-84523792D01*
X220763371Y-84176685D01*
X220951785Y-83722934D01*
X220952214Y-83231621D01*
X220764592Y-82777543D01*
X220417485Y-82429829D01*
X219963734Y-82241415D01*
X219472421Y-82240986D01*
X219018343Y-82428608D01*
X218670629Y-82775715D01*
X218482215Y-83229466D01*
X218481786Y-83720779D01*
X217614864Y-83720779D01*
X217423734Y-83641415D01*
X216932421Y-83640986D01*
X216478343Y-83828608D01*
X216130629Y-84175715D01*
X215942215Y-84629466D01*
X215941786Y-85120779D01*
X213807000Y-85120779D01*
X213807000Y-83711000D01*
X213763231Y-83490957D01*
X213739062Y-83454786D01*
X213638586Y-83304413D01*
X213257586Y-82923414D01*
X213071043Y-82798769D01*
X212851000Y-82755000D01*
X212790088Y-82755000D01*
X212958098Y-82503556D01*
X212994454Y-82320779D01*
X215941786Y-82320779D01*
X216129408Y-82774857D01*
X216476515Y-83122571D01*
X216930266Y-83310985D01*
X217421579Y-83311414D01*
X217875657Y-83123792D01*
X218223371Y-82776685D01*
X218411785Y-82322934D01*
X218412214Y-81831621D01*
X218224592Y-81377543D01*
X217898399Y-81050779D01*
X218481786Y-81050779D01*
X218669408Y-81504857D01*
X219016515Y-81852571D01*
X219470266Y-82040985D01*
X219961579Y-82041414D01*
X220415657Y-81853792D01*
X220763371Y-81506685D01*
X220951785Y-81052934D01*
X220952214Y-80561621D01*
X220764592Y-80107543D01*
X220417485Y-79759829D01*
X219963734Y-79571415D01*
X219472421Y-79570986D01*
X219018343Y-79758608D01*
X218670629Y-80105715D01*
X218482215Y-80559466D01*
X218481786Y-81050779D01*
X217898399Y-81050779D01*
X217877485Y-81029829D01*
X217423734Y-80841415D01*
X216932421Y-80840986D01*
X216478343Y-81028608D01*
X216130629Y-81375715D01*
X215942215Y-81829466D01*
X215941786Y-82320779D01*
X212994454Y-82320779D01*
X213058958Y-81996500D01*
X212958098Y-81489444D01*
X212670874Y-81059584D01*
X212241014Y-80772360D01*
X212010461Y-80726500D01*
X212241014Y-80680640D01*
X212670874Y-80393416D01*
X212958098Y-79963556D01*
X213018324Y-79660779D01*
X215941786Y-79660779D01*
X216129408Y-80114857D01*
X216476515Y-80462571D01*
X216930266Y-80650985D01*
X217421579Y-80651414D01*
X217875657Y-80463792D01*
X218223371Y-80116685D01*
X218411785Y-79662934D01*
X218412214Y-79171621D01*
X218224592Y-78717543D01*
X217877485Y-78369829D01*
X217614864Y-78260779D01*
X218481786Y-78260779D01*
X218669408Y-78714857D01*
X219016515Y-79062571D01*
X219470266Y-79250985D01*
X219961579Y-79251414D01*
X220415657Y-79063792D01*
X220763371Y-78716685D01*
X220951785Y-78262934D01*
X220952214Y-77771621D01*
X220764592Y-77317543D01*
X220417485Y-76969829D01*
X219963734Y-76781415D01*
X219472421Y-76780986D01*
X219018343Y-76968608D01*
X218670629Y-77315715D01*
X218482215Y-77769466D01*
X218481786Y-78260779D01*
X217614864Y-78260779D01*
X217423734Y-78181415D01*
X216932421Y-78180986D01*
X216478343Y-78368608D01*
X216130629Y-78715715D01*
X215942215Y-79169466D01*
X215941786Y-79660779D01*
X213018324Y-79660779D01*
X213058958Y-79456500D01*
X212958098Y-78949444D01*
X212670874Y-78519584D01*
X212254693Y-78241500D01*
X212652483Y-78241500D01*
X212827066Y-78169186D01*
X212960685Y-78035566D01*
X213033000Y-77860984D01*
X213033000Y-77110250D01*
X212914250Y-76991500D01*
X211783000Y-76991500D01*
X211783000Y-77011500D01*
X211633000Y-77011500D01*
X211633000Y-76991500D01*
X210501750Y-76991500D01*
X210383000Y-77110250D01*
X210383000Y-77860984D01*
X210455315Y-78035566D01*
X210588934Y-78169186D01*
X210763517Y-78241500D01*
X211161307Y-78241500D01*
X210745126Y-78519584D01*
X210457902Y-78949444D01*
X210357042Y-79456500D01*
X210457902Y-79963556D01*
X210745126Y-80393416D01*
X211174986Y-80680640D01*
X211405539Y-80726500D01*
X211174986Y-80772360D01*
X210745126Y-81059584D01*
X210503301Y-81421500D01*
X206929673Y-81421500D01*
X205383586Y-79875414D01*
X205197043Y-79750769D01*
X204977000Y-79707000D01*
X176182814Y-79707000D01*
X176368785Y-79259134D01*
X176369214Y-78767025D01*
X176181289Y-78312211D01*
X175833619Y-77963934D01*
X175379134Y-77775215D01*
X174887025Y-77774786D01*
X174432211Y-77962711D01*
X174083934Y-78310381D01*
X173895215Y-78764866D01*
X173894786Y-79256975D01*
X174080732Y-79707000D01*
X166480172Y-79707000D01*
X166394586Y-79621414D01*
X166208043Y-79496769D01*
X165988000Y-79453000D01*
X127972851Y-79453000D01*
X127921289Y-79328211D01*
X127573619Y-78979934D01*
X127119134Y-78791215D01*
X126627025Y-78790786D01*
X126172211Y-78978711D01*
X125823934Y-79326381D01*
X125635215Y-79780866D01*
X125634786Y-80272975D01*
X113089197Y-80272975D01*
X115299173Y-78063000D01*
X125771149Y-78063000D01*
X125822711Y-78187789D01*
X126170381Y-78536066D01*
X126624866Y-78724785D01*
X127116975Y-78725214D01*
X127571789Y-78537289D01*
X127920066Y-78189619D01*
X128108785Y-77735134D01*
X128109214Y-77243025D01*
X127921289Y-76788211D01*
X127850178Y-76716975D01*
X173894786Y-76716975D01*
X174082711Y-77171789D01*
X174430381Y-77520066D01*
X174884866Y-77708785D01*
X175376975Y-77709214D01*
X175831789Y-77521289D01*
X176180066Y-77173619D01*
X176309968Y-76860779D01*
X215941786Y-76860779D01*
X216129408Y-77314857D01*
X216476515Y-77662571D01*
X216930266Y-77850985D01*
X217421579Y-77851414D01*
X217875657Y-77663792D01*
X218223371Y-77316685D01*
X218411785Y-76862934D01*
X218412214Y-76371621D01*
X218224592Y-75917543D01*
X217877485Y-75569829D01*
X217423734Y-75381415D01*
X216932421Y-75380986D01*
X216478343Y-75568608D01*
X216130629Y-75915715D01*
X215942215Y-76369466D01*
X215941786Y-76860779D01*
X176309968Y-76860779D01*
X176368785Y-76719134D01*
X176369214Y-76227025D01*
X176263847Y-75972016D01*
X210383000Y-75972016D01*
X210383000Y-76722750D01*
X210501750Y-76841500D01*
X211633000Y-76841500D01*
X211633000Y-75710250D01*
X211783000Y-75710250D01*
X211783000Y-76841500D01*
X212914250Y-76841500D01*
X213033000Y-76722750D01*
X213033000Y-75972016D01*
X212960685Y-75797434D01*
X212827066Y-75663814D01*
X212652483Y-75591500D01*
X211901750Y-75591500D01*
X211783000Y-75710250D01*
X211633000Y-75710250D01*
X211514250Y-75591500D01*
X210763517Y-75591500D01*
X210588934Y-75663814D01*
X210455315Y-75797434D01*
X210383000Y-75972016D01*
X176263847Y-75972016D01*
X176181289Y-75772211D01*
X175833619Y-75423934D01*
X175379134Y-75235215D01*
X174887025Y-75234786D01*
X174432211Y-75422711D01*
X174083934Y-75770381D01*
X173895215Y-76224866D01*
X173894786Y-76716975D01*
X127850178Y-76716975D01*
X127573619Y-76439934D01*
X127119134Y-76251215D01*
X126627025Y-76250786D01*
X126172211Y-76438711D01*
X125823934Y-76786381D01*
X125771357Y-76913000D01*
X115061000Y-76913000D01*
X114840957Y-76956769D01*
X114654413Y-77081414D01*
X112282828Y-79453000D01*
X107870559Y-79453000D01*
X108008925Y-79245921D01*
X108105979Y-78758000D01*
X108008925Y-78270079D01*
X107732540Y-77856439D01*
X107318900Y-77580054D01*
X106856116Y-77488000D01*
X107318900Y-77395946D01*
X107732540Y-77119561D01*
X108008925Y-76705921D01*
X108105979Y-76218000D01*
X108008925Y-75730079D01*
X107732540Y-75316439D01*
X107547763Y-75192975D01*
X125634786Y-75192975D01*
X125822711Y-75647789D01*
X126170381Y-75996066D01*
X126624866Y-76184785D01*
X127116975Y-76185214D01*
X127571789Y-75997289D01*
X127920066Y-75649619D01*
X128108785Y-75195134D01*
X128109214Y-74703025D01*
X127921289Y-74248211D01*
X127730015Y-74056603D01*
X186289463Y-74056603D01*
X186367840Y-74264037D01*
X186839958Y-74449463D01*
X187347099Y-74440103D01*
X187772160Y-74264037D01*
X187850537Y-74056603D01*
X190099463Y-74056603D01*
X190177840Y-74264037D01*
X190649958Y-74449463D01*
X191157099Y-74440103D01*
X191582160Y-74264037D01*
X191660537Y-74056603D01*
X190880000Y-73276066D01*
X190099463Y-74056603D01*
X187850537Y-74056603D01*
X187070000Y-73276066D01*
X186289463Y-74056603D01*
X127730015Y-74056603D01*
X127573619Y-73899934D01*
X127119134Y-73711215D01*
X126627025Y-73710786D01*
X126172211Y-73898711D01*
X125823934Y-74246381D01*
X125635215Y-74700866D01*
X125634786Y-75192975D01*
X107547763Y-75192975D01*
X107318900Y-75040054D01*
X106830979Y-74943000D01*
X106781021Y-74943000D01*
X106293100Y-75040054D01*
X105879460Y-75316439D01*
X105603075Y-75730079D01*
X105506021Y-76218000D01*
X105603075Y-76705921D01*
X105879460Y-77119561D01*
X106293100Y-77395946D01*
X106755884Y-77488000D01*
X106293100Y-77580054D01*
X105879460Y-77856439D01*
X105661259Y-78183000D01*
X102769361Y-78183000D01*
X102603295Y-78016644D01*
X102281812Y-77883152D01*
X101933715Y-77882849D01*
X101612000Y-78015779D01*
X101365644Y-78261705D01*
X101232152Y-78583188D01*
X101231849Y-78931285D01*
X101364779Y-79253000D01*
X101610705Y-79499356D01*
X101932188Y-79632848D01*
X102280285Y-79633151D01*
X102602000Y-79500221D01*
X102769513Y-79333000D01*
X105661259Y-79333000D01*
X105741441Y-79453000D01*
X103758000Y-79453000D01*
X103537957Y-79496769D01*
X103351414Y-79621414D01*
X102335416Y-80637412D01*
X102335413Y-80637414D01*
X102249827Y-80723000D01*
X100330741Y-80723000D01*
X100112540Y-80396439D01*
X99698900Y-80120054D01*
X99236116Y-80028000D01*
X99698900Y-79935946D01*
X100112540Y-79659561D01*
X100388925Y-79245921D01*
X100485979Y-78758000D01*
X100388925Y-78270079D01*
X100112540Y-77856439D01*
X99698900Y-77580054D01*
X99261002Y-77492950D01*
X99261002Y-77374252D01*
X99379750Y-77493000D01*
X100080483Y-77493000D01*
X100255066Y-77420686D01*
X100388685Y-77287066D01*
X100461000Y-77112484D01*
X100461000Y-76411750D01*
X100342250Y-76293000D01*
X99261000Y-76293000D01*
X99261000Y-76313000D01*
X99111000Y-76313000D01*
X99111000Y-76293000D01*
X98029750Y-76293000D01*
X97911000Y-76411750D01*
X97911000Y-77112484D01*
X97983315Y-77287066D01*
X98116934Y-77420686D01*
X98291517Y-77493000D01*
X98992250Y-77493000D01*
X99110998Y-77374252D01*
X99110998Y-77492950D01*
X98673100Y-77580054D01*
X98259460Y-77856439D01*
X97983075Y-78270079D01*
X97886021Y-78758000D01*
X82171378Y-78758000D01*
X82073592Y-78521343D01*
X81726485Y-78173629D01*
X81272734Y-77985215D01*
X80781421Y-77984786D01*
X80327343Y-78172408D01*
X79979629Y-78519515D01*
X79791215Y-78973266D01*
X79790786Y-79464579D01*
X79978408Y-79918657D01*
X80104530Y-80045000D01*
X79584686Y-80045000D01*
X79533592Y-79921343D01*
X79186485Y-79573629D01*
X78732734Y-79385215D01*
X78241421Y-79384786D01*
X77787343Y-79572408D01*
X77439629Y-79919515D01*
X77251215Y-80373266D01*
X77250786Y-80864579D01*
X74165000Y-80864579D01*
X74165000Y-78074579D01*
X77250786Y-78074579D01*
X77438408Y-78528657D01*
X77785515Y-78876371D01*
X78239266Y-79064785D01*
X78730579Y-79065214D01*
X79184657Y-78877592D01*
X79532371Y-78530485D01*
X79720785Y-78076734D01*
X79721214Y-77585421D01*
X79533592Y-77131343D01*
X79186485Y-76783629D01*
X78923864Y-76674579D01*
X79790786Y-76674579D01*
X79978408Y-77128657D01*
X80325515Y-77476371D01*
X80779266Y-77664785D01*
X81270579Y-77665214D01*
X81724657Y-77477592D01*
X82072371Y-77130485D01*
X82260785Y-76676734D01*
X82261214Y-76185421D01*
X82073592Y-75731343D01*
X81726485Y-75383629D01*
X81581717Y-75323516D01*
X97911000Y-75323516D01*
X97911000Y-76024250D01*
X98029750Y-76143000D01*
X99111000Y-76143000D01*
X99111000Y-75061750D01*
X99261000Y-75061750D01*
X99261000Y-76143000D01*
X100342250Y-76143000D01*
X100461000Y-76024250D01*
X100461000Y-75323516D01*
X100388685Y-75148934D01*
X100255066Y-75015314D01*
X100080483Y-74943000D01*
X99379750Y-74943000D01*
X99261000Y-75061750D01*
X99111000Y-75061750D01*
X98992250Y-74943000D01*
X98291517Y-74943000D01*
X98116934Y-75015314D01*
X97983315Y-75148934D01*
X97911000Y-75323516D01*
X81581717Y-75323516D01*
X81272734Y-75195215D01*
X80781421Y-75194786D01*
X80327343Y-75382408D01*
X79979629Y-75729515D01*
X79791215Y-76183266D01*
X79790786Y-76674579D01*
X78923864Y-76674579D01*
X78732734Y-76595215D01*
X78241421Y-76594786D01*
X77787343Y-76782408D01*
X77439629Y-77129515D01*
X77251215Y-77583266D01*
X77250786Y-78074579D01*
X74165000Y-78074579D01*
X74165000Y-73294603D01*
X98405463Y-73294603D01*
X98483840Y-73502037D01*
X98955958Y-73687463D01*
X99463099Y-73678103D01*
X99888160Y-73502037D01*
X99966537Y-73294603D01*
X99186000Y-72514066D01*
X98405463Y-73294603D01*
X74165000Y-73294603D01*
X74165000Y-72177958D01*
X97906537Y-72177958D01*
X97915897Y-72685099D01*
X98091963Y-73110160D01*
X98299397Y-73188537D01*
X99079934Y-72408000D01*
X99292066Y-72408000D01*
X100072603Y-73188537D01*
X100280037Y-73110160D01*
X100456642Y-72660501D01*
X102910779Y-72660501D01*
X103104477Y-73129286D01*
X103462827Y-73488262D01*
X103931274Y-73682778D01*
X104438501Y-73683221D01*
X104907286Y-73489523D01*
X105266262Y-73131173D01*
X105460778Y-72662726D01*
X105460786Y-72652975D01*
X125634786Y-72652975D01*
X125822711Y-73107789D01*
X126170381Y-73456066D01*
X126624866Y-73644785D01*
X127116975Y-73645214D01*
X127571789Y-73457289D01*
X127920066Y-73109619D01*
X127972643Y-72983000D01*
X145031259Y-72983000D01*
X145249460Y-73309561D01*
X145663100Y-73585946D01*
X146151021Y-73683000D01*
X146200979Y-73683000D01*
X146688900Y-73585946D01*
X147102540Y-73309561D01*
X147112534Y-73294603D01*
X153015463Y-73294603D01*
X153093840Y-73502037D01*
X153565958Y-73687463D01*
X154073099Y-73678103D01*
X154498160Y-73502037D01*
X154576537Y-73294603D01*
X153796000Y-72514066D01*
X153015463Y-73294603D01*
X147112534Y-73294603D01*
X147378925Y-72895921D01*
X147475979Y-72408000D01*
X147430221Y-72177958D01*
X152516537Y-72177958D01*
X152525897Y-72685099D01*
X152701963Y-73110160D01*
X152909397Y-73188537D01*
X153689934Y-72408000D01*
X153902066Y-72408000D01*
X154682603Y-73188537D01*
X154890037Y-73110160D01*
X154956884Y-72939958D01*
X185790537Y-72939958D01*
X185799897Y-73447099D01*
X185975963Y-73872160D01*
X186183397Y-73950537D01*
X186963934Y-73170000D01*
X187176066Y-73170000D01*
X187956603Y-73950537D01*
X188164037Y-73872160D01*
X188349463Y-73400042D01*
X188340972Y-72939958D01*
X189600537Y-72939958D01*
X189609897Y-73447099D01*
X189785963Y-73872160D01*
X189993397Y-73950537D01*
X190773934Y-73170000D01*
X190986066Y-73170000D01*
X191766603Y-73950537D01*
X191974037Y-73872160D01*
X192159463Y-73400042D01*
X192158794Y-73363750D01*
X197841000Y-73363750D01*
X197841000Y-74464483D01*
X197913314Y-74639066D01*
X198046934Y-74772685D01*
X198221516Y-74845000D01*
X199322250Y-74845000D01*
X199441000Y-74726250D01*
X199441000Y-73245000D01*
X199591000Y-73245000D01*
X199591000Y-74726250D01*
X199709750Y-74845000D01*
X200810484Y-74845000D01*
X200985066Y-74772685D01*
X201118686Y-74639066D01*
X201191000Y-74464483D01*
X201191000Y-73363750D01*
X201072250Y-73245000D01*
X199591000Y-73245000D01*
X199441000Y-73245000D01*
X197959750Y-73245000D01*
X197841000Y-73363750D01*
X192158794Y-73363750D01*
X192150103Y-72892901D01*
X191974037Y-72467840D01*
X191766603Y-72389463D01*
X190986066Y-73170000D01*
X190773934Y-73170000D01*
X189993397Y-72389463D01*
X189785963Y-72467840D01*
X189600537Y-72939958D01*
X188340972Y-72939958D01*
X188340103Y-72892901D01*
X188164037Y-72467840D01*
X187956603Y-72389463D01*
X187176066Y-73170000D01*
X186963934Y-73170000D01*
X186183397Y-72389463D01*
X185975963Y-72467840D01*
X185790537Y-72939958D01*
X154956884Y-72939958D01*
X155075463Y-72638042D01*
X155068918Y-72283397D01*
X186289463Y-72283397D01*
X187070000Y-73063934D01*
X187850537Y-72283397D01*
X190099463Y-72283397D01*
X190880000Y-73063934D01*
X191660537Y-72283397D01*
X191582160Y-72075963D01*
X191110042Y-71890537D01*
X190602901Y-71899897D01*
X190177840Y-72075963D01*
X190099463Y-72283397D01*
X187850537Y-72283397D01*
X187772160Y-72075963D01*
X187300042Y-71890537D01*
X186792901Y-71899897D01*
X186367840Y-72075963D01*
X186289463Y-72283397D01*
X155068918Y-72283397D01*
X155066103Y-72130901D01*
X154960320Y-71875517D01*
X197841000Y-71875517D01*
X197841000Y-72976250D01*
X197959750Y-73095000D01*
X199441000Y-73095000D01*
X199441000Y-71613750D01*
X199591000Y-71613750D01*
X199591000Y-73095000D01*
X201072250Y-73095000D01*
X201191000Y-72976250D01*
X201191000Y-71875517D01*
X201118686Y-71700934D01*
X200985066Y-71567315D01*
X200810484Y-71495000D01*
X199709750Y-71495000D01*
X199591000Y-71613750D01*
X199441000Y-71613750D01*
X199322250Y-71495000D01*
X198221516Y-71495000D01*
X198046934Y-71567315D01*
X197913314Y-71700934D01*
X197841000Y-71875517D01*
X154960320Y-71875517D01*
X154890037Y-71705840D01*
X154682603Y-71627463D01*
X153902066Y-72408000D01*
X153689934Y-72408000D01*
X152909397Y-71627463D01*
X152701963Y-71705840D01*
X152516537Y-72177958D01*
X147430221Y-72177958D01*
X147378925Y-71920079D01*
X147112535Y-71521397D01*
X153015463Y-71521397D01*
X153796000Y-72301934D01*
X154576537Y-71521397D01*
X154498160Y-71313963D01*
X154026042Y-71128537D01*
X153518901Y-71137897D01*
X153093840Y-71313963D01*
X153015463Y-71521397D01*
X147112535Y-71521397D01*
X147102540Y-71506439D01*
X146688900Y-71230054D01*
X146200979Y-71133000D01*
X146151021Y-71133000D01*
X145663100Y-71230054D01*
X145249460Y-71506439D01*
X145031259Y-71833000D01*
X127972851Y-71833000D01*
X127921289Y-71708211D01*
X127573619Y-71359934D01*
X127119134Y-71171215D01*
X126627025Y-71170786D01*
X126172211Y-71358711D01*
X125823934Y-71706381D01*
X125635215Y-72160866D01*
X125634786Y-72652975D01*
X105460786Y-72652975D01*
X105461221Y-72155499D01*
X105267523Y-71686714D01*
X104909173Y-71327738D01*
X104440726Y-71133222D01*
X103933499Y-71132779D01*
X103464714Y-71326477D01*
X103105738Y-71684827D01*
X102911222Y-72153274D01*
X102910779Y-72660501D01*
X100456642Y-72660501D01*
X100465463Y-72638042D01*
X100456103Y-72130901D01*
X100280037Y-71705840D01*
X100072603Y-71627463D01*
X99292066Y-72408000D01*
X99079934Y-72408000D01*
X98299397Y-71627463D01*
X98091963Y-71705840D01*
X97906537Y-72177958D01*
X74165000Y-72177958D01*
X74165000Y-69661334D01*
X76105588Y-69661334D01*
X76467158Y-70536400D01*
X77136078Y-71206489D01*
X78010512Y-71569586D01*
X78957334Y-71570412D01*
X79075959Y-71521397D01*
X98405463Y-71521397D01*
X99186000Y-72301934D01*
X99966537Y-71521397D01*
X99888160Y-71313963D01*
X99416042Y-71128537D01*
X98908901Y-71137897D01*
X98483840Y-71313963D01*
X98405463Y-71521397D01*
X79075959Y-71521397D01*
X79832400Y-71208842D01*
X80502489Y-70539922D01*
X80865586Y-69665488D01*
X80866412Y-68718666D01*
X80504842Y-67843600D01*
X79835922Y-67173511D01*
X78961488Y-66810414D01*
X78014666Y-66809588D01*
X77139600Y-67171158D01*
X76469511Y-67840078D01*
X76106414Y-68714512D01*
X76105588Y-69661334D01*
X74165000Y-69661334D01*
X74165000Y-65296000D01*
X124392000Y-65296000D01*
X124392000Y-69614000D01*
X124402242Y-69665488D01*
X124435769Y-69834043D01*
X124560414Y-70020586D01*
X124814413Y-70274586D01*
X125000957Y-70399231D01*
X125221000Y-70443000D01*
X125771149Y-70443000D01*
X125822711Y-70567789D01*
X126170381Y-70916066D01*
X126624866Y-71104785D01*
X127116975Y-71105214D01*
X127571789Y-70917289D01*
X127920066Y-70569619D01*
X128108785Y-70115134D01*
X128108904Y-69977534D01*
X217336588Y-69977534D01*
X217698158Y-70852600D01*
X218367078Y-71522689D01*
X219241512Y-71885786D01*
X220188334Y-71886612D01*
X221063400Y-71525042D01*
X221733489Y-70856122D01*
X222096586Y-69981688D01*
X222097412Y-69034866D01*
X221735842Y-68159800D01*
X221066922Y-67489711D01*
X220192488Y-67126614D01*
X219245666Y-67125788D01*
X218370600Y-67487358D01*
X217700511Y-68156278D01*
X217337414Y-69030712D01*
X217336588Y-69977534D01*
X128108904Y-69977534D01*
X128109214Y-69623025D01*
X127921289Y-69168211D01*
X127573619Y-68819934D01*
X127119134Y-68631215D01*
X126627025Y-68630786D01*
X126172211Y-68818711D01*
X125823934Y-69166381D01*
X125771357Y-69293000D01*
X125542000Y-69293000D01*
X125542000Y-65534172D01*
X126856173Y-64220000D01*
X189879828Y-64220000D01*
X190161182Y-64501355D01*
X189978439Y-64623460D01*
X189702054Y-65037100D01*
X189605000Y-65525021D01*
X189605000Y-65574979D01*
X189702054Y-66062900D01*
X189978439Y-66476540D01*
X190392079Y-66752925D01*
X190392456Y-66753000D01*
X187645000Y-66753000D01*
X187645000Y-66694741D01*
X187971561Y-66476540D01*
X188247946Y-66062900D01*
X188345000Y-65574979D01*
X188345000Y-65525021D01*
X188247946Y-65037100D01*
X187971561Y-64623460D01*
X187557921Y-64347075D01*
X187070000Y-64250021D01*
X186582079Y-64347075D01*
X186168439Y-64623460D01*
X185892054Y-65037100D01*
X185795000Y-65525021D01*
X185795000Y-65574979D01*
X185892054Y-66062900D01*
X186168439Y-66476540D01*
X186495000Y-66694741D01*
X186495000Y-66753000D01*
X127972851Y-66753000D01*
X127921289Y-66628211D01*
X127573619Y-66279934D01*
X127119134Y-66091215D01*
X126627025Y-66090786D01*
X126172211Y-66278711D01*
X125823934Y-66626381D01*
X125635215Y-67080866D01*
X125634786Y-67572975D01*
X125822711Y-68027789D01*
X126170381Y-68376066D01*
X126624866Y-68564785D01*
X127116975Y-68565214D01*
X127571789Y-68377289D01*
X127920066Y-68029619D01*
X127972643Y-67903000D01*
X213966639Y-67903000D01*
X214132705Y-68069356D01*
X214454188Y-68202848D01*
X214802285Y-68203151D01*
X215124000Y-68070221D01*
X215370356Y-67824295D01*
X215503848Y-67502812D01*
X215504151Y-67154715D01*
X215371221Y-66833000D01*
X215125295Y-66586644D01*
X214803812Y-66453152D01*
X214455715Y-66452849D01*
X214134000Y-66585779D01*
X213966487Y-66753000D01*
X191367544Y-66753000D01*
X191367921Y-66752925D01*
X191781561Y-66476540D01*
X192016452Y-66125000D01*
X222221639Y-66125000D01*
X222387705Y-66291356D01*
X222709188Y-66424848D01*
X223057285Y-66425151D01*
X223379000Y-66292221D01*
X223625356Y-66046295D01*
X223758848Y-65724812D01*
X223759151Y-65376715D01*
X223626221Y-65055000D01*
X223380295Y-64808644D01*
X223058812Y-64675152D01*
X222710715Y-64674849D01*
X222389000Y-64807779D01*
X222221487Y-64975000D01*
X192016452Y-64975000D01*
X191781561Y-64623460D01*
X191454601Y-64404992D01*
X191411231Y-64186957D01*
X191404064Y-64176231D01*
X191286587Y-64000414D01*
X190524586Y-63238414D01*
X190338043Y-63113769D01*
X190118000Y-63070000D01*
X126618000Y-63070000D01*
X126397957Y-63113769D01*
X126211414Y-63238413D01*
X124560414Y-64889414D01*
X124435769Y-65075957D01*
X124392000Y-65296000D01*
X74165000Y-65296000D01*
X74165000Y-60468501D01*
X89862779Y-60468501D01*
X90056477Y-60937286D01*
X90414827Y-61296262D01*
X90883274Y-61490778D01*
X91390501Y-61491221D01*
X91859286Y-61297523D01*
X92054546Y-61102603D01*
X95357463Y-61102603D01*
X95435840Y-61310037D01*
X95907958Y-61495463D01*
X96415099Y-61486103D01*
X96840160Y-61310037D01*
X96918537Y-61102603D01*
X96138000Y-60322066D01*
X95357463Y-61102603D01*
X92054546Y-61102603D01*
X92218262Y-60939173D01*
X92412778Y-60470726D01*
X92413201Y-59985958D01*
X94858537Y-59985958D01*
X94867897Y-60493099D01*
X95043963Y-60918160D01*
X95251397Y-60996537D01*
X96031934Y-60216000D01*
X96244066Y-60216000D01*
X97024603Y-60996537D01*
X97232037Y-60918160D01*
X97417463Y-60446042D01*
X97408103Y-59938901D01*
X97232037Y-59513840D01*
X97024603Y-59435463D01*
X96244066Y-60216000D01*
X96031934Y-60216000D01*
X95251397Y-59435463D01*
X95043963Y-59513840D01*
X94858537Y-59985958D01*
X92413201Y-59985958D01*
X92413221Y-59963499D01*
X92219523Y-59494714D01*
X92054495Y-59329397D01*
X95357463Y-59329397D01*
X96138000Y-60109934D01*
X96918537Y-59329397D01*
X96840160Y-59121963D01*
X96368042Y-58936537D01*
X95860901Y-58945897D01*
X95435840Y-59121963D01*
X95357463Y-59329397D01*
X92054495Y-59329397D01*
X91861173Y-59135738D01*
X91392726Y-58941222D01*
X90885499Y-58940779D01*
X90416714Y-59134477D01*
X90057738Y-59492827D01*
X89863222Y-59961274D01*
X89862779Y-60468501D01*
X74165000Y-60468501D01*
X74165000Y-54519854D01*
X76374545Y-54519854D01*
X76773336Y-55485001D01*
X77511115Y-56224069D01*
X78475564Y-56624544D01*
X79519854Y-56625455D01*
X80485001Y-56226664D01*
X80747372Y-55964750D01*
X96300000Y-55964750D01*
X96300000Y-56625484D01*
X96372315Y-56800066D01*
X96505934Y-56933686D01*
X96680517Y-57006000D01*
X97341250Y-57006000D01*
X97460000Y-56887250D01*
X97460000Y-55846000D01*
X97610000Y-55846000D01*
X97610000Y-56887250D01*
X97728750Y-57006000D01*
X98389483Y-57006000D01*
X98564066Y-56933686D01*
X98697685Y-56800066D01*
X98770000Y-56625484D01*
X98770000Y-56015579D01*
X99089786Y-56015579D01*
X99277408Y-56469657D01*
X99624515Y-56817371D01*
X99750000Y-56869477D01*
X99750000Y-57672000D01*
X99780948Y-57827586D01*
X99793769Y-57892043D01*
X99918414Y-58078586D01*
X102081414Y-60241586D01*
X102267957Y-60366231D01*
X102488000Y-60410000D01*
X107819683Y-60410000D01*
X107709152Y-60676188D01*
X107708849Y-61024285D01*
X107841779Y-61346000D01*
X108087705Y-61592356D01*
X108409188Y-61725848D01*
X108757285Y-61726151D01*
X109079000Y-61593221D01*
X109246513Y-61426000D01*
X166341639Y-61426000D01*
X166507705Y-61592356D01*
X166829188Y-61725848D01*
X167177285Y-61726151D01*
X167499000Y-61593221D01*
X167745356Y-61347295D01*
X167878848Y-61025812D01*
X167879151Y-60677715D01*
X167746221Y-60356000D01*
X167500295Y-60109644D01*
X167178812Y-59976152D01*
X166830715Y-59975849D01*
X166509000Y-60108779D01*
X166341487Y-60276000D01*
X120651317Y-60276000D01*
X120761848Y-60009812D01*
X120762151Y-59661715D01*
X120721868Y-59564224D01*
X120728188Y-59566848D01*
X121076285Y-59567151D01*
X121398000Y-59434221D01*
X121644356Y-59188295D01*
X121777848Y-58866812D01*
X121778151Y-58518715D01*
X121645221Y-58197000D01*
X121399295Y-57950644D01*
X121077812Y-57817152D01*
X120729715Y-57816849D01*
X120408000Y-57949779D01*
X120240487Y-58117000D01*
X104504173Y-58117000D01*
X103570000Y-57182828D01*
X103570000Y-56869686D01*
X103693657Y-56818592D01*
X104041371Y-56471485D01*
X104229785Y-56017734D01*
X104229786Y-56015579D01*
X104559786Y-56015579D01*
X104747408Y-56469657D01*
X105094515Y-56817371D01*
X105548266Y-57005785D01*
X106039579Y-57006214D01*
X106493657Y-56818592D01*
X106841371Y-56471485D01*
X107029785Y-56017734D01*
X107029786Y-56015579D01*
X107349786Y-56015579D01*
X107537408Y-56469657D01*
X107884515Y-56817371D01*
X108338266Y-57005785D01*
X108829579Y-57006214D01*
X109283657Y-56818592D01*
X109631371Y-56471485D01*
X109819785Y-56017734D01*
X109820214Y-55526421D01*
X109632592Y-55072343D01*
X109285485Y-54724629D01*
X108831734Y-54536215D01*
X108340421Y-54535786D01*
X107886343Y-54723408D01*
X107538629Y-55070515D01*
X107350215Y-55524266D01*
X107349786Y-56015579D01*
X107029786Y-56015579D01*
X107030214Y-55526421D01*
X106842592Y-55072343D01*
X106495485Y-54724629D01*
X106041734Y-54536215D01*
X105550421Y-54535786D01*
X105096343Y-54723408D01*
X104748629Y-55070515D01*
X104560215Y-55524266D01*
X104559786Y-56015579D01*
X104229786Y-56015579D01*
X104230214Y-55526421D01*
X104042592Y-55072343D01*
X103695485Y-54724629D01*
X103241734Y-54536215D01*
X102750421Y-54535786D01*
X102296343Y-54723408D01*
X101948629Y-55070515D01*
X101760215Y-55524266D01*
X101759786Y-56015579D01*
X101947408Y-56469657D01*
X102294515Y-56817371D01*
X102420000Y-56869477D01*
X102420000Y-57421000D01*
X102463769Y-57641043D01*
X102588414Y-57827586D01*
X103859413Y-59098586D01*
X103913128Y-59134477D01*
X104045957Y-59223231D01*
X104230808Y-59260000D01*
X102726172Y-59260000D01*
X100900000Y-57433828D01*
X100900000Y-56869686D01*
X101023657Y-56818592D01*
X101371371Y-56471485D01*
X101559785Y-56017734D01*
X101560214Y-55526421D01*
X101372592Y-55072343D01*
X101025485Y-54724629D01*
X100571734Y-54536215D01*
X100080421Y-54535786D01*
X99626343Y-54723408D01*
X99278629Y-55070515D01*
X99090215Y-55524266D01*
X99089786Y-56015579D01*
X98770000Y-56015579D01*
X98770000Y-55964750D01*
X98651250Y-55846000D01*
X97610000Y-55846000D01*
X97460000Y-55846000D01*
X96418750Y-55846000D01*
X96300000Y-55964750D01*
X80747372Y-55964750D01*
X81224069Y-55488885D01*
X81624544Y-54524436D01*
X81625261Y-53702334D01*
X88044588Y-53702334D01*
X88406158Y-54577400D01*
X89075078Y-55247489D01*
X89949512Y-55610586D01*
X90896334Y-55611412D01*
X91771400Y-55249842D01*
X92105308Y-54916516D01*
X96300000Y-54916516D01*
X96300000Y-55577250D01*
X96418750Y-55696000D01*
X97460000Y-55696000D01*
X97460000Y-54654750D01*
X97610000Y-54654750D01*
X97610000Y-55696000D01*
X98651250Y-55696000D01*
X98770000Y-55577250D01*
X98770000Y-54916516D01*
X98697685Y-54741934D01*
X98564066Y-54608314D01*
X98389483Y-54536000D01*
X97728750Y-54536000D01*
X97610000Y-54654750D01*
X97460000Y-54654750D01*
X97341250Y-54536000D01*
X96680517Y-54536000D01*
X96505934Y-54608314D01*
X96372315Y-54741934D01*
X96300000Y-54916516D01*
X92105308Y-54916516D01*
X92441489Y-54580922D01*
X92804586Y-53706488D01*
X92804787Y-53475579D01*
X97699786Y-53475579D01*
X97887408Y-53929657D01*
X98234515Y-54277371D01*
X98688266Y-54465785D01*
X99179579Y-54466214D01*
X99633657Y-54278592D01*
X99981371Y-53931485D01*
X100169785Y-53477734D01*
X100169786Y-53475579D01*
X100489786Y-53475579D01*
X100677408Y-53929657D01*
X101024515Y-54277371D01*
X101478266Y-54465785D01*
X101969579Y-54466214D01*
X102423657Y-54278592D01*
X102771371Y-53931485D01*
X102959785Y-53477734D01*
X102959786Y-53475579D01*
X103159786Y-53475579D01*
X103347408Y-53929657D01*
X103694515Y-54277371D01*
X104148266Y-54465785D01*
X104639579Y-54466214D01*
X105093657Y-54278592D01*
X105441371Y-53931485D01*
X105629785Y-53477734D01*
X105629786Y-53475579D01*
X105949786Y-53475579D01*
X106137408Y-53929657D01*
X106484515Y-54277371D01*
X106938266Y-54465785D01*
X107429579Y-54466214D01*
X107883657Y-54278592D01*
X108231371Y-53931485D01*
X108326522Y-53702334D01*
X113444588Y-53702334D01*
X113806158Y-54577400D01*
X114475078Y-55247489D01*
X115349512Y-55610586D01*
X116296334Y-55611412D01*
X117171400Y-55249842D01*
X117841489Y-54580922D01*
X117866846Y-54519854D01*
X216374545Y-54519854D01*
X216773336Y-55485001D01*
X217511115Y-56224069D01*
X218475564Y-56624544D01*
X219519854Y-56625455D01*
X220485001Y-56226664D01*
X221224069Y-55488885D01*
X221624544Y-54524436D01*
X221625455Y-53480146D01*
X221226664Y-52514999D01*
X220488885Y-51775931D01*
X219524436Y-51375456D01*
X218480146Y-51374545D01*
X217514999Y-51773336D01*
X216775931Y-52511115D01*
X216375456Y-53475564D01*
X216374545Y-54519854D01*
X117866846Y-54519854D01*
X118204586Y-53706488D01*
X118205412Y-52759666D01*
X117843842Y-51884600D01*
X117174922Y-51214511D01*
X116300488Y-50851414D01*
X115353666Y-50850588D01*
X114478600Y-51212158D01*
X113808511Y-51881078D01*
X113445414Y-52755512D01*
X113444588Y-53702334D01*
X108326522Y-53702334D01*
X108419785Y-53477734D01*
X108420214Y-52986421D01*
X108232592Y-52532343D01*
X107885485Y-52184629D01*
X107431734Y-51996215D01*
X106940421Y-51995786D01*
X106486343Y-52183408D01*
X106138629Y-52530515D01*
X105950215Y-52984266D01*
X105949786Y-53475579D01*
X105629786Y-53475579D01*
X105630214Y-52986421D01*
X105442592Y-52532343D01*
X105095485Y-52184629D01*
X104641734Y-51996215D01*
X104150421Y-51995786D01*
X103696343Y-52183408D01*
X103348629Y-52530515D01*
X103160215Y-52984266D01*
X103159786Y-53475579D01*
X102959786Y-53475579D01*
X102960214Y-52986421D01*
X102772592Y-52532343D01*
X102425485Y-52184629D01*
X101971734Y-51996215D01*
X101480421Y-51995786D01*
X101026343Y-52183408D01*
X100678629Y-52530515D01*
X100490215Y-52984266D01*
X100489786Y-53475579D01*
X100169786Y-53475579D01*
X100170214Y-52986421D01*
X99982592Y-52532343D01*
X99635485Y-52184629D01*
X99181734Y-51996215D01*
X98690421Y-51995786D01*
X98236343Y-52183408D01*
X97888629Y-52530515D01*
X97700215Y-52984266D01*
X97699786Y-53475579D01*
X92804787Y-53475579D01*
X92805412Y-52759666D01*
X92443842Y-51884600D01*
X91774922Y-51214511D01*
X90900488Y-50851414D01*
X89953666Y-50850588D01*
X89078600Y-51212158D01*
X88408511Y-51881078D01*
X88045414Y-52755512D01*
X88044588Y-53702334D01*
X81625261Y-53702334D01*
X81625455Y-53480146D01*
X81226664Y-52514999D01*
X80488885Y-51775931D01*
X79524436Y-51375456D01*
X78480146Y-51374545D01*
X77514999Y-51773336D01*
X76775931Y-52511115D01*
X76375456Y-53475564D01*
X76374545Y-54519854D01*
X74165000Y-54519854D01*
X74165000Y-49165000D01*
X223775000Y-49165000D01*
X223775000Y-114955000D01*
X223775000Y-114955000D01*
G37*
X223775000Y-114955000D02*
X74165000Y-114955000D01*
X74165000Y-110519854D01*
X76374545Y-110519854D01*
X76773336Y-111485001D01*
X77511115Y-112224069D01*
X78475564Y-112624544D01*
X79519854Y-112625455D01*
X80485001Y-112226664D01*
X81224069Y-111488885D01*
X81435653Y-110979334D01*
X88040588Y-110979334D01*
X88402158Y-111854400D01*
X89071078Y-112524489D01*
X89945512Y-112887586D01*
X90892334Y-112888412D01*
X91767400Y-112526842D01*
X92437489Y-111857922D01*
X92800586Y-110983488D01*
X92800787Y-110752579D01*
X97825786Y-110752579D01*
X98013408Y-111206657D01*
X98360515Y-111554371D01*
X98814266Y-111742785D01*
X99305579Y-111743214D01*
X99759657Y-111555592D01*
X100107371Y-111208485D01*
X100295785Y-110754734D01*
X100295786Y-110752579D01*
X100615786Y-110752579D01*
X100803408Y-111206657D01*
X101150515Y-111554371D01*
X101604266Y-111742785D01*
X102095579Y-111743214D01*
X102549657Y-111555592D01*
X102739877Y-111365704D01*
X103769362Y-111365704D01*
X103842854Y-111568985D01*
X104300497Y-111747737D01*
X104791709Y-111737751D01*
X105199146Y-111568985D01*
X105272638Y-111365704D01*
X104521000Y-110614066D01*
X103769362Y-111365704D01*
X102739877Y-111365704D01*
X102897371Y-111208485D01*
X103085785Y-110754734D01*
X103086192Y-110287497D01*
X103281263Y-110287497D01*
X103291249Y-110778709D01*
X103460015Y-111186146D01*
X103663296Y-111259638D01*
X104414934Y-110508000D01*
X104627066Y-110508000D01*
X105378704Y-111259638D01*
X105581985Y-111186146D01*
X105751333Y-110752579D01*
X106075786Y-110752579D01*
X106263408Y-111206657D01*
X106610515Y-111554371D01*
X107064266Y-111742785D01*
X107555579Y-111743214D01*
X108009657Y-111555592D01*
X108357371Y-111208485D01*
X108452522Y-110979334D01*
X113440588Y-110979334D01*
X113802158Y-111854400D01*
X114471078Y-112524489D01*
X115345512Y-112887586D01*
X116292334Y-112888412D01*
X117167400Y-112526842D01*
X117417703Y-112276975D01*
X125634786Y-112276975D01*
X125822711Y-112731789D01*
X126170381Y-113080066D01*
X126624866Y-113268785D01*
X127116975Y-113269214D01*
X127571789Y-113081289D01*
X127920066Y-112733619D01*
X127972643Y-112607000D01*
X143128000Y-112607000D01*
X143348043Y-112563231D01*
X143534586Y-112438586D01*
X143696197Y-112276975D01*
X173894786Y-112276975D01*
X174082711Y-112731789D01*
X174430381Y-113080066D01*
X174884866Y-113268785D01*
X175376975Y-113269214D01*
X175831789Y-113081289D01*
X176180066Y-112733619D01*
X176368785Y-112279134D01*
X176369214Y-111787025D01*
X176181289Y-111332211D01*
X175833619Y-110983934D01*
X175379134Y-110795215D01*
X174887025Y-110794786D01*
X174432211Y-110982711D01*
X174083934Y-111330381D01*
X173895215Y-111784866D01*
X173894786Y-112276975D01*
X143696197Y-112276975D01*
X145857378Y-110115795D01*
X146155021Y-110175000D01*
X146204979Y-110175000D01*
X146692900Y-110077946D01*
X147106540Y-109801561D01*
X147116534Y-109786603D01*
X153019463Y-109786603D01*
X153097840Y-109994037D01*
X153569958Y-110179463D01*
X154077099Y-110170103D01*
X154502160Y-109994037D01*
X154580537Y-109786603D01*
X154530909Y-109736975D01*
X173894786Y-109736975D01*
X174082711Y-110191789D01*
X174430381Y-110540066D01*
X174884866Y-110728785D01*
X175376975Y-110729214D01*
X175831789Y-110541289D01*
X175853261Y-110519854D01*
X216374545Y-110519854D01*
X216773336Y-111485001D01*
X217511115Y-112224069D01*
X218475564Y-112624544D01*
X219519854Y-112625455D01*
X220485001Y-112226664D01*
X221224069Y-111488885D01*
X221624544Y-110524436D01*
X221625455Y-109480146D01*
X221226664Y-108514999D01*
X220488885Y-107775931D01*
X219524436Y-107375456D01*
X218480146Y-107374545D01*
X217514999Y-107773336D01*
X216775931Y-108511115D01*
X216375456Y-109475564D01*
X216374545Y-110519854D01*
X175853261Y-110519854D01*
X176180066Y-110193619D01*
X176368785Y-109739134D01*
X176369214Y-109247025D01*
X176181289Y-108792211D01*
X175833619Y-108443934D01*
X175379134Y-108255215D01*
X174887025Y-108254786D01*
X174432211Y-108442711D01*
X174083934Y-108790381D01*
X173895215Y-109244866D01*
X173894786Y-109736975D01*
X154530909Y-109736975D01*
X153800000Y-109006066D01*
X153019463Y-109786603D01*
X147116534Y-109786603D01*
X147382925Y-109387921D01*
X147479979Y-108900000D01*
X147434221Y-108669958D01*
X152520537Y-108669958D01*
X152529897Y-109177099D01*
X152705963Y-109602160D01*
X152913397Y-109680537D01*
X153693934Y-108900000D01*
X153906066Y-108900000D01*
X154686603Y-109680537D01*
X154894037Y-109602160D01*
X155079463Y-109130042D01*
X155070103Y-108622901D01*
X154894037Y-108197840D01*
X154686603Y-108119463D01*
X153906066Y-108900000D01*
X153693934Y-108900000D01*
X152913397Y-108119463D01*
X152705963Y-108197840D01*
X152520537Y-108669958D01*
X147434221Y-108669958D01*
X147382925Y-108412079D01*
X147116535Y-108013397D01*
X153019463Y-108013397D01*
X153800000Y-108793934D01*
X154580537Y-108013397D01*
X154502160Y-107805963D01*
X154030042Y-107620537D01*
X153522901Y-107629897D01*
X153097840Y-107805963D01*
X153019463Y-108013397D01*
X147116535Y-108013397D01*
X147106540Y-107998439D01*
X146692900Y-107722054D01*
X146204979Y-107625000D01*
X146155021Y-107625000D01*
X145667100Y-107722054D01*
X145253460Y-107998439D01*
X144977075Y-108412079D01*
X144880021Y-108900000D01*
X144974061Y-109372767D01*
X142889828Y-111457000D01*
X127972851Y-111457000D01*
X127921289Y-111332211D01*
X127573619Y-110983934D01*
X127119134Y-110795215D01*
X126627025Y-110794786D01*
X126172211Y-110982711D01*
X125823934Y-111330381D01*
X125635215Y-111784866D01*
X125634786Y-112276975D01*
X117417703Y-112276975D01*
X117837489Y-111857922D01*
X118200586Y-110983488D01*
X118201412Y-110036666D01*
X118077583Y-109736975D01*
X125634786Y-109736975D01*
X125822711Y-110191789D01*
X126170381Y-110540066D01*
X126624866Y-110728785D01*
X127116975Y-110729214D01*
X127571789Y-110541289D01*
X127920066Y-110193619D01*
X127972643Y-110067000D01*
X141604000Y-110067000D01*
X141824043Y-110023231D01*
X142010586Y-109898586D01*
X144712197Y-107196975D01*
X173894786Y-107196975D01*
X174082711Y-107651789D01*
X174430381Y-108000066D01*
X174884866Y-108188785D01*
X175376975Y-108189214D01*
X175831789Y-108001289D01*
X176180066Y-107653619D01*
X176368785Y-107199134D01*
X176369214Y-106707025D01*
X176181289Y-106252211D01*
X175833619Y-105903934D01*
X175379134Y-105715215D01*
X174887025Y-105714786D01*
X174432211Y-105902711D01*
X174083934Y-106250381D01*
X173895215Y-106704866D01*
X173894786Y-107196975D01*
X144712197Y-107196975D01*
X145803996Y-106105177D01*
X146155021Y-106175000D01*
X146204979Y-106175000D01*
X146692900Y-106077946D01*
X147106540Y-105801561D01*
X147116534Y-105786603D01*
X153019463Y-105786603D01*
X153097840Y-105994037D01*
X153569958Y-106179463D01*
X154077099Y-106170103D01*
X154502160Y-105994037D01*
X154580537Y-105786603D01*
X153800000Y-105006066D01*
X153019463Y-105786603D01*
X147116534Y-105786603D01*
X147382925Y-105387921D01*
X147479979Y-104900000D01*
X147434221Y-104669958D01*
X152520537Y-104669958D01*
X152529897Y-105177099D01*
X152705963Y-105602160D01*
X152913397Y-105680537D01*
X153693934Y-104900000D01*
X153906066Y-104900000D01*
X154686603Y-105680537D01*
X154894037Y-105602160D01*
X155079463Y-105130042D01*
X155070103Y-104622901D01*
X155054522Y-104585285D01*
X166128849Y-104585285D01*
X166261779Y-104907000D01*
X166507705Y-105153356D01*
X166829188Y-105286848D01*
X167177285Y-105287151D01*
X167499000Y-105154221D01*
X167666513Y-104987000D01*
X174031149Y-104987000D01*
X174082711Y-105111789D01*
X174430381Y-105460066D01*
X174884866Y-105648785D01*
X175376975Y-105649214D01*
X175831789Y-105461289D01*
X176180066Y-105113619D01*
X176368785Y-104659134D01*
X176369214Y-104167025D01*
X176181289Y-103712211D01*
X175833619Y-103363934D01*
X175379134Y-103175215D01*
X174887025Y-103174786D01*
X174432211Y-103362711D01*
X174083934Y-103710381D01*
X174031357Y-103837000D01*
X167666361Y-103837000D01*
X167500295Y-103670644D01*
X167178812Y-103537152D01*
X166830715Y-103536849D01*
X166509000Y-103669779D01*
X166262644Y-103915705D01*
X166129152Y-104237188D01*
X166128849Y-104585285D01*
X155054522Y-104585285D01*
X154894037Y-104197840D01*
X154686603Y-104119463D01*
X153906066Y-104900000D01*
X153693934Y-104900000D01*
X152913397Y-104119463D01*
X152705963Y-104197840D01*
X152520537Y-104669958D01*
X147434221Y-104669958D01*
X147382925Y-104412079D01*
X147116535Y-104013397D01*
X153019463Y-104013397D01*
X153800000Y-104793934D01*
X154580537Y-104013397D01*
X154502160Y-103805963D01*
X154030042Y-103620537D01*
X153522901Y-103629897D01*
X153097840Y-103805963D01*
X153019463Y-104013397D01*
X147116535Y-104013397D01*
X147106540Y-103998439D01*
X146692900Y-103722054D01*
X146204979Y-103625000D01*
X146155021Y-103625000D01*
X145667100Y-103722054D01*
X145253460Y-103998439D01*
X144977075Y-104412079D01*
X144880021Y-104900000D01*
X144963442Y-105319385D01*
X141365828Y-108917000D01*
X127972851Y-108917000D01*
X127921289Y-108792211D01*
X127573619Y-108443934D01*
X127119134Y-108255215D01*
X126627025Y-108254786D01*
X126172211Y-108442711D01*
X125823934Y-108790381D01*
X125635215Y-109244866D01*
X125634786Y-109736975D01*
X118077583Y-109736975D01*
X117839842Y-109161600D01*
X117170922Y-108491511D01*
X116296488Y-108128414D01*
X115349666Y-108127588D01*
X114474600Y-108489158D01*
X113804511Y-109158078D01*
X113441414Y-110032512D01*
X113440588Y-110979334D01*
X108452522Y-110979334D01*
X108545785Y-110754734D01*
X108546214Y-110263421D01*
X108358592Y-109809343D01*
X108011485Y-109461629D01*
X107557734Y-109273215D01*
X107066421Y-109272786D01*
X106612343Y-109460408D01*
X106264629Y-109807515D01*
X106076215Y-110261266D01*
X106075786Y-110752579D01*
X105751333Y-110752579D01*
X105760737Y-110728503D01*
X105750751Y-110237291D01*
X105581985Y-109829854D01*
X105378704Y-109756362D01*
X104627066Y-110508000D01*
X104414934Y-110508000D01*
X103663296Y-109756362D01*
X103460015Y-109829854D01*
X103281263Y-110287497D01*
X103086192Y-110287497D01*
X103086214Y-110263421D01*
X102898592Y-109809343D01*
X102739823Y-109650296D01*
X103769362Y-109650296D01*
X104521000Y-110401934D01*
X105272638Y-109650296D01*
X105199146Y-109447015D01*
X104741503Y-109268263D01*
X104250291Y-109278249D01*
X103842854Y-109447015D01*
X103769362Y-109650296D01*
X102739823Y-109650296D01*
X102551485Y-109461629D01*
X102097734Y-109273215D01*
X101606421Y-109272786D01*
X101152343Y-109460408D01*
X100804629Y-109807515D01*
X100616215Y-110261266D01*
X100615786Y-110752579D01*
X100295786Y-110752579D01*
X100296214Y-110263421D01*
X100108592Y-109809343D01*
X99761485Y-109461629D01*
X99307734Y-109273215D01*
X98816421Y-109272786D01*
X98362343Y-109460408D01*
X98014629Y-109807515D01*
X97826215Y-110261266D01*
X97825786Y-110752579D01*
X92800787Y-110752579D01*
X92801412Y-110036666D01*
X92439842Y-109161600D01*
X91770922Y-108491511D01*
X91099180Y-108212579D01*
X96425786Y-108212579D01*
X96613408Y-108666657D01*
X96960515Y-109014371D01*
X97414266Y-109202785D01*
X97905579Y-109203214D01*
X98359657Y-109015592D01*
X98707371Y-108668485D01*
X98895785Y-108214734D01*
X98895786Y-108212579D01*
X99215786Y-108212579D01*
X99403408Y-108666657D01*
X99750515Y-109014371D01*
X100204266Y-109202785D01*
X100695579Y-109203214D01*
X101149657Y-109015592D01*
X101497371Y-108668485D01*
X101685785Y-108214734D01*
X101685786Y-108212579D01*
X102015786Y-108212579D01*
X102203408Y-108666657D01*
X102550515Y-109014371D01*
X103004266Y-109202785D01*
X103495579Y-109203214D01*
X103949657Y-109015592D01*
X104297371Y-108668485D01*
X104485785Y-108214734D01*
X104485786Y-108212579D01*
X104685786Y-108212579D01*
X104873408Y-108666657D01*
X105220515Y-109014371D01*
X105674266Y-109202785D01*
X106165579Y-109203214D01*
X106619657Y-109015592D01*
X106967371Y-108668485D01*
X107155785Y-108214734D01*
X107155831Y-108161750D01*
X107476000Y-108161750D01*
X107476000Y-108822484D01*
X107548315Y-108997066D01*
X107681934Y-109130686D01*
X107856517Y-109203000D01*
X108517250Y-109203000D01*
X108636000Y-109084250D01*
X108636000Y-108043000D01*
X108786000Y-108043000D01*
X108786000Y-109084250D01*
X108904750Y-109203000D01*
X109565483Y-109203000D01*
X109740066Y-109130686D01*
X109873685Y-108997066D01*
X109946000Y-108822484D01*
X109946000Y-108161750D01*
X109827250Y-108043000D01*
X108786000Y-108043000D01*
X108636000Y-108043000D01*
X107594750Y-108043000D01*
X107476000Y-108161750D01*
X107155831Y-108161750D01*
X107156214Y-107723421D01*
X106968592Y-107269343D01*
X106813038Y-107113516D01*
X107476000Y-107113516D01*
X107476000Y-107774250D01*
X107594750Y-107893000D01*
X108636000Y-107893000D01*
X108636000Y-106851750D01*
X108786000Y-106851750D01*
X108786000Y-107893000D01*
X109827250Y-107893000D01*
X109946000Y-107774250D01*
X109946000Y-107113516D01*
X109873685Y-106938934D01*
X109740066Y-106805314D01*
X109565483Y-106733000D01*
X108904750Y-106733000D01*
X108786000Y-106851750D01*
X108636000Y-106851750D01*
X108517250Y-106733000D01*
X107856517Y-106733000D01*
X107681934Y-106805314D01*
X107548315Y-106938934D01*
X107476000Y-107113516D01*
X106813038Y-107113516D01*
X106621485Y-106921629D01*
X106167734Y-106733215D01*
X105676421Y-106732786D01*
X105222343Y-106920408D01*
X104874629Y-107267515D01*
X104686215Y-107721266D01*
X104685786Y-108212579D01*
X104485786Y-108212579D01*
X104486214Y-107723421D01*
X104298592Y-107269343D01*
X103951485Y-106921629D01*
X103497734Y-106733215D01*
X103006421Y-106732786D01*
X102552343Y-106920408D01*
X102204629Y-107267515D01*
X102016215Y-107721266D01*
X102015786Y-108212579D01*
X101685786Y-108212579D01*
X101686214Y-107723421D01*
X101498592Y-107269343D01*
X101151485Y-106921629D01*
X100697734Y-106733215D01*
X100206421Y-106732786D01*
X99752343Y-106920408D01*
X99404629Y-107267515D01*
X99216215Y-107721266D01*
X99215786Y-108212579D01*
X98895786Y-108212579D01*
X98896214Y-107723421D01*
X98708592Y-107269343D01*
X98361485Y-106921629D01*
X97907734Y-106733215D01*
X97416421Y-106732786D01*
X96962343Y-106920408D01*
X96614629Y-107267515D01*
X96426215Y-107721266D01*
X96425786Y-108212579D01*
X91099180Y-108212579D01*
X90896488Y-108128414D01*
X89949666Y-108127588D01*
X89074600Y-108489158D01*
X88404511Y-109158078D01*
X88041414Y-110032512D01*
X88040588Y-110979334D01*
X81435653Y-110979334D01*
X81624544Y-110524436D01*
X81625455Y-109480146D01*
X81226664Y-108514999D01*
X80488885Y-107775931D01*
X79524436Y-107375456D01*
X78480146Y-107374545D01*
X77514999Y-107773336D01*
X76775931Y-108511115D01*
X76375456Y-109475564D01*
X76374545Y-110519854D01*
X74165000Y-110519854D01*
X74165000Y-105425603D01*
X103866463Y-105425603D01*
X103944840Y-105633037D01*
X104416958Y-105818463D01*
X104924099Y-105809103D01*
X105349160Y-105633037D01*
X105427537Y-105425603D01*
X104647000Y-104645066D01*
X103866463Y-105425603D01*
X74165000Y-105425603D01*
X74165000Y-104308958D01*
X103367537Y-104308958D01*
X103376897Y-104816099D01*
X103552963Y-105241160D01*
X103760397Y-105319537D01*
X104540934Y-104539000D01*
X104753066Y-104539000D01*
X105533603Y-105319537D01*
X105741037Y-105241160D01*
X105917642Y-104791501D01*
X108371779Y-104791501D01*
X108565477Y-105260286D01*
X108923827Y-105619262D01*
X109392274Y-105813778D01*
X109899501Y-105814221D01*
X110368286Y-105620523D01*
X110727262Y-105262173D01*
X110921778Y-104793726D01*
X110922221Y-104286499D01*
X110728523Y-103817714D01*
X110370173Y-103458738D01*
X109901726Y-103264222D01*
X109394499Y-103263779D01*
X108925714Y-103457477D01*
X108566738Y-103815827D01*
X108372222Y-104284274D01*
X108371779Y-104791501D01*
X105917642Y-104791501D01*
X105926463Y-104769042D01*
X105917103Y-104261901D01*
X105741037Y-103836840D01*
X105533603Y-103758463D01*
X104753066Y-104539000D01*
X104540934Y-104539000D01*
X103760397Y-103758463D01*
X103552963Y-103836840D01*
X103367537Y-104308958D01*
X74165000Y-104308958D01*
X74165000Y-103652397D01*
X103866463Y-103652397D01*
X104647000Y-104432934D01*
X105427537Y-103652397D01*
X105349160Y-103444963D01*
X104877042Y-103259537D01*
X104369901Y-103268897D01*
X103944840Y-103444963D01*
X103866463Y-103652397D01*
X74165000Y-103652397D01*
X74165000Y-99632285D01*
X87388849Y-99632285D01*
X87521779Y-99954000D01*
X87767705Y-100200356D01*
X88089188Y-100333848D01*
X88437285Y-100334151D01*
X88759000Y-100201221D01*
X88926513Y-100034000D01*
X101310474Y-100034000D01*
X101238644Y-100105705D01*
X101105152Y-100427188D01*
X101104849Y-100775285D01*
X101237779Y-101097000D01*
X101483705Y-101343356D01*
X101677916Y-101424000D01*
X91339361Y-101424000D01*
X91173295Y-101257644D01*
X90851812Y-101124152D01*
X90503715Y-101123849D01*
X90182000Y-101256779D01*
X89935644Y-101502705D01*
X89802152Y-101824188D01*
X89801849Y-102172285D01*
X89934779Y-102494000D01*
X90180705Y-102740356D01*
X90502188Y-102873848D01*
X90850285Y-102874151D01*
X91172000Y-102741221D01*
X91339513Y-102574000D01*
X121680828Y-102574000D01*
X123925413Y-104818586D01*
X124057734Y-104907000D01*
X124111957Y-104943231D01*
X124332000Y-104987000D01*
X125771149Y-104987000D01*
X125822711Y-105111789D01*
X126170381Y-105460066D01*
X126624866Y-105648785D01*
X127116975Y-105649214D01*
X127571789Y-105461289D01*
X127920066Y-105113619D01*
X128108785Y-104659134D01*
X128109214Y-104167025D01*
X127921289Y-103712211D01*
X127573619Y-103363934D01*
X127119134Y-103175215D01*
X126627025Y-103174786D01*
X126172211Y-103362711D01*
X125823934Y-103710381D01*
X125771357Y-103837000D01*
X124570173Y-103837000D01*
X122325586Y-101592414D01*
X122139043Y-101467769D01*
X121919000Y-101424000D01*
X102281920Y-101424000D01*
X102475000Y-101344221D01*
X102642513Y-101177000D01*
X122188828Y-101177000D01*
X123290413Y-102278586D01*
X123476957Y-102403231D01*
X123697000Y-102447000D01*
X125771149Y-102447000D01*
X125822711Y-102571789D01*
X126170381Y-102920066D01*
X126624866Y-103108785D01*
X127116975Y-103109214D01*
X127571789Y-102921289D01*
X127920066Y-102573619D01*
X128108785Y-102119134D01*
X128109214Y-101627025D01*
X127923268Y-101177000D01*
X133222000Y-101177000D01*
X133442043Y-101133231D01*
X133628586Y-101008586D01*
X134730173Y-99907000D01*
X145390308Y-99907000D01*
X145253460Y-99998439D01*
X144977075Y-100412079D01*
X144880021Y-100900000D01*
X144960788Y-101306039D01*
X139889828Y-106377000D01*
X127972851Y-106377000D01*
X127921289Y-106252211D01*
X127573619Y-105903934D01*
X127119134Y-105715215D01*
X126627025Y-105714786D01*
X126172211Y-105902711D01*
X125823934Y-106250381D01*
X125635215Y-106704866D01*
X125634786Y-107196975D01*
X125822711Y-107651789D01*
X126170381Y-108000066D01*
X126624866Y-108188785D01*
X127116975Y-108189214D01*
X127571789Y-108001289D01*
X127920066Y-107653619D01*
X127972643Y-107527000D01*
X140128000Y-107527000D01*
X140348043Y-107483231D01*
X140534586Y-107358586D01*
X145790651Y-102102522D01*
X146155021Y-102175000D01*
X146204979Y-102175000D01*
X146692900Y-102077946D01*
X147106540Y-101801561D01*
X147116534Y-101786603D01*
X153019463Y-101786603D01*
X153097840Y-101994037D01*
X153569958Y-102179463D01*
X154077099Y-102170103D01*
X154502160Y-101994037D01*
X154580537Y-101786603D01*
X153800000Y-101006066D01*
X153019463Y-101786603D01*
X147116534Y-101786603D01*
X147382925Y-101387921D01*
X147479979Y-100900000D01*
X147434221Y-100669958D01*
X152520537Y-100669958D01*
X152529897Y-101177099D01*
X152705963Y-101602160D01*
X152913397Y-101680537D01*
X153693934Y-100900000D01*
X153906066Y-100900000D01*
X154686603Y-101680537D01*
X154894037Y-101602160D01*
X155079463Y-101130042D01*
X155070103Y-100622901D01*
X154894037Y-100197840D01*
X154686603Y-100119463D01*
X153906066Y-100900000D01*
X153693934Y-100900000D01*
X152913397Y-100119463D01*
X152705963Y-100197840D01*
X152520537Y-100669958D01*
X147434221Y-100669958D01*
X147382925Y-100412079D01*
X147106540Y-99998439D01*
X146969692Y-99907000D01*
X153059664Y-99907000D01*
X153019463Y-100013397D01*
X153800000Y-100793934D01*
X154580537Y-100013397D01*
X154540336Y-99907000D01*
X155843828Y-99907000D01*
X158215413Y-102278586D01*
X158401957Y-102403231D01*
X158622000Y-102447000D01*
X174031149Y-102447000D01*
X174082711Y-102571789D01*
X174430381Y-102920066D01*
X174884866Y-103108785D01*
X175376975Y-103109214D01*
X175831789Y-102921289D01*
X176180066Y-102573619D01*
X176368785Y-102119134D01*
X176369214Y-101627025D01*
X176181289Y-101172211D01*
X175833619Y-100823934D01*
X175379134Y-100635215D01*
X174887025Y-100634786D01*
X174432211Y-100822711D01*
X174083934Y-101170381D01*
X174031357Y-101297000D01*
X158860173Y-101297000D01*
X156488586Y-98925414D01*
X156302043Y-98800769D01*
X156082000Y-98757000D01*
X134492000Y-98757000D01*
X134271957Y-98800769D01*
X134085413Y-98925414D01*
X132983828Y-100027000D01*
X127922814Y-100027000D01*
X128108785Y-99579134D01*
X128109214Y-99087025D01*
X127923268Y-98637000D01*
X164225828Y-98637000D01*
X165327413Y-99738586D01*
X165428250Y-99805963D01*
X165513957Y-99863231D01*
X165734000Y-99907000D01*
X174031149Y-99907000D01*
X174082711Y-100031789D01*
X174430381Y-100380066D01*
X174884866Y-100568785D01*
X175376975Y-100569214D01*
X175831789Y-100381289D01*
X176180066Y-100033619D01*
X176368785Y-99579134D01*
X176369214Y-99087025D01*
X176181289Y-98632211D01*
X175833619Y-98283934D01*
X175379134Y-98095215D01*
X174887025Y-98094786D01*
X174432211Y-98282711D01*
X174083934Y-98630381D01*
X174031357Y-98757000D01*
X165972173Y-98757000D01*
X164870586Y-97655414D01*
X164684043Y-97530769D01*
X164675255Y-97529021D01*
X164464000Y-97487000D01*
X127922814Y-97487000D01*
X127972643Y-97367000D01*
X185573228Y-97367000D01*
X185541000Y-97529021D01*
X185541000Y-97578979D01*
X185638054Y-98066900D01*
X185914439Y-98480540D01*
X186328079Y-98756925D01*
X186816000Y-98853979D01*
X187222040Y-98773212D01*
X188314414Y-99865587D01*
X188500957Y-99990231D01*
X188721000Y-100034000D01*
X214093639Y-100034000D01*
X214259705Y-100200356D01*
X214581188Y-100333848D01*
X214929285Y-100334151D01*
X215251000Y-100201221D01*
X215497356Y-99955295D01*
X215630848Y-99633812D01*
X215631151Y-99285715D01*
X215498221Y-98964000D01*
X215252295Y-98717644D01*
X214930812Y-98584152D01*
X214582715Y-98583849D01*
X214261000Y-98716779D01*
X214093487Y-98884000D01*
X188959173Y-98884000D01*
X188018522Y-97943349D01*
X188091000Y-97578979D01*
X188091000Y-97529021D01*
X187993946Y-97041100D01*
X187717561Y-96627460D01*
X187303921Y-96351075D01*
X187303544Y-96351000D01*
X191321000Y-96351000D01*
X191321000Y-96409259D01*
X190994439Y-96627460D01*
X190718054Y-97041100D01*
X190621000Y-97529021D01*
X190621000Y-97578979D01*
X190718054Y-98066900D01*
X190994439Y-98480540D01*
X191408079Y-98756925D01*
X191896000Y-98853979D01*
X192383921Y-98756925D01*
X192797561Y-98480540D01*
X193073946Y-98066900D01*
X193171000Y-97578979D01*
X193171000Y-97529021D01*
X193073946Y-97041100D01*
X192797561Y-96627460D01*
X192471000Y-96409259D01*
X192471000Y-96351000D01*
X213204639Y-96351000D01*
X213370705Y-96517356D01*
X213692188Y-96650848D01*
X214040285Y-96651151D01*
X214362000Y-96518221D01*
X214608356Y-96272295D01*
X214741848Y-95950812D01*
X214742151Y-95602715D01*
X214649109Y-95377534D01*
X217336588Y-95377534D01*
X217698158Y-96252600D01*
X218367078Y-96922689D01*
X219241512Y-97285786D01*
X220188334Y-97286612D01*
X221063400Y-96925042D01*
X221733489Y-96256122D01*
X222096586Y-95381688D01*
X222097412Y-94434866D01*
X221735842Y-93559800D01*
X221066922Y-92889711D01*
X220192488Y-92526614D01*
X219245666Y-92525788D01*
X218370600Y-92887358D01*
X217700511Y-93556278D01*
X217337414Y-94430712D01*
X217336588Y-95377534D01*
X214649109Y-95377534D01*
X214609221Y-95281000D01*
X214363295Y-95034644D01*
X214041812Y-94901152D01*
X213693715Y-94900849D01*
X213372000Y-95033779D01*
X213204487Y-95201000D01*
X175932253Y-95201000D01*
X176180066Y-94953619D01*
X176368785Y-94499134D01*
X176369214Y-94007025D01*
X176181289Y-93552211D01*
X175833619Y-93203934D01*
X175379134Y-93015215D01*
X174887025Y-93014786D01*
X174432211Y-93202711D01*
X174083934Y-93550381D01*
X173895215Y-94004866D01*
X173894786Y-94496975D01*
X174082711Y-94951789D01*
X174331488Y-95201000D01*
X171814173Y-95201000D01*
X170458586Y-93845414D01*
X170272043Y-93720769D01*
X170052000Y-93677000D01*
X127972851Y-93677000D01*
X127921289Y-93552211D01*
X127573619Y-93203934D01*
X127119134Y-93015215D01*
X126627025Y-93014786D01*
X126172211Y-93202711D01*
X125823934Y-93550381D01*
X125771357Y-93677000D01*
X107468361Y-93677000D01*
X107302295Y-93510644D01*
X106980812Y-93377152D01*
X106632715Y-93376849D01*
X106311000Y-93509779D01*
X106064644Y-93755705D01*
X105931152Y-94077188D01*
X105930849Y-94425285D01*
X106063779Y-94747000D01*
X106309705Y-94993356D01*
X106631188Y-95126848D01*
X106979285Y-95127151D01*
X107301000Y-94994221D01*
X107468513Y-94827000D01*
X125771149Y-94827000D01*
X125822711Y-94951789D01*
X126170381Y-95300066D01*
X126624866Y-95488785D01*
X127116975Y-95489214D01*
X127571789Y-95301289D01*
X127920066Y-94953619D01*
X127972643Y-94827000D01*
X169813828Y-94827000D01*
X171169413Y-96182586D01*
X171220917Y-96217000D01*
X127972851Y-96217000D01*
X127921289Y-96092211D01*
X127573619Y-95743934D01*
X127119134Y-95555215D01*
X126627025Y-95554786D01*
X126500314Y-95607142D01*
X126389586Y-95496414D01*
X126203043Y-95371769D01*
X125983000Y-95328000D01*
X100313173Y-95328000D01*
X100060946Y-95075774D01*
X100061151Y-94840715D01*
X99928221Y-94519000D01*
X99682295Y-94272644D01*
X99360812Y-94139152D01*
X99012715Y-94138849D01*
X98691000Y-94271779D01*
X98444644Y-94517705D01*
X98311152Y-94839188D01*
X98310849Y-95187285D01*
X98443779Y-95509000D01*
X98689705Y-95755356D01*
X99011188Y-95888848D01*
X99247882Y-95889054D01*
X99668414Y-96309587D01*
X99830359Y-96417795D01*
X99854957Y-96434231D01*
X100075000Y-96478000D01*
X102580474Y-96478000D01*
X102508644Y-96549705D01*
X102375152Y-96871188D01*
X102374849Y-97219285D01*
X102507779Y-97541000D01*
X102753705Y-97787356D01*
X102947916Y-97868000D01*
X98324361Y-97868000D01*
X98158295Y-97701644D01*
X97836812Y-97568152D01*
X97488715Y-97567849D01*
X97167000Y-97700779D01*
X96920644Y-97946705D01*
X96787152Y-98268188D01*
X96786849Y-98616285D01*
X96897467Y-98884000D01*
X88926361Y-98884000D01*
X88760295Y-98717644D01*
X88438812Y-98584152D01*
X88090715Y-98583849D01*
X87769000Y-98716779D01*
X87522644Y-98962705D01*
X87389152Y-99284188D01*
X87388849Y-99632285D01*
X74165000Y-99632285D01*
X74165000Y-95061334D01*
X76105588Y-95061334D01*
X76467158Y-95936400D01*
X77136078Y-96606489D01*
X78010512Y-96969586D01*
X78957334Y-96970412D01*
X79832400Y-96608842D01*
X80502489Y-95939922D01*
X80865586Y-95065488D01*
X80866412Y-94118666D01*
X80504842Y-93243600D01*
X79908785Y-92646501D01*
X83178779Y-92646501D01*
X83372477Y-93115286D01*
X83730827Y-93474262D01*
X84199274Y-93668778D01*
X84706501Y-93669221D01*
X85175286Y-93475523D01*
X85534262Y-93117173D01*
X85728778Y-92648726D01*
X85729221Y-92141499D01*
X85652978Y-91956975D01*
X173894786Y-91956975D01*
X174082711Y-92411789D01*
X174430381Y-92760066D01*
X174884866Y-92948785D01*
X175376975Y-92949214D01*
X175831789Y-92761289D01*
X176180066Y-92413619D01*
X176368785Y-91959134D01*
X176368850Y-91884501D01*
X179063779Y-91884501D01*
X179257477Y-92353286D01*
X179615827Y-92712262D01*
X180084274Y-92906778D01*
X180591501Y-92907221D01*
X181060286Y-92713523D01*
X181419262Y-92355173D01*
X181613778Y-91886726D01*
X181614221Y-91379499D01*
X181420523Y-90910714D01*
X181330570Y-90820603D01*
X186035463Y-90820603D01*
X186113840Y-91028037D01*
X186585958Y-91213463D01*
X187093099Y-91204103D01*
X187518160Y-91028037D01*
X187596537Y-90820603D01*
X191115463Y-90820603D01*
X191193840Y-91028037D01*
X191665958Y-91213463D01*
X192173099Y-91204103D01*
X192334653Y-91137185D01*
X197841000Y-91137185D01*
X197841000Y-91202815D01*
X197968502Y-91843810D01*
X198331596Y-92387219D01*
X198875005Y-92750313D01*
X199516000Y-92877815D01*
X200156995Y-92750313D01*
X200700404Y-92387219D01*
X201063498Y-91843810D01*
X201191000Y-91202815D01*
X201191000Y-91137185D01*
X201063498Y-90496190D01*
X200700404Y-89952781D01*
X200156995Y-89589687D01*
X199516000Y-89462185D01*
X198875005Y-89589687D01*
X198331596Y-89952781D01*
X197968502Y-90496190D01*
X197841000Y-91137185D01*
X192334653Y-91137185D01*
X192598160Y-91028037D01*
X192676537Y-90820603D01*
X191896000Y-90040066D01*
X191115463Y-90820603D01*
X187596537Y-90820603D01*
X186816000Y-90040066D01*
X186035463Y-90820603D01*
X181330570Y-90820603D01*
X181062173Y-90551738D01*
X180593726Y-90357222D01*
X180086499Y-90356779D01*
X179617714Y-90550477D01*
X179258738Y-90908827D01*
X179064222Y-91377274D01*
X179063779Y-91884501D01*
X176368850Y-91884501D01*
X176369214Y-91467025D01*
X176181289Y-91012211D01*
X175833619Y-90663934D01*
X175379134Y-90475215D01*
X174887025Y-90474786D01*
X174432211Y-90662711D01*
X174083934Y-91010381D01*
X173895215Y-91464866D01*
X173894786Y-91956975D01*
X85652978Y-91956975D01*
X85535523Y-91672714D01*
X85177173Y-91313738D01*
X84708726Y-91119222D01*
X84201499Y-91118779D01*
X83732714Y-91312477D01*
X83373738Y-91670827D01*
X83179222Y-92139274D01*
X83178779Y-92646501D01*
X79908785Y-92646501D01*
X79835922Y-92573511D01*
X78961488Y-92210414D01*
X78014666Y-92209588D01*
X77139600Y-92571158D01*
X76469511Y-93240078D01*
X76106414Y-94114512D01*
X76105588Y-95061334D01*
X74165000Y-95061334D01*
X74165000Y-87673750D01*
X79791000Y-87673750D01*
X79791000Y-88334483D01*
X79863314Y-88509066D01*
X79996934Y-88642685D01*
X80171516Y-88715000D01*
X80832250Y-88715000D01*
X80951000Y-88596250D01*
X80951000Y-87555000D01*
X81101000Y-87555000D01*
X81101000Y-88596250D01*
X81219750Y-88715000D01*
X81880484Y-88715000D01*
X82055066Y-88642685D01*
X82188686Y-88509066D01*
X82261000Y-88334483D01*
X82261000Y-88280603D01*
X83673463Y-88280603D01*
X83751840Y-88488037D01*
X84223958Y-88673463D01*
X84731099Y-88664103D01*
X85156160Y-88488037D01*
X85234537Y-88280603D01*
X84454000Y-87500066D01*
X83673463Y-88280603D01*
X82261000Y-88280603D01*
X82261000Y-87673750D01*
X82142250Y-87555000D01*
X81101000Y-87555000D01*
X80951000Y-87555000D01*
X79909750Y-87555000D01*
X79791000Y-87673750D01*
X74165000Y-87673750D01*
X74165000Y-86324579D01*
X77250786Y-86324579D01*
X77438408Y-86778657D01*
X77785515Y-87126371D01*
X78239266Y-87314785D01*
X78730579Y-87315214D01*
X79184657Y-87127592D01*
X79532371Y-86780485D01*
X79596719Y-86625517D01*
X79791000Y-86625517D01*
X79791000Y-87286250D01*
X79909750Y-87405000D01*
X80951000Y-87405000D01*
X80951000Y-86363750D01*
X81101000Y-86363750D01*
X81101000Y-87405000D01*
X82142250Y-87405000D01*
X82261000Y-87286250D01*
X82261000Y-87163958D01*
X83174537Y-87163958D01*
X83183897Y-87671099D01*
X83359963Y-88096160D01*
X83567397Y-88174537D01*
X84347934Y-87394000D01*
X84560066Y-87394000D01*
X85340603Y-88174537D01*
X85548037Y-88096160D01*
X85733463Y-87624042D01*
X85724103Y-87116901D01*
X85548037Y-86691840D01*
X85340603Y-86613463D01*
X84560066Y-87394000D01*
X84347934Y-87394000D01*
X83567397Y-86613463D01*
X83359963Y-86691840D01*
X83174537Y-87163958D01*
X82261000Y-87163958D01*
X82261000Y-86625517D01*
X82212074Y-86507397D01*
X83673463Y-86507397D01*
X84454000Y-87287934D01*
X85234537Y-86507397D01*
X85156160Y-86299963D01*
X84684042Y-86114537D01*
X84176901Y-86123897D01*
X83751840Y-86299963D01*
X83673463Y-86507397D01*
X82212074Y-86507397D01*
X82188686Y-86450934D01*
X82055066Y-86317315D01*
X81880484Y-86245000D01*
X81219750Y-86245000D01*
X81101000Y-86363750D01*
X80951000Y-86363750D01*
X80832250Y-86245000D01*
X80171516Y-86245000D01*
X79996934Y-86317315D01*
X79863314Y-86450934D01*
X79791000Y-86625517D01*
X79596719Y-86625517D01*
X79720785Y-86326734D01*
X79721214Y-85835421D01*
X79533592Y-85381343D01*
X79186485Y-85033629D01*
X78947947Y-84934579D01*
X79790786Y-84934579D01*
X79978408Y-85388657D01*
X80325515Y-85736371D01*
X80779266Y-85924785D01*
X81270579Y-85925214D01*
X81724657Y-85737592D01*
X82072371Y-85390485D01*
X82161848Y-85175000D01*
X85739828Y-85175000D01*
X91159413Y-90594586D01*
X91338932Y-90714537D01*
X91345957Y-90719231D01*
X91566000Y-90763000D01*
X125771149Y-90763000D01*
X125822711Y-90887789D01*
X126170381Y-91236066D01*
X126624866Y-91424785D01*
X127116975Y-91425214D01*
X127571789Y-91237289D01*
X127920066Y-90889619D01*
X128108785Y-90435134D01*
X128109214Y-89943025D01*
X127921289Y-89488211D01*
X127850178Y-89416975D01*
X173894786Y-89416975D01*
X174082711Y-89871789D01*
X174430381Y-90220066D01*
X174884866Y-90408785D01*
X175376975Y-90409214D01*
X175831789Y-90221289D01*
X176180066Y-89873619D01*
X176250515Y-89703958D01*
X185536537Y-89703958D01*
X185545897Y-90211099D01*
X185721963Y-90636160D01*
X185929397Y-90714537D01*
X186709934Y-89934000D01*
X186922066Y-89934000D01*
X187702603Y-90714537D01*
X187910037Y-90636160D01*
X188095463Y-90164042D01*
X188086972Y-89703958D01*
X190616537Y-89703958D01*
X190625897Y-90211099D01*
X190801963Y-90636160D01*
X191009397Y-90714537D01*
X191789934Y-89934000D01*
X192002066Y-89934000D01*
X192782603Y-90714537D01*
X192990037Y-90636160D01*
X193175463Y-90164042D01*
X193166103Y-89656901D01*
X192990037Y-89231840D01*
X192782603Y-89153463D01*
X192002066Y-89934000D01*
X191789934Y-89934000D01*
X191009397Y-89153463D01*
X190801963Y-89231840D01*
X190616537Y-89703958D01*
X188086972Y-89703958D01*
X188086103Y-89656901D01*
X187910037Y-89231840D01*
X187702603Y-89153463D01*
X186922066Y-89934000D01*
X186709934Y-89934000D01*
X185929397Y-89153463D01*
X185721963Y-89231840D01*
X185536537Y-89703958D01*
X176250515Y-89703958D01*
X176368785Y-89419134D01*
X176369109Y-89047397D01*
X186035463Y-89047397D01*
X186816000Y-89827934D01*
X187596537Y-89047397D01*
X191115463Y-89047397D01*
X191896000Y-89827934D01*
X192676537Y-89047397D01*
X192598160Y-88839963D01*
X192126042Y-88654537D01*
X191618901Y-88663897D01*
X191193840Y-88839963D01*
X191115463Y-89047397D01*
X187596537Y-89047397D01*
X187518160Y-88839963D01*
X187046042Y-88654537D01*
X186538901Y-88663897D01*
X186113840Y-88839963D01*
X186035463Y-89047397D01*
X176369109Y-89047397D01*
X176369214Y-88927025D01*
X176181289Y-88472211D01*
X175833619Y-88123934D01*
X175379134Y-87935215D01*
X174887025Y-87934786D01*
X174432211Y-88122711D01*
X174083934Y-88470381D01*
X173895215Y-88924866D01*
X173894786Y-89416975D01*
X127850178Y-89416975D01*
X127573619Y-89139934D01*
X127119134Y-88951215D01*
X126627025Y-88950786D01*
X126172211Y-89138711D01*
X125823934Y-89486381D01*
X125771357Y-89613000D01*
X91804173Y-89613000D01*
X86384586Y-84193414D01*
X86198043Y-84068769D01*
X85978000Y-84025000D01*
X82087499Y-84025000D01*
X82073592Y-83991343D01*
X81726485Y-83643629D01*
X81272734Y-83455215D01*
X80781421Y-83454786D01*
X80327343Y-83642408D01*
X79979629Y-83989515D01*
X79791215Y-84443266D01*
X79790786Y-84934579D01*
X78947947Y-84934579D01*
X78732734Y-84845215D01*
X78241421Y-84844786D01*
X77787343Y-85032408D01*
X77439629Y-85379515D01*
X77251215Y-85833266D01*
X77250786Y-86324579D01*
X74165000Y-86324579D01*
X74165000Y-83534579D01*
X77250786Y-83534579D01*
X77438408Y-83988657D01*
X77785515Y-84336371D01*
X78239266Y-84524785D01*
X78730579Y-84525214D01*
X79184657Y-84337592D01*
X79532371Y-83990485D01*
X79720785Y-83536734D01*
X79721214Y-83045421D01*
X79533592Y-82591343D01*
X79186485Y-82243629D01*
X78732734Y-82055215D01*
X78241421Y-82054786D01*
X77787343Y-82242408D01*
X77439629Y-82589515D01*
X77251215Y-83043266D01*
X77250786Y-83534579D01*
X74165000Y-83534579D01*
X74165000Y-80864579D01*
X77250786Y-80864579D01*
X77438408Y-81318657D01*
X77785515Y-81666371D01*
X78239266Y-81854785D01*
X78730579Y-81855214D01*
X79184657Y-81667592D01*
X79532371Y-81320485D01*
X79584477Y-81195000D01*
X80104362Y-81195000D01*
X79979629Y-81319515D01*
X79791215Y-81773266D01*
X79790786Y-82264579D01*
X79978408Y-82718657D01*
X80325515Y-83066371D01*
X80779266Y-83254785D01*
X81270579Y-83255214D01*
X81724657Y-83067592D01*
X82072371Y-82720485D01*
X82124477Y-82595000D01*
X86207828Y-82595000D01*
X91667414Y-88054586D01*
X91853957Y-88179231D01*
X92074000Y-88223000D01*
X125771149Y-88223000D01*
X125822711Y-88347789D01*
X126170381Y-88696066D01*
X126624866Y-88884785D01*
X127116975Y-88885214D01*
X127571789Y-88697289D01*
X127920066Y-88349619D01*
X128108785Y-87895134D01*
X128109137Y-87491149D01*
X174378917Y-87491149D01*
X174452654Y-87694638D01*
X174911020Y-87873724D01*
X175403028Y-87863769D01*
X175811346Y-87694638D01*
X175875134Y-87518603D01*
X179558463Y-87518603D01*
X179636840Y-87726037D01*
X180108958Y-87911463D01*
X180616099Y-87902103D01*
X181041160Y-87726037D01*
X181119537Y-87518603D01*
X180339000Y-86738066D01*
X179558463Y-87518603D01*
X175875134Y-87518603D01*
X175885083Y-87491149D01*
X175132000Y-86738066D01*
X174378917Y-87491149D01*
X128109137Y-87491149D01*
X128109214Y-87403025D01*
X127921289Y-86948211D01*
X127573619Y-86599934D01*
X127119134Y-86411215D01*
X126627025Y-86410786D01*
X126172211Y-86598711D01*
X125823934Y-86946381D01*
X125771357Y-87073000D01*
X92312172Y-87073000D01*
X86852586Y-81613414D01*
X86666043Y-81488769D01*
X86446000Y-81445000D01*
X82124686Y-81445000D01*
X82073592Y-81321343D01*
X81947470Y-81195000D01*
X89971714Y-81195000D01*
X90180705Y-81404356D01*
X90502188Y-81537848D01*
X90850285Y-81538151D01*
X91172000Y-81405221D01*
X91418356Y-81159295D01*
X91551848Y-80837812D01*
X91552151Y-80489715D01*
X91419221Y-80168000D01*
X91173295Y-79921644D01*
X90851812Y-79788152D01*
X90503715Y-79787849D01*
X90182000Y-79920779D01*
X90057562Y-80045000D01*
X81947638Y-80045000D01*
X82072371Y-79920485D01*
X82260785Y-79466734D01*
X82261214Y-78975421D01*
X82171378Y-78758000D01*
X97886021Y-78758000D01*
X97983075Y-79245921D01*
X98259460Y-79659561D01*
X98673100Y-79935946D01*
X99135884Y-80028000D01*
X98673100Y-80120054D01*
X98259460Y-80396439D01*
X97983075Y-80810079D01*
X97886021Y-81298000D01*
X97983075Y-81785921D01*
X98259460Y-82199561D01*
X98673100Y-82475946D01*
X99135884Y-82568000D01*
X98673100Y-82660054D01*
X98259460Y-82936439D01*
X97983075Y-83350079D01*
X97886021Y-83838000D01*
X97983075Y-84325921D01*
X98259460Y-84739561D01*
X98673100Y-85015946D01*
X99161021Y-85113000D01*
X99210979Y-85113000D01*
X99698900Y-85015946D01*
X100112540Y-84739561D01*
X100388925Y-84325921D01*
X100485979Y-83838000D01*
X100388925Y-83350079D01*
X100112540Y-82936439D01*
X99698900Y-82660054D01*
X99236116Y-82568000D01*
X99698900Y-82475946D01*
X100112540Y-82199561D01*
X100330741Y-81873000D01*
X102488000Y-81873000D01*
X102708043Y-81829231D01*
X102894586Y-81704586D01*
X103148586Y-81450587D01*
X103148588Y-81450584D01*
X103996172Y-80603000D01*
X105741441Y-80603000D01*
X105603075Y-80810079D01*
X105506021Y-81298000D01*
X105603075Y-81785921D01*
X105879460Y-82199561D01*
X106293100Y-82475946D01*
X106755884Y-82568000D01*
X106293100Y-82660054D01*
X105879460Y-82936439D01*
X105603075Y-83350079D01*
X105506021Y-83838000D01*
X105603075Y-84325921D01*
X105879460Y-84739561D01*
X106293100Y-85015946D01*
X106781021Y-85113000D01*
X106830979Y-85113000D01*
X107318900Y-85015946D01*
X107732540Y-84739561D01*
X108008925Y-84325921D01*
X108105979Y-83838000D01*
X108008925Y-83350079D01*
X107732540Y-82936439D01*
X107318900Y-82660054D01*
X106856116Y-82568000D01*
X107318900Y-82475946D01*
X107732540Y-82199561D01*
X108008925Y-81785921D01*
X108105979Y-81298000D01*
X108008925Y-80810079D01*
X107870559Y-80603000D01*
X112521000Y-80603000D01*
X112741043Y-80559231D01*
X112927586Y-80434586D01*
X113089197Y-80272975D01*
X125634786Y-80272975D01*
X125822711Y-80727789D01*
X126170381Y-81076066D01*
X126624866Y-81264785D01*
X127116975Y-81265214D01*
X127571789Y-81077289D01*
X127920066Y-80729619D01*
X127972643Y-80603000D01*
X165749827Y-80603000D01*
X165835413Y-80688586D01*
X165979386Y-80784786D01*
X166021957Y-80813231D01*
X166242000Y-80857000D01*
X174081186Y-80857000D01*
X173895215Y-81304866D01*
X173894786Y-81796975D01*
X174080732Y-82247000D01*
X133587172Y-82247000D01*
X133501586Y-82161414D01*
X133315043Y-82036769D01*
X133095000Y-81993000D01*
X127972851Y-81993000D01*
X127921289Y-81868211D01*
X127573619Y-81519934D01*
X127119134Y-81331215D01*
X126627025Y-81330786D01*
X126172211Y-81518711D01*
X125823934Y-81866381D01*
X125635215Y-82320866D01*
X125634786Y-82812975D01*
X125822711Y-83267789D01*
X126170381Y-83616066D01*
X126624866Y-83804785D01*
X127116975Y-83805214D01*
X127571789Y-83617289D01*
X127920066Y-83269619D01*
X127972643Y-83143000D01*
X132856827Y-83143000D01*
X132942413Y-83228586D01*
X133124240Y-83350079D01*
X133128957Y-83353231D01*
X133349000Y-83397000D01*
X174081186Y-83397000D01*
X173895215Y-83844866D01*
X173894786Y-84336975D01*
X174080732Y-84787000D01*
X132543740Y-84787000D01*
X132536786Y-84778039D01*
X132485586Y-84701414D01*
X132468409Y-84689937D01*
X132455741Y-84673614D01*
X132375676Y-84627974D01*
X132299043Y-84576769D01*
X132278777Y-84572738D01*
X132260831Y-84562508D01*
X132169397Y-84550981D01*
X132079000Y-84533000D01*
X127972851Y-84533000D01*
X127921289Y-84408211D01*
X127573619Y-84059934D01*
X127119134Y-83871215D01*
X126627025Y-83870786D01*
X126172211Y-84058711D01*
X125823934Y-84406381D01*
X125635215Y-84860866D01*
X125634786Y-85352975D01*
X125822711Y-85807789D01*
X126170381Y-86156066D01*
X126624866Y-86344785D01*
X127116975Y-86345214D01*
X127571789Y-86157289D01*
X127920066Y-85809619D01*
X127972643Y-85683000D01*
X131741260Y-85683000D01*
X131748211Y-85691956D01*
X131799414Y-85768586D01*
X131816591Y-85780063D01*
X131829259Y-85796386D01*
X131909328Y-85842029D01*
X131985957Y-85893231D01*
X132006221Y-85897262D01*
X132024169Y-85907493D01*
X132115611Y-85919021D01*
X132206000Y-85937000D01*
X174112562Y-85937000D01*
X174069362Y-85952654D01*
X173890276Y-86411020D01*
X173900231Y-86903028D01*
X174069362Y-87311346D01*
X174272851Y-87385083D01*
X175025934Y-86632000D01*
X175011792Y-86617858D01*
X175117858Y-86511792D01*
X175132000Y-86525934D01*
X175146143Y-86511792D01*
X175252209Y-86617858D01*
X175238066Y-86632000D01*
X175991149Y-87385083D01*
X176194638Y-87311346D01*
X176373724Y-86852980D01*
X176364599Y-86401958D01*
X179059537Y-86401958D01*
X179068897Y-86909099D01*
X179244963Y-87334160D01*
X179452397Y-87412537D01*
X180232934Y-86632000D01*
X180445066Y-86632000D01*
X181225603Y-87412537D01*
X181433037Y-87334160D01*
X181618463Y-86862042D01*
X181609103Y-86354901D01*
X181433037Y-85929840D01*
X181225603Y-85851463D01*
X180445066Y-86632000D01*
X180232934Y-86632000D01*
X179452397Y-85851463D01*
X179244963Y-85929840D01*
X179059537Y-86401958D01*
X176364599Y-86401958D01*
X176363769Y-86360972D01*
X176194638Y-85952654D01*
X176151438Y-85937000D01*
X177672000Y-85937000D01*
X177892043Y-85893231D01*
X178078586Y-85768586D01*
X178101775Y-85745397D01*
X179558463Y-85745397D01*
X180339000Y-86525934D01*
X181119537Y-85745397D01*
X181041160Y-85537963D01*
X180569042Y-85352537D01*
X180061901Y-85361897D01*
X179636840Y-85537963D01*
X179558463Y-85745397D01*
X178101775Y-85745397D01*
X178735673Y-85111500D01*
X210503301Y-85111500D01*
X210745126Y-85473416D01*
X211174986Y-85760640D01*
X211405539Y-85806500D01*
X211174986Y-85852360D01*
X210745126Y-86139584D01*
X210457902Y-86569444D01*
X210357042Y-87076500D01*
X210457902Y-87583556D01*
X210745126Y-88013416D01*
X211174986Y-88300640D01*
X211682042Y-88401500D01*
X211733958Y-88401500D01*
X212241014Y-88300640D01*
X212670874Y-88013416D01*
X212773416Y-87859950D01*
X215942000Y-87859950D01*
X215942000Y-88520683D01*
X216014314Y-88695266D01*
X216147934Y-88828885D01*
X216322516Y-88901200D01*
X216983250Y-88901200D01*
X217102000Y-88782450D01*
X217102000Y-87741200D01*
X217252000Y-87741200D01*
X217252000Y-88782450D01*
X217370750Y-88901200D01*
X218031484Y-88901200D01*
X218206066Y-88828885D01*
X218339686Y-88695266D01*
X218412000Y-88520683D01*
X218412000Y-87859950D01*
X218293250Y-87741200D01*
X217252000Y-87741200D01*
X217102000Y-87741200D01*
X216060750Y-87741200D01*
X215942000Y-87859950D01*
X212773416Y-87859950D01*
X212912699Y-87651500D01*
X212914500Y-87651500D01*
X213134543Y-87607731D01*
X213321086Y-87483086D01*
X213638587Y-87165586D01*
X213763231Y-86979043D01*
X213796514Y-86811717D01*
X215942000Y-86811717D01*
X215942000Y-87472450D01*
X216060750Y-87591200D01*
X217102000Y-87591200D01*
X217102000Y-86549950D01*
X217252000Y-86549950D01*
X217252000Y-87591200D01*
X218293250Y-87591200D01*
X218412000Y-87472450D01*
X218412000Y-86811717D01*
X218339686Y-86637134D01*
X218213331Y-86510779D01*
X218481786Y-86510779D01*
X218669408Y-86964857D01*
X219016515Y-87312571D01*
X219470266Y-87500985D01*
X219961579Y-87501414D01*
X220415657Y-87313792D01*
X220763371Y-86966685D01*
X220951785Y-86512934D01*
X220952214Y-86021621D01*
X220764592Y-85567543D01*
X220417485Y-85219829D01*
X219963734Y-85031415D01*
X219472421Y-85030986D01*
X219018343Y-85218608D01*
X218670629Y-85565715D01*
X218482215Y-86019466D01*
X218481786Y-86510779D01*
X218213331Y-86510779D01*
X218206066Y-86503515D01*
X218031484Y-86431200D01*
X217370750Y-86431200D01*
X217252000Y-86549950D01*
X217102000Y-86549950D01*
X216983250Y-86431200D01*
X216322516Y-86431200D01*
X216147934Y-86503515D01*
X216014314Y-86637134D01*
X215942000Y-86811717D01*
X213796514Y-86811717D01*
X213807000Y-86759000D01*
X213807000Y-85120779D01*
X215941786Y-85120779D01*
X216129408Y-85574857D01*
X216476515Y-85922571D01*
X216930266Y-86110985D01*
X217421579Y-86111414D01*
X217875657Y-85923792D01*
X218223371Y-85576685D01*
X218411785Y-85122934D01*
X218412214Y-84631621D01*
X218224592Y-84177543D01*
X217877485Y-83829829D01*
X217614864Y-83720779D01*
X218481786Y-83720779D01*
X218669408Y-84174857D01*
X219016515Y-84522571D01*
X219470266Y-84710985D01*
X219961579Y-84711414D01*
X220415657Y-84523792D01*
X220763371Y-84176685D01*
X220951785Y-83722934D01*
X220952214Y-83231621D01*
X220764592Y-82777543D01*
X220417485Y-82429829D01*
X219963734Y-82241415D01*
X219472421Y-82240986D01*
X219018343Y-82428608D01*
X218670629Y-82775715D01*
X218482215Y-83229466D01*
X218481786Y-83720779D01*
X217614864Y-83720779D01*
X217423734Y-83641415D01*
X216932421Y-83640986D01*
X216478343Y-83828608D01*
X216130629Y-84175715D01*
X215942215Y-84629466D01*
X215941786Y-85120779D01*
X213807000Y-85120779D01*
X213807000Y-83711000D01*
X213763231Y-83490957D01*
X213739062Y-83454786D01*
X213638586Y-83304413D01*
X213257586Y-82923414D01*
X213071043Y-82798769D01*
X212851000Y-82755000D01*
X212790088Y-82755000D01*
X212958098Y-82503556D01*
X212994454Y-82320779D01*
X215941786Y-82320779D01*
X216129408Y-82774857D01*
X216476515Y-83122571D01*
X216930266Y-83310985D01*
X217421579Y-83311414D01*
X217875657Y-83123792D01*
X218223371Y-82776685D01*
X218411785Y-82322934D01*
X218412214Y-81831621D01*
X218224592Y-81377543D01*
X217898399Y-81050779D01*
X218481786Y-81050779D01*
X218669408Y-81504857D01*
X219016515Y-81852571D01*
X219470266Y-82040985D01*
X219961579Y-82041414D01*
X220415657Y-81853792D01*
X220763371Y-81506685D01*
X220951785Y-81052934D01*
X220952214Y-80561621D01*
X220764592Y-80107543D01*
X220417485Y-79759829D01*
X219963734Y-79571415D01*
X219472421Y-79570986D01*
X219018343Y-79758608D01*
X218670629Y-80105715D01*
X218482215Y-80559466D01*
X218481786Y-81050779D01*
X217898399Y-81050779D01*
X217877485Y-81029829D01*
X217423734Y-80841415D01*
X216932421Y-80840986D01*
X216478343Y-81028608D01*
X216130629Y-81375715D01*
X215942215Y-81829466D01*
X215941786Y-82320779D01*
X212994454Y-82320779D01*
X213058958Y-81996500D01*
X212958098Y-81489444D01*
X212670874Y-81059584D01*
X212241014Y-80772360D01*
X212010461Y-80726500D01*
X212241014Y-80680640D01*
X212670874Y-80393416D01*
X212958098Y-79963556D01*
X213018324Y-79660779D01*
X215941786Y-79660779D01*
X216129408Y-80114857D01*
X216476515Y-80462571D01*
X216930266Y-80650985D01*
X217421579Y-80651414D01*
X217875657Y-80463792D01*
X218223371Y-80116685D01*
X218411785Y-79662934D01*
X218412214Y-79171621D01*
X218224592Y-78717543D01*
X217877485Y-78369829D01*
X217614864Y-78260779D01*
X218481786Y-78260779D01*
X218669408Y-78714857D01*
X219016515Y-79062571D01*
X219470266Y-79250985D01*
X219961579Y-79251414D01*
X220415657Y-79063792D01*
X220763371Y-78716685D01*
X220951785Y-78262934D01*
X220952214Y-77771621D01*
X220764592Y-77317543D01*
X220417485Y-76969829D01*
X219963734Y-76781415D01*
X219472421Y-76780986D01*
X219018343Y-76968608D01*
X218670629Y-77315715D01*
X218482215Y-77769466D01*
X218481786Y-78260779D01*
X217614864Y-78260779D01*
X217423734Y-78181415D01*
X216932421Y-78180986D01*
X216478343Y-78368608D01*
X216130629Y-78715715D01*
X215942215Y-79169466D01*
X215941786Y-79660779D01*
X213018324Y-79660779D01*
X213058958Y-79456500D01*
X212958098Y-78949444D01*
X212670874Y-78519584D01*
X212254693Y-78241500D01*
X212652483Y-78241500D01*
X212827066Y-78169186D01*
X212960685Y-78035566D01*
X213033000Y-77860984D01*
X213033000Y-77110250D01*
X212914250Y-76991500D01*
X211783000Y-76991500D01*
X211783000Y-77011500D01*
X211633000Y-77011500D01*
X211633000Y-76991500D01*
X210501750Y-76991500D01*
X210383000Y-77110250D01*
X210383000Y-77860984D01*
X210455315Y-78035566D01*
X210588934Y-78169186D01*
X210763517Y-78241500D01*
X211161307Y-78241500D01*
X210745126Y-78519584D01*
X210457902Y-78949444D01*
X210357042Y-79456500D01*
X210457902Y-79963556D01*
X210745126Y-80393416D01*
X211174986Y-80680640D01*
X211405539Y-80726500D01*
X211174986Y-80772360D01*
X210745126Y-81059584D01*
X210503301Y-81421500D01*
X206929673Y-81421500D01*
X205383586Y-79875414D01*
X205197043Y-79750769D01*
X204977000Y-79707000D01*
X176182814Y-79707000D01*
X176368785Y-79259134D01*
X176369214Y-78767025D01*
X176181289Y-78312211D01*
X175833619Y-77963934D01*
X175379134Y-77775215D01*
X174887025Y-77774786D01*
X174432211Y-77962711D01*
X174083934Y-78310381D01*
X173895215Y-78764866D01*
X173894786Y-79256975D01*
X174080732Y-79707000D01*
X166480172Y-79707000D01*
X166394586Y-79621414D01*
X166208043Y-79496769D01*
X165988000Y-79453000D01*
X127972851Y-79453000D01*
X127921289Y-79328211D01*
X127573619Y-78979934D01*
X127119134Y-78791215D01*
X126627025Y-78790786D01*
X126172211Y-78978711D01*
X125823934Y-79326381D01*
X125635215Y-79780866D01*
X125634786Y-80272975D01*
X113089197Y-80272975D01*
X115299173Y-78063000D01*
X125771149Y-78063000D01*
X125822711Y-78187789D01*
X126170381Y-78536066D01*
X126624866Y-78724785D01*
X127116975Y-78725214D01*
X127571789Y-78537289D01*
X127920066Y-78189619D01*
X128108785Y-77735134D01*
X128109214Y-77243025D01*
X127921289Y-76788211D01*
X127850178Y-76716975D01*
X173894786Y-76716975D01*
X174082711Y-77171789D01*
X174430381Y-77520066D01*
X174884866Y-77708785D01*
X175376975Y-77709214D01*
X175831789Y-77521289D01*
X176180066Y-77173619D01*
X176309968Y-76860779D01*
X215941786Y-76860779D01*
X216129408Y-77314857D01*
X216476515Y-77662571D01*
X216930266Y-77850985D01*
X217421579Y-77851414D01*
X217875657Y-77663792D01*
X218223371Y-77316685D01*
X218411785Y-76862934D01*
X218412214Y-76371621D01*
X218224592Y-75917543D01*
X217877485Y-75569829D01*
X217423734Y-75381415D01*
X216932421Y-75380986D01*
X216478343Y-75568608D01*
X216130629Y-75915715D01*
X215942215Y-76369466D01*
X215941786Y-76860779D01*
X176309968Y-76860779D01*
X176368785Y-76719134D01*
X176369214Y-76227025D01*
X176263847Y-75972016D01*
X210383000Y-75972016D01*
X210383000Y-76722750D01*
X210501750Y-76841500D01*
X211633000Y-76841500D01*
X211633000Y-75710250D01*
X211783000Y-75710250D01*
X211783000Y-76841500D01*
X212914250Y-76841500D01*
X213033000Y-76722750D01*
X213033000Y-75972016D01*
X212960685Y-75797434D01*
X212827066Y-75663814D01*
X212652483Y-75591500D01*
X211901750Y-75591500D01*
X211783000Y-75710250D01*
X211633000Y-75710250D01*
X211514250Y-75591500D01*
X210763517Y-75591500D01*
X210588934Y-75663814D01*
X210455315Y-75797434D01*
X210383000Y-75972016D01*
X176263847Y-75972016D01*
X176181289Y-75772211D01*
X175833619Y-75423934D01*
X175379134Y-75235215D01*
X174887025Y-75234786D01*
X174432211Y-75422711D01*
X174083934Y-75770381D01*
X173895215Y-76224866D01*
X173894786Y-76716975D01*
X127850178Y-76716975D01*
X127573619Y-76439934D01*
X127119134Y-76251215D01*
X126627025Y-76250786D01*
X126172211Y-76438711D01*
X125823934Y-76786381D01*
X125771357Y-76913000D01*
X115061000Y-76913000D01*
X114840957Y-76956769D01*
X114654413Y-77081414D01*
X112282828Y-79453000D01*
X107870559Y-79453000D01*
X108008925Y-79245921D01*
X108105979Y-78758000D01*
X108008925Y-78270079D01*
X107732540Y-77856439D01*
X107318900Y-77580054D01*
X106856116Y-77488000D01*
X107318900Y-77395946D01*
X107732540Y-77119561D01*
X108008925Y-76705921D01*
X108105979Y-76218000D01*
X108008925Y-75730079D01*
X107732540Y-75316439D01*
X107547763Y-75192975D01*
X125634786Y-75192975D01*
X125822711Y-75647789D01*
X126170381Y-75996066D01*
X126624866Y-76184785D01*
X127116975Y-76185214D01*
X127571789Y-75997289D01*
X127920066Y-75649619D01*
X128108785Y-75195134D01*
X128109214Y-74703025D01*
X127921289Y-74248211D01*
X127730015Y-74056603D01*
X186289463Y-74056603D01*
X186367840Y-74264037D01*
X186839958Y-74449463D01*
X187347099Y-74440103D01*
X187772160Y-74264037D01*
X187850537Y-74056603D01*
X190099463Y-74056603D01*
X190177840Y-74264037D01*
X190649958Y-74449463D01*
X191157099Y-74440103D01*
X191582160Y-74264037D01*
X191660537Y-74056603D01*
X190880000Y-73276066D01*
X190099463Y-74056603D01*
X187850537Y-74056603D01*
X187070000Y-73276066D01*
X186289463Y-74056603D01*
X127730015Y-74056603D01*
X127573619Y-73899934D01*
X127119134Y-73711215D01*
X126627025Y-73710786D01*
X126172211Y-73898711D01*
X125823934Y-74246381D01*
X125635215Y-74700866D01*
X125634786Y-75192975D01*
X107547763Y-75192975D01*
X107318900Y-75040054D01*
X106830979Y-74943000D01*
X106781021Y-74943000D01*
X106293100Y-75040054D01*
X105879460Y-75316439D01*
X105603075Y-75730079D01*
X105506021Y-76218000D01*
X105603075Y-76705921D01*
X105879460Y-77119561D01*
X106293100Y-77395946D01*
X106755884Y-77488000D01*
X106293100Y-77580054D01*
X105879460Y-77856439D01*
X105661259Y-78183000D01*
X102769361Y-78183000D01*
X102603295Y-78016644D01*
X102281812Y-77883152D01*
X101933715Y-77882849D01*
X101612000Y-78015779D01*
X101365644Y-78261705D01*
X101232152Y-78583188D01*
X101231849Y-78931285D01*
X101364779Y-79253000D01*
X101610705Y-79499356D01*
X101932188Y-79632848D01*
X102280285Y-79633151D01*
X102602000Y-79500221D01*
X102769513Y-79333000D01*
X105661259Y-79333000D01*
X105741441Y-79453000D01*
X103758000Y-79453000D01*
X103537957Y-79496769D01*
X103351414Y-79621414D01*
X102335416Y-80637412D01*
X102335413Y-80637414D01*
X102249827Y-80723000D01*
X100330741Y-80723000D01*
X100112540Y-80396439D01*
X99698900Y-80120054D01*
X99236116Y-80028000D01*
X99698900Y-79935946D01*
X100112540Y-79659561D01*
X100388925Y-79245921D01*
X100485979Y-78758000D01*
X100388925Y-78270079D01*
X100112540Y-77856439D01*
X99698900Y-77580054D01*
X99261002Y-77492950D01*
X99261002Y-77374252D01*
X99379750Y-77493000D01*
X100080483Y-77493000D01*
X100255066Y-77420686D01*
X100388685Y-77287066D01*
X100461000Y-77112484D01*
X100461000Y-76411750D01*
X100342250Y-76293000D01*
X99261000Y-76293000D01*
X99261000Y-76313000D01*
X99111000Y-76313000D01*
X99111000Y-76293000D01*
X98029750Y-76293000D01*
X97911000Y-76411750D01*
X97911000Y-77112484D01*
X97983315Y-77287066D01*
X98116934Y-77420686D01*
X98291517Y-77493000D01*
X98992250Y-77493000D01*
X99110998Y-77374252D01*
X99110998Y-77492950D01*
X98673100Y-77580054D01*
X98259460Y-77856439D01*
X97983075Y-78270079D01*
X97886021Y-78758000D01*
X82171378Y-78758000D01*
X82073592Y-78521343D01*
X81726485Y-78173629D01*
X81272734Y-77985215D01*
X80781421Y-77984786D01*
X80327343Y-78172408D01*
X79979629Y-78519515D01*
X79791215Y-78973266D01*
X79790786Y-79464579D01*
X79978408Y-79918657D01*
X80104530Y-80045000D01*
X79584686Y-80045000D01*
X79533592Y-79921343D01*
X79186485Y-79573629D01*
X78732734Y-79385215D01*
X78241421Y-79384786D01*
X77787343Y-79572408D01*
X77439629Y-79919515D01*
X77251215Y-80373266D01*
X77250786Y-80864579D01*
X74165000Y-80864579D01*
X74165000Y-78074579D01*
X77250786Y-78074579D01*
X77438408Y-78528657D01*
X77785515Y-78876371D01*
X78239266Y-79064785D01*
X78730579Y-79065214D01*
X79184657Y-78877592D01*
X79532371Y-78530485D01*
X79720785Y-78076734D01*
X79721214Y-77585421D01*
X79533592Y-77131343D01*
X79186485Y-76783629D01*
X78923864Y-76674579D01*
X79790786Y-76674579D01*
X79978408Y-77128657D01*
X80325515Y-77476371D01*
X80779266Y-77664785D01*
X81270579Y-77665214D01*
X81724657Y-77477592D01*
X82072371Y-77130485D01*
X82260785Y-76676734D01*
X82261214Y-76185421D01*
X82073592Y-75731343D01*
X81726485Y-75383629D01*
X81581717Y-75323516D01*
X97911000Y-75323516D01*
X97911000Y-76024250D01*
X98029750Y-76143000D01*
X99111000Y-76143000D01*
X99111000Y-75061750D01*
X99261000Y-75061750D01*
X99261000Y-76143000D01*
X100342250Y-76143000D01*
X100461000Y-76024250D01*
X100461000Y-75323516D01*
X100388685Y-75148934D01*
X100255066Y-75015314D01*
X100080483Y-74943000D01*
X99379750Y-74943000D01*
X99261000Y-75061750D01*
X99111000Y-75061750D01*
X98992250Y-74943000D01*
X98291517Y-74943000D01*
X98116934Y-75015314D01*
X97983315Y-75148934D01*
X97911000Y-75323516D01*
X81581717Y-75323516D01*
X81272734Y-75195215D01*
X80781421Y-75194786D01*
X80327343Y-75382408D01*
X79979629Y-75729515D01*
X79791215Y-76183266D01*
X79790786Y-76674579D01*
X78923864Y-76674579D01*
X78732734Y-76595215D01*
X78241421Y-76594786D01*
X77787343Y-76782408D01*
X77439629Y-77129515D01*
X77251215Y-77583266D01*
X77250786Y-78074579D01*
X74165000Y-78074579D01*
X74165000Y-73294603D01*
X98405463Y-73294603D01*
X98483840Y-73502037D01*
X98955958Y-73687463D01*
X99463099Y-73678103D01*
X99888160Y-73502037D01*
X99966537Y-73294603D01*
X99186000Y-72514066D01*
X98405463Y-73294603D01*
X74165000Y-73294603D01*
X74165000Y-72177958D01*
X97906537Y-72177958D01*
X97915897Y-72685099D01*
X98091963Y-73110160D01*
X98299397Y-73188537D01*
X99079934Y-72408000D01*
X99292066Y-72408000D01*
X100072603Y-73188537D01*
X100280037Y-73110160D01*
X100456642Y-72660501D01*
X102910779Y-72660501D01*
X103104477Y-73129286D01*
X103462827Y-73488262D01*
X103931274Y-73682778D01*
X104438501Y-73683221D01*
X104907286Y-73489523D01*
X105266262Y-73131173D01*
X105460778Y-72662726D01*
X105460786Y-72652975D01*
X125634786Y-72652975D01*
X125822711Y-73107789D01*
X126170381Y-73456066D01*
X126624866Y-73644785D01*
X127116975Y-73645214D01*
X127571789Y-73457289D01*
X127920066Y-73109619D01*
X127972643Y-72983000D01*
X145031259Y-72983000D01*
X145249460Y-73309561D01*
X145663100Y-73585946D01*
X146151021Y-73683000D01*
X146200979Y-73683000D01*
X146688900Y-73585946D01*
X147102540Y-73309561D01*
X147112534Y-73294603D01*
X153015463Y-73294603D01*
X153093840Y-73502037D01*
X153565958Y-73687463D01*
X154073099Y-73678103D01*
X154498160Y-73502037D01*
X154576537Y-73294603D01*
X153796000Y-72514066D01*
X153015463Y-73294603D01*
X147112534Y-73294603D01*
X147378925Y-72895921D01*
X147475979Y-72408000D01*
X147430221Y-72177958D01*
X152516537Y-72177958D01*
X152525897Y-72685099D01*
X152701963Y-73110160D01*
X152909397Y-73188537D01*
X153689934Y-72408000D01*
X153902066Y-72408000D01*
X154682603Y-73188537D01*
X154890037Y-73110160D01*
X154956884Y-72939958D01*
X185790537Y-72939958D01*
X185799897Y-73447099D01*
X185975963Y-73872160D01*
X186183397Y-73950537D01*
X186963934Y-73170000D01*
X187176066Y-73170000D01*
X187956603Y-73950537D01*
X188164037Y-73872160D01*
X188349463Y-73400042D01*
X188340972Y-72939958D01*
X189600537Y-72939958D01*
X189609897Y-73447099D01*
X189785963Y-73872160D01*
X189993397Y-73950537D01*
X190773934Y-73170000D01*
X190986066Y-73170000D01*
X191766603Y-73950537D01*
X191974037Y-73872160D01*
X192159463Y-73400042D01*
X192158794Y-73363750D01*
X197841000Y-73363750D01*
X197841000Y-74464483D01*
X197913314Y-74639066D01*
X198046934Y-74772685D01*
X198221516Y-74845000D01*
X199322250Y-74845000D01*
X199441000Y-74726250D01*
X199441000Y-73245000D01*
X199591000Y-73245000D01*
X199591000Y-74726250D01*
X199709750Y-74845000D01*
X200810484Y-74845000D01*
X200985066Y-74772685D01*
X201118686Y-74639066D01*
X201191000Y-74464483D01*
X201191000Y-73363750D01*
X201072250Y-73245000D01*
X199591000Y-73245000D01*
X199441000Y-73245000D01*
X197959750Y-73245000D01*
X197841000Y-73363750D01*
X192158794Y-73363750D01*
X192150103Y-72892901D01*
X191974037Y-72467840D01*
X191766603Y-72389463D01*
X190986066Y-73170000D01*
X190773934Y-73170000D01*
X189993397Y-72389463D01*
X189785963Y-72467840D01*
X189600537Y-72939958D01*
X188340972Y-72939958D01*
X188340103Y-72892901D01*
X188164037Y-72467840D01*
X187956603Y-72389463D01*
X187176066Y-73170000D01*
X186963934Y-73170000D01*
X186183397Y-72389463D01*
X185975963Y-72467840D01*
X185790537Y-72939958D01*
X154956884Y-72939958D01*
X155075463Y-72638042D01*
X155068918Y-72283397D01*
X186289463Y-72283397D01*
X187070000Y-73063934D01*
X187850537Y-72283397D01*
X190099463Y-72283397D01*
X190880000Y-73063934D01*
X191660537Y-72283397D01*
X191582160Y-72075963D01*
X191110042Y-71890537D01*
X190602901Y-71899897D01*
X190177840Y-72075963D01*
X190099463Y-72283397D01*
X187850537Y-72283397D01*
X187772160Y-72075963D01*
X187300042Y-71890537D01*
X186792901Y-71899897D01*
X186367840Y-72075963D01*
X186289463Y-72283397D01*
X155068918Y-72283397D01*
X155066103Y-72130901D01*
X154960320Y-71875517D01*
X197841000Y-71875517D01*
X197841000Y-72976250D01*
X197959750Y-73095000D01*
X199441000Y-73095000D01*
X199441000Y-71613750D01*
X199591000Y-71613750D01*
X199591000Y-73095000D01*
X201072250Y-73095000D01*
X201191000Y-72976250D01*
X201191000Y-71875517D01*
X201118686Y-71700934D01*
X200985066Y-71567315D01*
X200810484Y-71495000D01*
X199709750Y-71495000D01*
X199591000Y-71613750D01*
X199441000Y-71613750D01*
X199322250Y-71495000D01*
X198221516Y-71495000D01*
X198046934Y-71567315D01*
X197913314Y-71700934D01*
X197841000Y-71875517D01*
X154960320Y-71875517D01*
X154890037Y-71705840D01*
X154682603Y-71627463D01*
X153902066Y-72408000D01*
X153689934Y-72408000D01*
X152909397Y-71627463D01*
X152701963Y-71705840D01*
X152516537Y-72177958D01*
X147430221Y-72177958D01*
X147378925Y-71920079D01*
X147112535Y-71521397D01*
X153015463Y-71521397D01*
X153796000Y-72301934D01*
X154576537Y-71521397D01*
X154498160Y-71313963D01*
X154026042Y-71128537D01*
X153518901Y-71137897D01*
X153093840Y-71313963D01*
X153015463Y-71521397D01*
X147112535Y-71521397D01*
X147102540Y-71506439D01*
X146688900Y-71230054D01*
X146200979Y-71133000D01*
X146151021Y-71133000D01*
X145663100Y-71230054D01*
X145249460Y-71506439D01*
X145031259Y-71833000D01*
X127972851Y-71833000D01*
X127921289Y-71708211D01*
X127573619Y-71359934D01*
X127119134Y-71171215D01*
X126627025Y-71170786D01*
X126172211Y-71358711D01*
X125823934Y-71706381D01*
X125635215Y-72160866D01*
X125634786Y-72652975D01*
X105460786Y-72652975D01*
X105461221Y-72155499D01*
X105267523Y-71686714D01*
X104909173Y-71327738D01*
X104440726Y-71133222D01*
X103933499Y-71132779D01*
X103464714Y-71326477D01*
X103105738Y-71684827D01*
X102911222Y-72153274D01*
X102910779Y-72660501D01*
X100456642Y-72660501D01*
X100465463Y-72638042D01*
X100456103Y-72130901D01*
X100280037Y-71705840D01*
X100072603Y-71627463D01*
X99292066Y-72408000D01*
X99079934Y-72408000D01*
X98299397Y-71627463D01*
X98091963Y-71705840D01*
X97906537Y-72177958D01*
X74165000Y-72177958D01*
X74165000Y-69661334D01*
X76105588Y-69661334D01*
X76467158Y-70536400D01*
X77136078Y-71206489D01*
X78010512Y-71569586D01*
X78957334Y-71570412D01*
X79075959Y-71521397D01*
X98405463Y-71521397D01*
X99186000Y-72301934D01*
X99966537Y-71521397D01*
X99888160Y-71313963D01*
X99416042Y-71128537D01*
X98908901Y-71137897D01*
X98483840Y-71313963D01*
X98405463Y-71521397D01*
X79075959Y-71521397D01*
X79832400Y-71208842D01*
X80502489Y-70539922D01*
X80865586Y-69665488D01*
X80866412Y-68718666D01*
X80504842Y-67843600D01*
X79835922Y-67173511D01*
X78961488Y-66810414D01*
X78014666Y-66809588D01*
X77139600Y-67171158D01*
X76469511Y-67840078D01*
X76106414Y-68714512D01*
X76105588Y-69661334D01*
X74165000Y-69661334D01*
X74165000Y-65296000D01*
X124392000Y-65296000D01*
X124392000Y-69614000D01*
X124402242Y-69665488D01*
X124435769Y-69834043D01*
X124560414Y-70020586D01*
X124814413Y-70274586D01*
X125000957Y-70399231D01*
X125221000Y-70443000D01*
X125771149Y-70443000D01*
X125822711Y-70567789D01*
X126170381Y-70916066D01*
X126624866Y-71104785D01*
X127116975Y-71105214D01*
X127571789Y-70917289D01*
X127920066Y-70569619D01*
X128108785Y-70115134D01*
X128108904Y-69977534D01*
X217336588Y-69977534D01*
X217698158Y-70852600D01*
X218367078Y-71522689D01*
X219241512Y-71885786D01*
X220188334Y-71886612D01*
X221063400Y-71525042D01*
X221733489Y-70856122D01*
X222096586Y-69981688D01*
X222097412Y-69034866D01*
X221735842Y-68159800D01*
X221066922Y-67489711D01*
X220192488Y-67126614D01*
X219245666Y-67125788D01*
X218370600Y-67487358D01*
X217700511Y-68156278D01*
X217337414Y-69030712D01*
X217336588Y-69977534D01*
X128108904Y-69977534D01*
X128109214Y-69623025D01*
X127921289Y-69168211D01*
X127573619Y-68819934D01*
X127119134Y-68631215D01*
X126627025Y-68630786D01*
X126172211Y-68818711D01*
X125823934Y-69166381D01*
X125771357Y-69293000D01*
X125542000Y-69293000D01*
X125542000Y-65534172D01*
X126856173Y-64220000D01*
X189879828Y-64220000D01*
X190161182Y-64501355D01*
X189978439Y-64623460D01*
X189702054Y-65037100D01*
X189605000Y-65525021D01*
X189605000Y-65574979D01*
X189702054Y-66062900D01*
X189978439Y-66476540D01*
X190392079Y-66752925D01*
X190392456Y-66753000D01*
X187645000Y-66753000D01*
X187645000Y-66694741D01*
X187971561Y-66476540D01*
X188247946Y-66062900D01*
X188345000Y-65574979D01*
X188345000Y-65525021D01*
X188247946Y-65037100D01*
X187971561Y-64623460D01*
X187557921Y-64347075D01*
X187070000Y-64250021D01*
X186582079Y-64347075D01*
X186168439Y-64623460D01*
X185892054Y-65037100D01*
X185795000Y-65525021D01*
X185795000Y-65574979D01*
X185892054Y-66062900D01*
X186168439Y-66476540D01*
X186495000Y-66694741D01*
X186495000Y-66753000D01*
X127972851Y-66753000D01*
X127921289Y-66628211D01*
X127573619Y-66279934D01*
X127119134Y-66091215D01*
X126627025Y-66090786D01*
X126172211Y-66278711D01*
X125823934Y-66626381D01*
X125635215Y-67080866D01*
X125634786Y-67572975D01*
X125822711Y-68027789D01*
X126170381Y-68376066D01*
X126624866Y-68564785D01*
X127116975Y-68565214D01*
X127571789Y-68377289D01*
X127920066Y-68029619D01*
X127972643Y-67903000D01*
X213966639Y-67903000D01*
X214132705Y-68069356D01*
X214454188Y-68202848D01*
X214802285Y-68203151D01*
X215124000Y-68070221D01*
X215370356Y-67824295D01*
X215503848Y-67502812D01*
X215504151Y-67154715D01*
X215371221Y-66833000D01*
X215125295Y-66586644D01*
X214803812Y-66453152D01*
X214455715Y-66452849D01*
X214134000Y-66585779D01*
X213966487Y-66753000D01*
X191367544Y-66753000D01*
X191367921Y-66752925D01*
X191781561Y-66476540D01*
X192016452Y-66125000D01*
X222221639Y-66125000D01*
X222387705Y-66291356D01*
X222709188Y-66424848D01*
X223057285Y-66425151D01*
X223379000Y-66292221D01*
X223625356Y-66046295D01*
X223758848Y-65724812D01*
X223759151Y-65376715D01*
X223626221Y-65055000D01*
X223380295Y-64808644D01*
X223058812Y-64675152D01*
X222710715Y-64674849D01*
X222389000Y-64807779D01*
X222221487Y-64975000D01*
X192016452Y-64975000D01*
X191781561Y-64623460D01*
X191454601Y-64404992D01*
X191411231Y-64186957D01*
X191404064Y-64176231D01*
X191286587Y-64000414D01*
X190524586Y-63238414D01*
X190338043Y-63113769D01*
X190118000Y-63070000D01*
X126618000Y-63070000D01*
X126397957Y-63113769D01*
X126211414Y-63238413D01*
X124560414Y-64889414D01*
X124435769Y-65075957D01*
X124392000Y-65296000D01*
X74165000Y-65296000D01*
X74165000Y-60468501D01*
X89862779Y-60468501D01*
X90056477Y-60937286D01*
X90414827Y-61296262D01*
X90883274Y-61490778D01*
X91390501Y-61491221D01*
X91859286Y-61297523D01*
X92054546Y-61102603D01*
X95357463Y-61102603D01*
X95435840Y-61310037D01*
X95907958Y-61495463D01*
X96415099Y-61486103D01*
X96840160Y-61310037D01*
X96918537Y-61102603D01*
X96138000Y-60322066D01*
X95357463Y-61102603D01*
X92054546Y-61102603D01*
X92218262Y-60939173D01*
X92412778Y-60470726D01*
X92413201Y-59985958D01*
X94858537Y-59985958D01*
X94867897Y-60493099D01*
X95043963Y-60918160D01*
X95251397Y-60996537D01*
X96031934Y-60216000D01*
X96244066Y-60216000D01*
X97024603Y-60996537D01*
X97232037Y-60918160D01*
X97417463Y-60446042D01*
X97408103Y-59938901D01*
X97232037Y-59513840D01*
X97024603Y-59435463D01*
X96244066Y-60216000D01*
X96031934Y-60216000D01*
X95251397Y-59435463D01*
X95043963Y-59513840D01*
X94858537Y-59985958D01*
X92413201Y-59985958D01*
X92413221Y-59963499D01*
X92219523Y-59494714D01*
X92054495Y-59329397D01*
X95357463Y-59329397D01*
X96138000Y-60109934D01*
X96918537Y-59329397D01*
X96840160Y-59121963D01*
X96368042Y-58936537D01*
X95860901Y-58945897D01*
X95435840Y-59121963D01*
X95357463Y-59329397D01*
X92054495Y-59329397D01*
X91861173Y-59135738D01*
X91392726Y-58941222D01*
X90885499Y-58940779D01*
X90416714Y-59134477D01*
X90057738Y-59492827D01*
X89863222Y-59961274D01*
X89862779Y-60468501D01*
X74165000Y-60468501D01*
X74165000Y-54519854D01*
X76374545Y-54519854D01*
X76773336Y-55485001D01*
X77511115Y-56224069D01*
X78475564Y-56624544D01*
X79519854Y-56625455D01*
X80485001Y-56226664D01*
X80747372Y-55964750D01*
X96300000Y-55964750D01*
X96300000Y-56625484D01*
X96372315Y-56800066D01*
X96505934Y-56933686D01*
X96680517Y-57006000D01*
X97341250Y-57006000D01*
X97460000Y-56887250D01*
X97460000Y-55846000D01*
X97610000Y-55846000D01*
X97610000Y-56887250D01*
X97728750Y-57006000D01*
X98389483Y-57006000D01*
X98564066Y-56933686D01*
X98697685Y-56800066D01*
X98770000Y-56625484D01*
X98770000Y-56015579D01*
X99089786Y-56015579D01*
X99277408Y-56469657D01*
X99624515Y-56817371D01*
X99750000Y-56869477D01*
X99750000Y-57672000D01*
X99780948Y-57827586D01*
X99793769Y-57892043D01*
X99918414Y-58078586D01*
X102081414Y-60241586D01*
X102267957Y-60366231D01*
X102488000Y-60410000D01*
X107819683Y-60410000D01*
X107709152Y-60676188D01*
X107708849Y-61024285D01*
X107841779Y-61346000D01*
X108087705Y-61592356D01*
X108409188Y-61725848D01*
X108757285Y-61726151D01*
X109079000Y-61593221D01*
X109246513Y-61426000D01*
X166341639Y-61426000D01*
X166507705Y-61592356D01*
X166829188Y-61725848D01*
X167177285Y-61726151D01*
X167499000Y-61593221D01*
X167745356Y-61347295D01*
X167878848Y-61025812D01*
X167879151Y-60677715D01*
X167746221Y-60356000D01*
X167500295Y-60109644D01*
X167178812Y-59976152D01*
X166830715Y-59975849D01*
X166509000Y-60108779D01*
X166341487Y-60276000D01*
X120651317Y-60276000D01*
X120761848Y-60009812D01*
X120762151Y-59661715D01*
X120721868Y-59564224D01*
X120728188Y-59566848D01*
X121076285Y-59567151D01*
X121398000Y-59434221D01*
X121644356Y-59188295D01*
X121777848Y-58866812D01*
X121778151Y-58518715D01*
X121645221Y-58197000D01*
X121399295Y-57950644D01*
X121077812Y-57817152D01*
X120729715Y-57816849D01*
X120408000Y-57949779D01*
X120240487Y-58117000D01*
X104504173Y-58117000D01*
X103570000Y-57182828D01*
X103570000Y-56869686D01*
X103693657Y-56818592D01*
X104041371Y-56471485D01*
X104229785Y-56017734D01*
X104229786Y-56015579D01*
X104559786Y-56015579D01*
X104747408Y-56469657D01*
X105094515Y-56817371D01*
X105548266Y-57005785D01*
X106039579Y-57006214D01*
X106493657Y-56818592D01*
X106841371Y-56471485D01*
X107029785Y-56017734D01*
X107029786Y-56015579D01*
X107349786Y-56015579D01*
X107537408Y-56469657D01*
X107884515Y-56817371D01*
X108338266Y-57005785D01*
X108829579Y-57006214D01*
X109283657Y-56818592D01*
X109631371Y-56471485D01*
X109819785Y-56017734D01*
X109820214Y-55526421D01*
X109632592Y-55072343D01*
X109285485Y-54724629D01*
X108831734Y-54536215D01*
X108340421Y-54535786D01*
X107886343Y-54723408D01*
X107538629Y-55070515D01*
X107350215Y-55524266D01*
X107349786Y-56015579D01*
X107029786Y-56015579D01*
X107030214Y-55526421D01*
X106842592Y-55072343D01*
X106495485Y-54724629D01*
X106041734Y-54536215D01*
X105550421Y-54535786D01*
X105096343Y-54723408D01*
X104748629Y-55070515D01*
X104560215Y-55524266D01*
X104559786Y-56015579D01*
X104229786Y-56015579D01*
X104230214Y-55526421D01*
X104042592Y-55072343D01*
X103695485Y-54724629D01*
X103241734Y-54536215D01*
X102750421Y-54535786D01*
X102296343Y-54723408D01*
X101948629Y-55070515D01*
X101760215Y-55524266D01*
X101759786Y-56015579D01*
X101947408Y-56469657D01*
X102294515Y-56817371D01*
X102420000Y-56869477D01*
X102420000Y-57421000D01*
X102463769Y-57641043D01*
X102588414Y-57827586D01*
X103859413Y-59098586D01*
X103913128Y-59134477D01*
X104045957Y-59223231D01*
X104230808Y-59260000D01*
X102726172Y-59260000D01*
X100900000Y-57433828D01*
X100900000Y-56869686D01*
X101023657Y-56818592D01*
X101371371Y-56471485D01*
X101559785Y-56017734D01*
X101560214Y-55526421D01*
X101372592Y-55072343D01*
X101025485Y-54724629D01*
X100571734Y-54536215D01*
X100080421Y-54535786D01*
X99626343Y-54723408D01*
X99278629Y-55070515D01*
X99090215Y-55524266D01*
X99089786Y-56015579D01*
X98770000Y-56015579D01*
X98770000Y-55964750D01*
X98651250Y-55846000D01*
X97610000Y-55846000D01*
X97460000Y-55846000D01*
X96418750Y-55846000D01*
X96300000Y-55964750D01*
X80747372Y-55964750D01*
X81224069Y-55488885D01*
X81624544Y-54524436D01*
X81625261Y-53702334D01*
X88044588Y-53702334D01*
X88406158Y-54577400D01*
X89075078Y-55247489D01*
X89949512Y-55610586D01*
X90896334Y-55611412D01*
X91771400Y-55249842D01*
X92105308Y-54916516D01*
X96300000Y-54916516D01*
X96300000Y-55577250D01*
X96418750Y-55696000D01*
X97460000Y-55696000D01*
X97460000Y-54654750D01*
X97610000Y-54654750D01*
X97610000Y-55696000D01*
X98651250Y-55696000D01*
X98770000Y-55577250D01*
X98770000Y-54916516D01*
X98697685Y-54741934D01*
X98564066Y-54608314D01*
X98389483Y-54536000D01*
X97728750Y-54536000D01*
X97610000Y-54654750D01*
X97460000Y-54654750D01*
X97341250Y-54536000D01*
X96680517Y-54536000D01*
X96505934Y-54608314D01*
X96372315Y-54741934D01*
X96300000Y-54916516D01*
X92105308Y-54916516D01*
X92441489Y-54580922D01*
X92804586Y-53706488D01*
X92804787Y-53475579D01*
X97699786Y-53475579D01*
X97887408Y-53929657D01*
X98234515Y-54277371D01*
X98688266Y-54465785D01*
X99179579Y-54466214D01*
X99633657Y-54278592D01*
X99981371Y-53931485D01*
X100169785Y-53477734D01*
X100169786Y-53475579D01*
X100489786Y-53475579D01*
X100677408Y-53929657D01*
X101024515Y-54277371D01*
X101478266Y-54465785D01*
X101969579Y-54466214D01*
X102423657Y-54278592D01*
X102771371Y-53931485D01*
X102959785Y-53477734D01*
X102959786Y-53475579D01*
X103159786Y-53475579D01*
X103347408Y-53929657D01*
X103694515Y-54277371D01*
X104148266Y-54465785D01*
X104639579Y-54466214D01*
X105093657Y-54278592D01*
X105441371Y-53931485D01*
X105629785Y-53477734D01*
X105629786Y-53475579D01*
X105949786Y-53475579D01*
X106137408Y-53929657D01*
X106484515Y-54277371D01*
X106938266Y-54465785D01*
X107429579Y-54466214D01*
X107883657Y-54278592D01*
X108231371Y-53931485D01*
X108326522Y-53702334D01*
X113444588Y-53702334D01*
X113806158Y-54577400D01*
X114475078Y-55247489D01*
X115349512Y-55610586D01*
X116296334Y-55611412D01*
X117171400Y-55249842D01*
X117841489Y-54580922D01*
X117866846Y-54519854D01*
X216374545Y-54519854D01*
X216773336Y-55485001D01*
X217511115Y-56224069D01*
X218475564Y-56624544D01*
X219519854Y-56625455D01*
X220485001Y-56226664D01*
X221224069Y-55488885D01*
X221624544Y-54524436D01*
X221625455Y-53480146D01*
X221226664Y-52514999D01*
X220488885Y-51775931D01*
X219524436Y-51375456D01*
X218480146Y-51374545D01*
X217514999Y-51773336D01*
X216775931Y-52511115D01*
X216375456Y-53475564D01*
X216374545Y-54519854D01*
X117866846Y-54519854D01*
X118204586Y-53706488D01*
X118205412Y-52759666D01*
X117843842Y-51884600D01*
X117174922Y-51214511D01*
X116300488Y-50851414D01*
X115353666Y-50850588D01*
X114478600Y-51212158D01*
X113808511Y-51881078D01*
X113445414Y-52755512D01*
X113444588Y-53702334D01*
X108326522Y-53702334D01*
X108419785Y-53477734D01*
X108420214Y-52986421D01*
X108232592Y-52532343D01*
X107885485Y-52184629D01*
X107431734Y-51996215D01*
X106940421Y-51995786D01*
X106486343Y-52183408D01*
X106138629Y-52530515D01*
X105950215Y-52984266D01*
X105949786Y-53475579D01*
X105629786Y-53475579D01*
X105630214Y-52986421D01*
X105442592Y-52532343D01*
X105095485Y-52184629D01*
X104641734Y-51996215D01*
X104150421Y-51995786D01*
X103696343Y-52183408D01*
X103348629Y-52530515D01*
X103160215Y-52984266D01*
X103159786Y-53475579D01*
X102959786Y-53475579D01*
X102960214Y-52986421D01*
X102772592Y-52532343D01*
X102425485Y-52184629D01*
X101971734Y-51996215D01*
X101480421Y-51995786D01*
X101026343Y-52183408D01*
X100678629Y-52530515D01*
X100490215Y-52984266D01*
X100489786Y-53475579D01*
X100169786Y-53475579D01*
X100170214Y-52986421D01*
X99982592Y-52532343D01*
X99635485Y-52184629D01*
X99181734Y-51996215D01*
X98690421Y-51995786D01*
X98236343Y-52183408D01*
X97888629Y-52530515D01*
X97700215Y-52984266D01*
X97699786Y-53475579D01*
X92804787Y-53475579D01*
X92805412Y-52759666D01*
X92443842Y-51884600D01*
X91774922Y-51214511D01*
X90900488Y-50851414D01*
X89953666Y-50850588D01*
X89078600Y-51212158D01*
X88408511Y-51881078D01*
X88045414Y-52755512D01*
X88044588Y-53702334D01*
X81625261Y-53702334D01*
X81625455Y-53480146D01*
X81226664Y-52514999D01*
X80488885Y-51775931D01*
X79524436Y-51375456D01*
X78480146Y-51374545D01*
X77514999Y-51773336D01*
X76775931Y-52511115D01*
X76375456Y-53475564D01*
X76374545Y-54519854D01*
X74165000Y-54519854D01*
X74165000Y-49165000D01*
X223775000Y-49165000D01*
X223775000Y-114955000D01*
M02*
